<?xml version="1.0" encoding="utf-8"?>
<!-- Generator: Adobe Illustrator 25.0.0, SVG Export Plug-In . SVG Version: 6.00 Build 0)  -->
<svg version="1.1" xmlns="http://www.w3.org/2000/svg" xmlns:xlink="http://www.w3.org/1999/xlink" x="0px" y="0px"
	 viewBox="0 0 2500 2500" style="enable-background:new 0 0 2500 2500;" xml:space="preserve">
<style type="text/css">
	.st0{display:none;}
	.st1{display:inline;}
	.st2{fill-rule:evenodd;clip-rule:evenodd;fill:#FFFFFF;}
	.st3{fill-rule:evenodd;clip-rule:evenodd;fill:#F7D730;}
	.st4{fill-rule:evenodd;clip-rule:evenodd;}
	.st5{display:inline;fill-rule:evenodd;clip-rule:evenodd;}
</style>
<g id="Layer_1" class="st0">
	<g class="st1">
		<path class="st2" d="M592,766h2500v2500H592V766z"/>
		<path class="st3" d="M110.3,915.2h467.4v669.7H110.3V915.2z M177.7,1517.4h332.4V982.6H177.7V1517.4L177.7,1517.4z"/>
		<path class="st4" d="M888.1,1215.6h-28.9c-38-53.6-75.6-106.9-113.3-167.2h-0.3v167.2h-32V982.5h28.9
			c38,53.3,75.6,106.2,112.8,166.1h0.7V982.5h32L888.1,1215.6L888.1,1215.6z M964.1,1123.4c9.3-30.6,18.6-58.9,27-94.9h0.7
			c9.3,36,17.7,64.3,26.3,94.9H964.1L964.1,1123.4z M979.4,982.5l-80.5,233.1h34.6l20.3-63.6h70.3l18.3,63.6h44.7l-74.3-233.1H979.4
			z M1124.6,1215.6v-201.8h-61.3v-31.3h162.5v31.3h-61.2v201.8L1124.6,1215.6L1124.6,1215.6z M1238.7,982.5h39.7v233.1h-39.7V982.5z
			 M1401.6,1186.3c-41.7,0-56.3-46-56.3-90.6c0-42.9,16.6-83.9,56.3-83.9c39.6,0,56.2,41,56.2,83.9
			C1457.9,1140.3,1443.2,1186.3,1401.6,1186.3z M1401.6,1219.6c60.9,0,98.9-54.3,98.9-123.9c0-65.3-41.9-117.2-98.9-117.2
			c-56.9,0-99,51.9-99,117.2C1302.7,1165.3,1340.7,1219.6,1401.6,1219.6z M1699.3,1215.6h-28.9c-38-53.6-75.6-106.9-113.2-167.2
			h-0.3v167.2h-31.9V982.5h28.9c37.9,53.3,75.6,106.2,112.8,166.1h0.7V982.5h32L1699.3,1215.6L1699.3,1215.6z M1775.2,1123.4
			c9.4-30.6,18.6-58.9,27-94.9h0.7c9.3,36,17.6,64.3,26.3,94.9H1775.2L1775.2,1123.4z M1790.6,982.5l-80.6,233.1h34.7l20.3-63.6
			h70.3l18.3,63.6h44.6l-74.3-233.1H1790.6L1790.6,982.5z M1909.7,982.5h39.7v201.8h78.9v31.3h-118.6V982.5z M863.6,1410.6v96.2
			c-21.3,8.4-43.7,14.3-66.2,14.3c-68.6,0-111.9-53.3-111.9-121.9c0-63.6,43.3-119.2,113.2-119.2c21.6,0,43.3,8,56.6,18l-13,27.6
			c-10.6-6.6-27.3-12.3-42.6-12.3c-42.6,0-71.6,33.6-71.6,86.6c0,55.2,33.3,87.8,67.6,87.8c10.6,0,19.6-1.3,28-5.6v-71.6H863.6z
			 M1006.5,1315.4h-66.7v63.9h65.3v31.3h-65.3v75.2h78.6v31.3H899.8V1284h106.7V1315.4z M1129.7,1487.8c-41.7,0-56.3-45.9-56.3-90.6
			c0-42.9,16.7-83.9,56.3-83.9c39.6,0,56.2,41,56.2,83.9C1185.9,1441.9,1171.2,1487.8,1129.7,1487.8z M1129.7,1521.1
			c60.9,0,98.8-54.3,98.8-123.9c0-65.3-41.9-117.2-98.8-117.2c-57,0-98.9,52-98.9,117.2C1030.8,1466.9,1068.7,1521.1,1129.7,1521.1z
			 M1420.3,1410.6v96.2c-21.3,8.4-43.6,14.3-66.3,14.3c-68.6,0-111.9-53.3-111.9-121.9c0-63.6,43.3-119.2,113.3-119.2
			c21.7,0,43.3,8,56.6,18l-13,27.6c-10.7-6.6-27.2-12.3-42.6-12.3c-42.7,0-71.7,33.6-71.7,86.6c0,55.2,33.3,87.8,67.6,87.8
			c10.7,0,19.6-1.3,28-5.6v-71.6H1420.3z M1497,1315.4h17.6c23.6,0,36.9,13.6,36.9,37.6c0,31.3-18.9,45.2-37.9,46.2
			c-4,0.4-13.3,0.7-16.6,1V1315.4L1497,1315.4z M1598.2,1517.2l-47-96.5c25.6-13.6,40.4-41.3,40.4-69.3c0-45.3-27.7-67.3-72.3-67.3
			h-62.3v233.1h40.1v-87.9h18l37.6,87.9L1598.2,1517.2L1598.2,1517.2z M1664.1,1424.9c9.3-30.7,18.6-59,27-94.9h0.7
			c9.3,36,17.6,64.2,26.3,94.9H1664.1L1664.1,1424.9z M1679.4,1284l-80.6,233.1h34.6l20.3-63.6h70.3l18.2,63.6h44.7l-74.3-233.1
			H1679.4L1679.4,1284z M1861.9,1284h-62.3v233.1h40v-87.9h17.9c47.7,0,76.7-38.6,76.7-77.9C1934.2,1306,1906.5,1284,1861.9,1284
			L1861.9,1284z M1856.3,1399.2c-4.2,0.4-13.9,0.7-16.7,1v-84.8h17.9c23.3,0,36.7,13.6,36.7,37.6
			C1894.2,1384.3,1875.3,1398.2,1856.3,1399.2z M2119.3,1517.2h-39.9V1405h-83v112.2h-39.5V1284h39.5v89.6h83v-88.9h39.9V1517.2
			L2119.3,1517.2z M2157.5,1284h39.7v233.1h-39.7V1284z M2377,1326.4c-9.7-6-25.6-13-41-13c-40.7,0-70.2,33.6-70.2,86.6
			c0,55.2,32.6,87.8,71.3,87.8c14.1-0.1,28-4.1,39.9-11.7l11,29c-12.1,8.3-33.3,16-52.6,16c-68.6,0-111.9-53.3-111.9-121.9
			c0-63.6,42.9-119.2,112.5-119.2c20.7,0,39.9,8.7,53.7,18L2377,1326.4L2377,1326.4z"/>
	</g>
	<path class="st5" d="M892.1,1215.8h-28.9c-38-53.6-75.6-106.9-113.3-167.2h-0.3v167.2h-32V982.7h28.9
		c38,53.3,75.6,106.2,112.8,166.1h0.7V982.7h32L892.1,1215.8L892.1,1215.8z M968.1,1123.6c9.3-30.6,18.6-58.9,27-94.9h0.7
		c9.3,36,17.7,64.3,26.3,94.9H968.1L968.1,1123.6z M983.3,982.7l-80.5,233.1h34.6l20.3-63.6h70.3l18.3,63.6h44.7l-74.3-233.1H983.3z
		 M1128.6,1215.8V1014h-61.3v-31.3h162.5v31.3h-61.2v201.8H1128.6L1128.6,1215.8z M1242.7,982.7h39.7v233.1h-39.7V982.7z
		 M1405.6,1186.5c-41.7,0-56.3-46-56.3-90.6c0-42.9,16.6-83.9,56.3-83.9c39.6,0,56.2,41,56.2,83.9
		C1461.8,1140.5,1447.2,1186.5,1405.6,1186.5z M1405.6,1219.8c60.9,0,98.9-54.3,98.9-123.9c0-65.3-41.9-117.2-98.9-117.2
		c-56.9,0-99,51.9-99,117.2C1306.6,1165.5,1344.6,1219.8,1405.6,1219.8z M1703.3,1215.8h-28.9c-38-53.6-75.6-106.9-113.2-167.2h-0.3
		v167.2h-31.9V982.7h28.9c37.9,53.3,75.6,106.2,112.8,166.1h0.7V982.7h32L1703.3,1215.8L1703.3,1215.8z M1779.2,1123.6
		c9.4-30.6,18.6-58.9,27-94.9h0.7c9.3,36,17.6,64.3,26.3,94.9H1779.2L1779.2,1123.6z M1794.6,982.7l-80.6,233.1h34.7l20.3-63.6h70.3
		l18.3,63.6h44.6l-74.3-233.1H1794.6L1794.6,982.7z M1913.7,982.7h39.7v201.8h78.9v31.3h-118.6V982.7z M867.5,1410.8v96.2
		c-21.3,8.4-43.7,14.3-66.2,14.3c-68.6,0-111.9-53.3-111.9-121.9c0-63.6,43.3-119.2,113.2-119.2c21.6,0,43.3,8,56.6,18l-13,27.6
		c-10.6-6.6-27.3-12.3-42.6-12.3c-42.6,0-71.6,33.6-71.6,86.6c0,55.2,33.3,87.8,67.6,87.8c10.6,0,19.6-1.3,28-5.6v-71.6H867.5z
		 M1010.5,1315.6h-66.7v63.9h65.3v31.3h-65.3v75.2h78.6v31.3H903.8v-233.1h106.7V1315.6z M1133.7,1488c-41.7,0-56.3-45.9-56.3-90.6
		c0-42.9,16.7-83.9,56.3-83.9c39.6,0,56.2,41,56.2,83.9C1189.9,1442.1,1175.2,1488,1133.7,1488z M1133.7,1521.3
		c60.9,0,98.8-54.3,98.8-123.9c0-65.3-41.9-117.2-98.8-117.2c-57,0-98.9,52-98.9,117.2C1034.7,1467.1,1072.6,1521.3,1133.7,1521.3z
		 M1424.3,1410.8v96.2c-21.3,8.4-43.6,14.3-66.3,14.3c-68.6,0-111.9-53.3-111.9-121.9c0-63.6,43.3-119.2,113.3-119.2
		c21.7,0,43.3,8,56.6,18l-13,27.6c-10.7-6.6-27.2-12.3-42.6-12.3c-42.7,0-71.7,33.6-71.7,86.6c0,55.2,33.3,87.8,67.6,87.8
		c10.7,0,19.6-1.3,28-5.6v-71.6H1424.3z M1501,1315.6h17.6c23.6,0,36.9,13.6,36.9,37.6c0,31.3-18.9,45.2-37.9,46.2
		c-4,0.4-13.3,0.7-16.6,1V1315.6L1501,1315.6z M1602.2,1517.4l-47-96.5c25.6-13.6,40.4-41.3,40.4-69.3c0-45.3-27.7-67.3-72.3-67.3
		h-62.3v233.1h40.1v-87.9h18l37.6,87.9L1602.2,1517.4L1602.2,1517.4z M1668.1,1425.1c9.3-30.7,18.6-59,27-94.9h0.7
		c9.3,36,17.6,64.2,26.3,94.9H1668.1L1668.1,1425.1z M1683.4,1284.2l-80.6,233.1h34.6l20.3-63.6h70.3l18.2,63.6h44.7l-74.3-233.1
		H1683.4L1683.4,1284.2z M1865.8,1284.2h-62.3v233.1h40v-87.9h17.9c47.7,0,76.7-38.6,76.7-77.9
		C1938.1,1306.2,1910.5,1284.2,1865.8,1284.2L1865.8,1284.2z M1860.2,1399.5c-4.2,0.4-13.9,0.7-16.7,1v-84.8h17.9
		c23.3,0,36.7,13.6,36.7,37.6C1898.2,1384.5,1879.2,1398.5,1860.2,1399.5z M2123.3,1517.4h-39.9v-112.2h-83v112.2h-39.5v-233.1h39.5
		v89.6h83v-88.9h39.9V1517.4L2123.3,1517.4z M2161.5,1284.2h39.7v233.1h-39.7V1284.2z M2381,1326.6c-9.7-6-25.6-13-41-13
		c-40.7,0-70.2,33.6-70.2,86.6c0,55.2,32.6,87.8,71.3,87.8c14.1-0.1,28-4.1,39.9-11.7l11,29c-12.1,8.3-33.3,16-52.6,16
		c-68.6,0-111.9-53.3-111.9-121.9c0-63.6,42.9-119.2,112.5-119.2c20.7,0,39.9,8.7,53.7,18L2381,1326.6L2381,1326.6z"/>
</g>
<g id="name">
	<path class="st4" d="M892.7,1211.6h-28.9c-38-53.6-75.6-106.9-113.3-167.2h-0.3v167.2h-32V978.5h28.9
		c38,53.3,75.6,106.2,112.8,166.1h0.7V978.5h32L892.7,1211.6L892.7,1211.6z M968.6,1119.4c9.3-30.6,18.6-58.9,27-94.9h0.7
		c9.3,36,17.7,64.3,26.3,94.9H968.6L968.6,1119.4z M983.9,978.5l-80.5,233.1H938l20.3-63.6h70.3l18.3,63.6h44.7l-74.3-233.1H983.9z
		 M1129.1,1211.6v-201.8h-61.3v-31.3h162.5v31.3h-61.2v201.8H1129.1L1129.1,1211.6z M1243.3,978.5h39.7v233.1h-39.7V978.5z
		 M1406.2,1182.3c-41.7,0-56.3-46-56.3-90.6c0-42.9,16.6-83.9,56.3-83.9c39.6,0,56.2,41,56.2,83.9
		C1462.4,1136.3,1447.8,1182.3,1406.2,1182.3z M1406.2,1215.6c60.9,0,98.9-54.3,98.9-123.9c0-65.3-41.9-117.2-98.9-117.2
		c-56.9,0-99,51.9-99,117.2C1307.2,1161.4,1345.2,1215.6,1406.2,1215.6z M1703.8,1211.6h-28.9c-38-53.6-75.6-106.9-113.2-167.2h-0.3
		v167.2h-31.9V978.5h28.9c37.9,53.3,75.6,106.2,112.8,166.1h0.7V978.5h32L1703.8,1211.6L1703.8,1211.6z M1779.8,1119.4
		c9.4-30.6,18.6-58.9,27-94.9h0.7c9.3,36,17.6,64.3,26.3,94.9H1779.8L1779.8,1119.4z M1795.1,978.5l-80.6,233.1h34.7l20.3-63.6h70.3
		l18.3,63.6h44.6l-74.3-233.1H1795.1L1795.1,978.5z M1914.3,978.5h39.7v201.8h78.9v31.3h-118.6V978.5z M868.1,1406.6v96.2
		c-21.3,8.4-43.7,14.3-66.2,14.3c-68.6,0-111.9-53.3-111.9-121.9c0-63.6,43.3-119.2,113.2-119.2c21.6,0,43.3,8,56.6,18l-13,27.6
		c-10.6-6.6-27.3-12.3-42.6-12.3c-42.6,0-71.6,33.6-71.6,86.6c0,55.2,33.3,87.8,67.6,87.8c10.6,0,19.6-1.3,28-5.6v-71.6H868.1z
		 M1011,1311.4h-66.7v63.9h65.3v31.3h-65.3v75.2h78.6v31.3H904.4v-233.1H1011V1311.4z M1134.2,1483.9c-41.7,0-56.3-45.9-56.3-90.6
		c0-42.9,16.7-83.9,56.3-83.9c39.6,0,56.2,41,56.2,83.9C1190.4,1437.9,1175.8,1483.9,1134.2,1483.9z M1134.2,1517.2
		c60.9,0,98.8-54.3,98.8-123.9c0-65.3-41.9-117.2-98.8-117.2c-57,0-98.9,52-98.9,117.2C1035.3,1462.9,1073.2,1517.2,1134.2,1517.2z
		 M1424.9,1406.6v96.2c-21.3,8.4-43.6,14.3-66.3,14.3c-68.6,0-111.9-53.3-111.9-121.9c0-63.6,43.3-119.2,113.3-119.2
		c21.7,0,43.3,8,56.6,18l-13,27.6c-10.7-6.6-27.2-12.3-42.6-12.3c-42.7,0-71.7,33.6-71.7,86.6c0,55.2,33.3,87.8,67.6,87.8
		c10.7,0,19.6-1.3,28-5.6v-71.6H1424.9z M1501.5,1311.4h17.6c23.6,0,36.9,13.6,36.9,37.6c0,31.3-18.9,45.2-37.9,46.2
		c-4,0.4-13.3,0.7-16.6,1V1311.4L1501.5,1311.4z M1602.7,1513.2l-47-96.5c25.6-13.6,40.4-41.3,40.4-69.3c0-45.3-27.7-67.3-72.3-67.3
		h-62.3v233.1h40.1v-87.9h18l37.6,87.9L1602.7,1513.2L1602.7,1513.2z M1668.6,1420.9c9.3-30.7,18.6-59,27-94.9h0.7
		c9.3,36,17.6,64.2,26.3,94.9H1668.6L1668.6,1420.9z M1683.9,1280.1l-80.6,233.1h34.6l20.3-63.6h70.3l18.2,63.6h44.7l-74.3-233.1
		H1683.9L1683.9,1280.1z M1866.4,1280.1h-62.3v233.1h40v-87.9h17.9c47.7,0,76.7-38.6,76.7-77.9
		C1938.7,1302,1911,1280.1,1866.4,1280.1L1866.4,1280.1z M1860.8,1395.3c-4.2,0.4-13.9,0.7-16.7,1v-84.8h17.9
		c23.3,0,36.7,13.6,36.7,37.6C1898.7,1380.3,1879.8,1394.3,1860.8,1395.3z M2123.8,1513.2h-39.9V1401h-83v112.2h-39.5v-233.1h39.5
		v89.6h83v-88.9h39.9V1513.2L2123.8,1513.2z M2162.1,1280.1h39.7v233.1h-39.7V1280.1z M2381.5,1322.4c-9.7-6-25.6-13-41-13
		c-40.7,0-70.2,33.6-70.2,86.6c0,55.2,32.6,87.8,71.3,87.8c14.1-0.1,28-4.1,39.9-11.7l11,29c-12.1,8.3-33.3,16-52.6,16
		c-68.6,0-111.9-53.3-111.9-121.9c0-63.6,42.9-119.2,112.5-119.2c20.7,0,39.9,8.7,53.7,18L2381.5,1322.4L2381.5,1322.4z"/>
</g>
<g id="logo_x5F_box">
	<path class="st2" d="M592.9,3266V766"/>
	<path class="st3" d="M111.1,915.2h467.4v669.7H111.1V915.2z M178.5,1517.4h332.4V982.6H178.5V1517.4L178.5,1517.4z"/>
</g>
</svg>
