<svg style="position: absolute; top: 0px; left: 0px; width: 100%; height: 100%;"><defs><mask id="Mask"><rect x="0" y="0" width="100%" height="100%" rx="0" ry="0" fill="#fff"></rect><rect x="10" y="20" width="544" height="629" id="hole" rx="0" ry="0"></rect></mask></defs><rect x="0" y="0" width="100%" height="100%" style="fill: rgba(0, 0, 0, 0.5);" mask="url(#Mask)" class="v2shadowMask"></rect><use href="#hole" fill="rgba(0,0,0,0)" stroke="#fff" stroke-width="2" class="v2cropSection" style="cursor: move;"></use><g transform="translate(4, 14), rotate(0)" style="cursor: nwse-resize;"><rect fill="rgba(0,0,0,0)" stroke="none" x="0" y="0" width="20" height="20" class="v2cropperHandle nw"></rect><path d="M5,0C2.2,0,0,2.2,0,5v15h6V6h14V0H5z" fill="#fff" class="v2cropperHandle nw"></path></g><g transform="translate(560, 14), rotate(90)" style="cursor: nesw-resize;"><rect fill="rgba(0,0,0,0)" stroke="none" x="0" y="0" width="20" height="20" class="v2cropperHandle ne"></rect><path d="M5,0C2.2,0,0,2.2,0,5v15h6V6h14V0H5z" fill="#fff" class="v2cropperHandle ne"></path></g><g transform="translate(4, 655), rotate(270)" style="cursor: nesw-resize;"><rect fill="rgba(0,0,0,0)" stroke="none" x="0" y="0" width="20" height="20" class="v2cropperHandle sw"></rect><path d="M5,0C2.2,0,0,2.2,0,5v15h6V6h14V0H5z" fill="#fff" class="v2cropperHandle sw"></path></g><g transform="translate(560, 655), rotate(180)" style="cursor: nwse-resize;"><rect fill="rgba(0,0,0,0)" stroke="none" x="0" y="0" width="20" height="20" class="v2cropperHandle se"></rect><path d="M5,0C2.2,0,0,2.2,0,5v15h6V6h14V0H5z" fill="#fff" class="v2cropperHandle se"></path></g><rect fill="rgba(0,0,0,0)" stroke="none" x="30" y="10" width="504" height="30" class="v2cropperHandle n" style="cursor: ns-resize;"></rect><rect fill="rgba(0,0,0,0)" stroke="none" x="534" y="40" width="30" height="589" class="v2cropperHandle e" style="cursor: ew-resize;"></rect><rect fill="rgba(0,0,0,0)" stroke="none" x="30" y="639" width="504" height="30" class="v2cropperHandle s" style="cursor: ns-resize;"></rect><rect fill="rgba(0,0,0,0)" stroke="none" x="-10" y="40" width="30" height="589" class="v2cropperHandle w" style="cursor: ew-resize;"></rect></svg>