<svg xmlns="http://www.w3.org/2000/svg" viewBox="0 0 2283.09 2500">
  <defs>
    <style>
      .cls-1, .cls-2, .cls-3 {
        fill-rule: evenodd;
      }

      .cls-2 {
      }

      .cls-3 {
      }
    </style>
  </defs>
    <path class="name" d="M892.66,1211.65H863.75c-38-53.64-75.64-107-113.25-167.19h-.27v167.19h-32V978.53h28.94c38,53.27,75.59,106.2,112.85,166.13h.66V978.53h32v233.12Zm76-92.27c9.27-30.65,18.61-59,27-94.92h.67c9.32,36,17.66,64.29,26.31,94.92Zm15.28-140.85-80.55,233.12H938L958.25,1148h70.31l18.3,63.63h44.66l-74.29-233.12Zm145.21,233.12V1009.8h-61.3V978.53h162.5v31.27h-61.24v201.85Zm114.16-233.12H1283v233.12h-39.68Zm162.9,203.77c-41.68,0-56.32-46-56.32-90.58,0-43,16.64-83.92,56.32-83.92s56.21,41,56.21,83.92C1462.39,1136.35,1447.77,1182.3,1406.18,1182.3Zm0,33.29c60.91,0,98.86-54.25,98.86-123.89,0-65.25-41.89-117.19-98.86-117.19s-99,51.94-99,117.19C1307.19,1161.35,1345.21,1215.59,1406.18,1215.59Zm297.66-3.94H1674.9c-38-53.64-75.64-107-113.23-167.19h-.32v167.19h-31.92V978.53h29c37.92,53.27,75.56,106.2,112.79,166.13h.69V978.53h32v233.12Zm75.93-92.27c9.35-30.65,18.62-59,27-94.92h.66c9.33,36,17.63,64.29,26.27,94.92Zm15.36-140.85-80.58,233.12h34.65l20.26-63.63h70.3l18.31,63.63h44.6l-74.28-233.12Zm119.15,0H1954v201.8h78.88v31.32H1914.28ZM868.1,1406.64v96.21c-21.34,8.36-43.66,14.31-66.24,14.31-68.62,0-111.9-53.28-111.9-121.89,0-63.63,43.28-119.21,113.21-119.21,21.61,0,43.27,8,56.6,18l-13,27.64c-10.64-6.61-27.33-12.27-42.62-12.27-42.59,0-71.59,33.64-71.59,86.6,0,55.23,33.31,87.84,67.62,87.84,10.61,0,19.65-1.27,28-5.64v-71.59ZM1011,1311.42H944.35v63.91h65.26v31.31H944.35v75.21h78.58v31.35H904.36V1280.06H1011Zm123.2,172.44c-41.68,0-56.34-45.92-56.34-90.57,0-42.92,16.65-83.88,56.34-83.88s56.21,41,56.21,83.88C1190.44,1437.94,1175.76,1483.86,1134.23,1483.86Zm0,33.3c60.9,0,98.84-54.27,98.84-123.88,0-65.25-41.93-117.24-98.84-117.24s-98.92,52-98.92,117.24C1035.29,1462.9,1073.19,1517.16,1134.23,1517.16Zm290.62-110.52v96.21c-21.33,8.36-43.59,14.31-66.26,14.31-68.57,0-111.89-53.28-111.89-121.89,0-63.63,43.32-119.21,113.25-119.21,21.66,0,43.27,8,56.56,18l-13,27.64c-10.66-6.61-27.21-12.27-42.56-12.27-42.68,0-71.65,33.64-71.65,86.6,0,55.23,33.33,87.84,67.63,87.84,10.69,0,19.64-1.27,28-5.64v-71.59Zm76.68-95.22h17.6c23.58,0,36.94,13.6,36.94,37.6,0,31.27-19,45.24-38,46.24-4,.4-13.35.74-16.59,1v-84.87Zm101.2,201.78-47-96.54c25.64-13.62,40.38-41.33,40.38-69.31,0-45.33-27.69-67.29-72.32-67.29h-62.27V1513.2h40v-87.91h18l37.56,87.91Zm65.92-92.26c9.29-30.69,18.62-59,27-94.92h.66c9.33,36,17.63,64.23,26.29,94.92h-53.92Zm15.29-140.88-80.61,233.14H1638l20.34-63.63h70.29l18.21,63.63h44.71l-74.31-233.14Zm182.47,0h-62.27V1513.2h40v-87.91h17.94c47.65,0,76.65-38.64,76.65-77.94,0-45.34-27.66-67.29-72.29-67.29Zm-5.61,115.21c-4.15.38-13.9.69-16.69,1v-84.81h17.94c23.31,0,36.68,13.6,36.68,37.6C1898.73,1380.29,1879.81,1394.28,1860.8,1395.27Zm263,117.93h-40V1401h-83V1513.2h-39.52V1280.06h39.52v89.59h83v-88.92h40V1513.2Zm38.26-233.14h39.71V1513.2h-39.71Zm219.46,42.32c-9.67-6-25.59-13-41-13-40.69,0-70.22,33.65-70.22,86.6,0,55.24,32.6,87.85,71.25,87.85a75.38,75.38,0,0,0,39.95-11.68l11,29c-12.07,8.31-33.31,16-52.6,16-68.62,0-111.94-53.28-111.94-121.89,0-63.63,42.94-119.21,112.53-119.21,20.7,0,39.94,8.71,53.68,18l-12.7,28.32Z" transform="translate(-111.15 -766)"/>
    <path class="logo_box" d="M592.85,3266V766" transform="translate(-111.15 -766)"/>
    <path class="cls-3" d="M111.15,915.16H578.53v669.68H111.15Zm67.36,602.26H510.93V982.6H178.51v534.82Z" transform="translate(-111.15 -766)"/>
</svg>
