<?xml version="1.0" standalone="no"?>
<!DOCTYPE svg PUBLIC "-//W3C//DTD SVG 20010904//EN"
 "http://www.w3.org/TR/2001/REC-SVG-20010904/DTD/svg10.dtd">
<svg version="1.0" xmlns="http://www.w3.org/2000/svg"
 width="1152.000000pt" height="920.000000pt" viewBox="0 0 1152.000000 920.000000"
 preserveAspectRatio="xMidYMid meet">

<g transform="translate(0.000000,920.000000) scale(0.100000,-0.100000)"
fill="#ffce00" stroke="none">
<path d="M5525 8959 c-285 -19 -649 -99 -925 -204 -880 -334 -1582 -1035
-1913 -1910 -131 -347 -194 -673 -204 -1050 -19 -733 111 -1194 534 -1895 234
-387 475 -745 1218 -1805 393 -561 698 -997 925 -1325 317 -458 349 -493 489
-534 146 -43 306 3 406 117 25 29 173 237 328 462 271 392 1000 1435 1077
1540 84 115 594 856 723 1050 478 722 683 1126 781 1545 88 370 97 846 25
1278 -230 1389 -1315 2469 -2709 2696 -254 42 -486 52 -755 35z m510 -1928
c583 -124 1012 -593 1084 -1186 58 -479 -142 -950 -532 -1249 -147 -113 -333
-200 -527 -247 -83 -20 -121 -23 -295 -24 -172 0 -214 3 -300 22 -530 119
-937 534 -1052 1073 -25 119 -25 421 0 537 56 259 174 485 353 672 222 234
523 385 838 422 106 12 328 1 431 -20z"/>
</g>
</svg>
