<?xml version="1.0" encoding="utf-8"?>
<!-- Generator: Adobe Illustrator 25.0.0, SVG Export Plug-In . SVG Version: 6.00 Build 0)  -->
<svg version="1.1" id="Layer_1" xmlns="http://www.w3.org/2000/svg" xmlns:xlink="http://www.w3.org/1999/xlink" x="0px" y="0px"
	 viewBox="0 0 107.6 124.9" style="enable-background:new 0 0 107.6 124.9;" xml:space="preserve">
<style type="text/css">
	.st0{clip-path:url(#SVGID_2_);}
	.st1{clip-path:url(#SVGID_4_);}
	.st2{clip-path:url(#SVGID_6_);}
	.st3{clip-path:url(#SVGID_8_);}
	.st4{clip-path:url(#SVGID_10_);}
	.st5{clip-path:url(#SVGID_12_);}
	.st6{clip-path:url(#SVGID_14_);}
	.st7{clip-path:url(#SVGID_16_);}
	.st8{clip-path:url(#SVGID_18_);}
	.st9{clip-path:url(#SVGID_20_);}
	.st10{clip-path:url(#SVGID_22_);}
	.st11{clip-path:url(#SVGID_24_);}
	.st12{clip-path:url(#SVGID_26_);}
</style>
<g id="Layer_2_1_">
	<g id="Layer_1-2">
		<path d="M20.2,0c-1.1,0-2.1,0.5-2.8,1.3c-0.4,0.8-1.2,1.2-2.1,1.3c-0.7,0-1.4,0.3-1.9,0.9c-0.3,0.5-0.5,1.1-0.7,1.7
			c-0.1,0.4-0.3,1.2-0.4,1.7c-0.2,0.6-0.8,1-1.5,1c-0.6,0-1.2-0.2-1.7-0.5C8.8,7,8.3,6.7,7.7,6.4C7.1,6.2,6.5,6,5.9,6H4.1
			c-1,0.2-1.8,0.7-2.5,1.4L1.5,7.5C0.7,8.2,0.1,9.2,0,10.3c0,0.7,0.1,1.5,0.4,2.2c0.2,0.4,0.2,0.7,0,0.7S0,13.6,0,14.1
			c0,0.5,0.1,1,0.2,1.5c0.1,0.3,0.4,1,0.7,1.5c0.3,0.6,0.9,0.9,1.6,0.8c0.6-0.1,1.2-0.4,1.2-0.8c0.1-0.5,0.5-0.9,1-1
			c0.5-0.2,0.9-0.5,1-0.7s0.4-0.2,0.8,0c0.4,0.3,0.6,0.7,0.5,1.2c-0.1,0.5-0.1,1.1,0,1.6c0.1,0.9,0,1.8-0.1,2.7
			c-0.1,1-0.1,1.9,0.2,2c0.3,0.3,0.6,0.7,0.7,1.1c0.2,0.6,0.3,1.2,0.4,1.8c0.1,0.6,0.6,1.1,1.1,1.4c0.6,0.3,1.3,0.5,2,0.5
			c0.5,0,1.1,0.2,1.5,0.6c0.5,0.6,1,1.1,1.6,1.7c0.6,0.6,1.2,1.1,1.9,1.5c0.4,0.2,0.9,0.4,1.3,0.4c0.4,0,0.6-0.4,0.6-0.8
			c0-0.4,0.6-1.1,1.3-1.5c0.8-0.4,1.6-0.8,2.5-1c0.6-0.2,1.1-0.7,1.1-1.1s0.3-0.5,0.7-0.1c0.6,0.4,1.4,0.7,2.1,0.7
			c0.8,0,1.6,0.1,2.3,0.3c0.5,0.2,0.8,0.6,0.9,1.1c-0.1,0.6-0.3,1.2-0.6,1.7c-0.6,0.7-1.2,1.3-2,1.8c-0.7,0.4-1.2,1.1-1.5,1.8
			c-0.2,0.8-0.5,1.5-1.1,2.1c-0.6,0.7-1.1,1.5-1.6,2.3c-0.5,0.8-1.3,1.2-2.2,1.2c-0.8-0.1-1.6,0.3-2.1,0.9c-0.2,0.5-0.6,1.2-0.8,1.6
			c-0.2,0.5-0.4,1-0.4,1.5c0,0.4,0.9,0.7,2,0.7l0,0c1.1,0,2.3-0.1,2.7-0.2s1.2,0.6,1.9,1.3c0.7,0.8,1.2,1.7,1.4,2.7
			c0.3,1,0.8,1.8,1.5,2.5c0.8,0.7,1.6,0.8,2,0.3s0.7,0,0.9,1.1l0.5,3.5c0.2,1.3,0.7,2.5,1.3,3.7l1.2,2c0.6,1,0.9,2,1.1,3.2
			c0.1,0.9,0.3,1.7,0.8,2.5c0.4,0.6,0.8,1,1.1,0.8c0.3-0.1,0.7-0.1,1,0.2c0.4,0.4,0.6,1,0.5,1.5c0,0.6,0.3,1,0.8,0.9
			c0.4-0.1,0.9-0.2,1.3-0.3c0.3-0.2,0.5-0.6,0.4-0.9c0-0.4-0.3-0.7-0.6-0.9c-0.3-0.1-0.5-0.7-0.6-1.2c0-0.5-0.3-1.1-0.7-1.4
			c-0.3-0.2-0.5-1.2-0.5-2.3v-1.8c0.1-1.3,0.6-2.5,1.4-3.5l0.3-0.4c0.6-0.7,1.4-1.3,2.3-1.7c0.6-0.1,1.2-0.5,1.5-1.1
			c0.5-0.8,1.2-1.6,1.9-2.3l1.3-1.3c0.6-0.7,1.5-1.1,2.5-1.1c0.6,0.2,1.3,0.3,2,0.3c0.5,0,1,0.8,1.1,1.8c0,0.8,0.3,1.6,1,2.1
			c0.6,0.4,1.1,1.1,1.2,1.9c0.1,0.8,0.7,1.5,1.5,1.7c0.7,0.1,1.2,0.6,1.3,1.3c0,0.6,0.2,2.1,0.3,3.2l0.5,4.9c0,0.8,0.3,1.6,0.8,2.3
			c0.5,0.4,0.8,0.9,1.1,1.4c0.2,0.5,0.4,1,0.5,1.6v1.6c0,0.6-0.2,1-0.5,0.8c-0.4-0.6-0.7-1.3-0.7-2.1h-0.7c-0.7,0-0.8-0.2-0.8-0.2
			c-0.5-1-1.2-1.4-1.5-1c-0.3,0.5-0.5,1.1-0.6,1.7c0.1,0.8,0.3,1.5,0.8,2.2c0.4,0.6,1.1,1.7,1.6,2.3c0.4,0.6,0.7,1.2,0.8,1.9
			c0,0.7,0.2,1.4,0.5,2.1c0.4,0.9,0.9,1.7,1.5,2.4c0.5,0.6,1,1,1.7,1.3c0.4,0.1,0.7,0.5,0.6,0.9c0.1,0.7,0.3,1.4,0.8,1.9
			c0.5,0.6,1.1,1.1,1.9,1.2c0.7,0.1,1.3,0.3,1.8,0.8c0.7,0.5,1.5,0.7,2.3,0.8c0.8,0,1.4-0.3,1.3-0.6c-0.1-0.5-0.1-0.9-0.1-1.4
			c0-0.5-0.2-0.8-0.4-0.8c-0.3-0.1-0.6-0.3-0.8-0.6c-0.7-0.4-1.5-0.7-2.3-0.6c-1,0.1-1.8-0.7-1.9-1.7c0-0.9,0-2.1-0.1-2.7
			c-0.2-0.8-0.6-1.6-1.2-2.2c-0.7-0.7-1.4-1.4-2.2-2c-0.6-0.3-1-0.9-1.2-1.5c0-0.4,0.2-0.8,0.4-0.8c0.3,0,0.6,0.2,0.7,0.4
			c0.1,0.3,0.6,0.3,1,0.1c0.5-0.3,0.7-0.9,0.8-1.4V73c-0.1,0.1-0.4-0.2-0.7-0.6c-0.3-0.5-0.7-1-1.2-1.4c-0.6-0.8-0.9-1.7-1.1-2.6
			l-0.4-1.6c-0.3-0.8-0.3-1.7,0-2.4c0.3-0.3,1,0,1.5,0.5l2.2,2.2c0.6,0.6,1.5,0.9,2,0.5c0.6-0.8,0.9-1.7,0.8-2.7l-0.1-2.2
			c0-1.1,0.6-2,1.4-2s1.3-0.3,1.2-0.8c-0.2-0.6-0.3-1.2-0.6-1.8c-0.2-0.6-0.7-1-1.2-1.1c-0.5,0-0.8-0.9-0.8-1.9
			c-0.1-1,0.7-1.8,1.7-1.9c2,0,3.8-0.7,5.3-2c0.5-0.4,1.2-0.7,1.8-0.7c1-0.2,2-0.6,2.8-1.2l2.6-2c0.9-0.7,1.5-1.7,1.6-2.9v-5.2
			c0-1.1-0.1-2.1-0.4-3.2c-0.2-0.6-0.6-1.6-0.8-2.1c-0.2-0.7-0.1-1.4,0.2-2c0.2-0.8,0-1.6-0.5-2.2c-0.6-0.6-1.2-1.2-1.3-1.4
			s0-0.6,0.4-1c0.4-0.3,0.8-0.6,1.2-0.8c0.7-0.1,1.5-0.1,2.2,0c0.9,0,1.6,0.8,1.6,1.7c0,0,0,0,0,0c-0.1,0.9,0.2,1.8,0.8,2.4
			c0.6,0.6,1.1,1.3,1.3,2.2c0.1,0.7,0.7,1.2,1.3,1.4c0.6,0,1-0.5,1-1.2s0.1-2.2,0.2-3.2c0.1-1.1,0.1-2.1,0-3.2
			c-0.1-0.7,0.3-1.5,0.9-1.8c0.6-0.3,1.9-0.8,3-1.2l0.8-0.3c1-0.4,2-0.8,3-1.3c0.8-0.6,1.3-1.6,1.4-2.5v-0.1c0.2-1.1,0-2.1-0.3-2.2
			c-0.7-0.2-1.4-0.3-2.2-0.2c-0.7,0-1.4,0.1-2,0.4c-0.6,0.3-1.3,0.4-2,0.3c-0.7,0-1.3-0.4-1.7-1c-0.1-0.5,0-1.1,0.3-1.5
			c0.5-0.4,1.1-0.6,1.7-0.8c0.6-0.1,1.1-0.5,1.1-0.9c-0.1-0.8-0.4-1.7-0.8-2.4c-0.6-1.1-1.4-1.9-2.5-2.4c-1.1-0.6-2.2-1.3-3.1-2.2
			l-0.4-0.4c-0.8-0.8-1.9-1.9-2.5-2.5c-0.6-0.6-1.3-1-2.1-1.1c-0.6,0-1.4,0-1.8,0.1s-0.8,0.3-0.8,0.7c-0.2,0.6-0.5,1.1-0.9,1.6
			c-0.7,0.8-1.6,1.5-2.4,2.1c-1,0.7-2.3,1-3.5,1.1h-0.7c-1.1,0-2-0.1-2-0.3s-0.9-0.4-2-0.6l-3.3-0.5c-1.1-0.2-2,0.1-2,0.6
			S61.9,8,61.1,8c-0.8,0-1.5-0.4-1.8-1.1c-0.2-0.6-0.6-1.1-1-1.5c-0.8-0.3-1.7-0.3-2.5-0.2h-0.4c-1.1,0.1-2.1,0.6-2.7,1.5
			c-0.5,0.8-1.3,1.3-2.2,1.6c-0.8,0.2-1.7,0-2.4-0.4c-0.8-0.5-1.7-0.8-2.6-0.8c-0.8-0.1-1.5,0.1-2.2,0.4c-0.3,0.2-0.9,0.7-1.3,1
			s-0.7,0.3-0.7,0S40.8,8,40.3,8s-1-0.6-1.3-1.2C38.7,6,38.2,5.4,37.6,5c-0.9-0.4-1.9-0.7-2.8-0.8c-1.3-0.3-2.5-0.6-3.8-1.1
			l-2.4-0.9c-1-0.4-2.2-0.9-2.6-1.1c-0.6-0.3-1.3-0.5-1.9-0.7C23,0.1,21.9,0,20.8,0H20.2z"/>
		<g>
			<defs>
				<path id="SVGID_1_" d="M20.2,0c-1.1,0-2.1,0.5-2.8,1.3c-0.4,0.8-1.2,1.2-2.1,1.3c-0.7,0-1.4,0.3-1.9,0.9
					c-0.3,0.5-0.5,1.1-0.7,1.7c-0.1,0.4-0.3,1.2-0.4,1.7c-0.2,0.6-0.8,1-1.5,1c-0.6,0-1.2-0.2-1.7-0.5C8.8,7,8.3,6.7,7.7,6.4
					C7.1,6.2,6.5,6,5.9,6H4.1c-1,0.2-1.8,0.7-2.5,1.4L1.5,7.5C0.7,8.2,0.1,9.2,0,10.3c0,0.7,0.1,1.5,0.4,2.2c0.2,0.4,0.2,0.7,0,0.7
					S0,13.6,0,14.1c0,0.5,0.1,1,0.2,1.5c0.1,0.3,0.4,1,0.7,1.5c0.3,0.6,0.9,0.9,1.6,0.8c0.6-0.1,1.2-0.4,1.2-0.8
					c0.1-0.5,0.5-0.9,1-1c0.5-0.2,0.9-0.5,1-0.7s0.4-0.2,0.8,0c0.4,0.3,0.6,0.7,0.5,1.2c-0.1,0.5-0.1,1.1,0,1.6
					c0.1,0.9,0,1.8-0.1,2.7c-0.1,1-0.1,1.9,0.2,2c0.3,0.3,0.6,0.7,0.7,1.1c0.2,0.6,0.3,1.2,0.4,1.8c0.1,0.6,0.6,1.1,1.1,1.4
					c0.6,0.3,1.3,0.5,2,0.5c0.5,0,1.1,0.2,1.5,0.6c0.5,0.6,1,1.1,1.6,1.7c0.6,0.6,1.2,1.1,1.9,1.5c0.4,0.2,0.9,0.4,1.3,0.4
					c0.4,0,0.6-0.4,0.6-0.8c0-0.4,0.6-1.1,1.3-1.5c0.8-0.4,1.6-0.8,2.5-1c0.6-0.2,1.1-0.7,1.1-1.1s0.3-0.5,0.7-0.1
					c0.6,0.4,1.4,0.7,2.1,0.7c0.8,0,1.6,0.1,2.3,0.3c0.5,0.2,0.8,0.6,0.9,1.1c-0.1,0.6-0.3,1.2-0.6,1.7c-0.6,0.7-1.2,1.3-2,1.8
					c-0.7,0.4-1.2,1.1-1.5,1.8c-0.2,0.8-0.5,1.5-1.1,2.1c-0.6,0.7-1.1,1.5-1.6,2.3c-0.5,0.8-1.3,1.2-2.2,1.2
					c-0.8-0.1-1.6,0.3-2.1,0.9c-0.2,0.5-0.6,1.2-0.8,1.6c-0.2,0.5-0.4,1-0.4,1.5c0,0.4,0.9,0.7,2,0.7l0,0c1.1,0,2.3-0.1,2.7-0.2
					s1.2,0.6,1.9,1.3c0.7,0.8,1.2,1.7,1.4,2.7c0.3,1,0.8,1.8,1.5,2.5c0.8,0.7,1.6,0.8,2,0.3s0.7,0,0.9,1.1l0.5,3.5
					c0.2,1.3,0.7,2.5,1.3,3.7l1.2,2c0.6,1,0.9,2,1.1,3.2c0.1,0.9,0.3,1.7,0.8,2.5c0.4,0.6,0.8,1,1.1,0.8c0.3-0.1,0.7-0.1,1,0.2
					c0.4,0.4,0.6,1,0.5,1.5c0,0.6,0.3,1,0.8,0.9c0.4-0.1,0.9-0.2,1.3-0.3c0.3-0.2,0.5-0.6,0.4-0.9c0-0.4-0.3-0.7-0.6-0.9
					c-0.3-0.1-0.5-0.7-0.6-1.2c0-0.5-0.3-1.1-0.7-1.4c-0.3-0.2-0.5-1.2-0.5-2.3v-1.8c0.1-1.3,0.6-2.5,1.4-3.5l0.3-0.4
					c0.6-0.7,1.4-1.3,2.3-1.7c0.6-0.1,1.2-0.5,1.5-1.1c0.5-0.8,1.2-1.6,1.9-2.3l1.3-1.3c0.6-0.7,1.5-1.1,2.5-1.1
					c0.6,0.2,1.3,0.3,2,0.3c0.5,0,1,0.8,1.1,1.8c0,0.8,0.3,1.6,1,2.1c0.6,0.4,1.1,1.1,1.2,1.9c0.1,0.8,0.7,1.5,1.5,1.7
					c0.7,0.1,1.2,0.6,1.3,1.3c0,0.6,0.2,2.1,0.3,3.2l0.5,4.9c0,0.8,0.3,1.6,0.8,2.3c0.5,0.4,0.8,0.9,1.1,1.4c0.2,0.5,0.4,1,0.5,1.6
					v1.6c0,0.6-0.2,1-0.5,0.8c-0.4-0.6-0.7-1.3-0.7-2.1h-0.7c-0.7,0-0.8-0.2-0.8-0.2c-0.5-1-1.2-1.4-1.5-1c-0.3,0.5-0.5,1.1-0.6,1.7
					c0.1,0.8,0.3,1.5,0.8,2.2c0.4,0.6,1.1,1.7,1.6,2.3c0.4,0.6,0.7,1.2,0.8,1.9c0,0.7,0.2,1.4,0.5,2.1c0.4,0.9,0.9,1.7,1.5,2.4
					c0.5,0.6,1,1,1.7,1.3c0.4,0.1,0.7,0.5,0.6,0.9c0.1,0.7,0.3,1.4,0.8,1.9c0.5,0.6,1.1,1.1,1.9,1.2c0.7,0.1,1.3,0.3,1.8,0.8
					c0.7,0.5,1.5,0.7,2.3,0.8c0.8,0,1.4-0.3,1.3-0.6c-0.1-0.5-0.1-0.9-0.1-1.4c0-0.5-0.2-0.8-0.4-0.8c-0.3-0.1-0.6-0.3-0.8-0.6
					c-0.7-0.4-1.5-0.7-2.3-0.6c-1,0.1-1.8-0.7-1.9-1.7c0-0.9,0-2.1-0.1-2.7c-0.2-0.8-0.6-1.6-1.2-2.2c-0.7-0.7-1.4-1.4-2.2-2
					c-0.6-0.3-1-0.9-1.2-1.5c0-0.4,0.2-0.8,0.4-0.8c0.3,0,0.6,0.2,0.7,0.4c0.1,0.3,0.6,0.3,1,0.1c0.5-0.3,0.7-0.9,0.8-1.4V73
					c-0.1,0.1-0.4-0.2-0.7-0.6c-0.3-0.5-0.7-1-1.2-1.4c-0.6-0.8-0.9-1.7-1.1-2.6l-0.4-1.6c-0.3-0.8-0.3-1.7,0-2.4
					c0.3-0.3,1,0,1.5,0.5l2.2,2.2c0.6,0.6,1.5,0.9,2,0.5c0.6-0.8,0.9-1.7,0.8-2.7l-0.1-2.2c0-1.1,0.6-2,1.4-2s1.3-0.3,1.2-0.8
					c-0.2-0.6-0.3-1.2-0.6-1.8c-0.2-0.6-0.7-1-1.2-1.1c-0.5,0-0.8-0.9-0.8-1.9c-0.1-1,0.7-1.8,1.7-1.9c2,0,3.8-0.7,5.3-2
					c0.5-0.4,1.2-0.7,1.8-0.7c1-0.2,2-0.6,2.8-1.2l2.6-2c0.9-0.7,1.5-1.7,1.6-2.9v-5.2c0-1.1-0.1-2.1-0.4-3.2
					c-0.2-0.6-0.6-1.6-0.8-2.1c-0.2-0.7-0.1-1.4,0.2-2c0.2-0.8,0-1.6-0.5-2.2c-0.6-0.6-1.2-1.2-1.3-1.4s0-0.6,0.4-1
					c0.4-0.3,0.8-0.6,1.2-0.8c0.7-0.1,1.5-0.1,2.2,0c0.9,0,1.6,0.8,1.6,1.7c0,0,0,0,0,0c-0.1,0.9,0.2,1.8,0.8,2.4
					c0.6,0.6,1.1,1.3,1.3,2.2c0.1,0.7,0.7,1.2,1.3,1.4c0.6,0,1-0.5,1-1.2s0.1-2.2,0.2-3.2c0.1-1.1,0.1-2.1,0-3.2
					c-0.1-0.7,0.3-1.5,0.9-1.8c0.6-0.3,1.9-0.8,3-1.2l0.8-0.3c1-0.4,2-0.8,3-1.3c0.8-0.6,1.3-1.6,1.4-2.5v-0.1
					c0.2-1.1,0-2.1-0.3-2.2c-0.7-0.2-1.4-0.3-2.2-0.2c-0.7,0-1.4,0.1-2,0.4c-0.6,0.3-1.3,0.4-2,0.3c-0.7,0-1.3-0.4-1.7-1
					c-0.1-0.5,0-1.1,0.3-1.5c0.5-0.4,1.1-0.6,1.7-0.8c0.6-0.1,1.1-0.5,1.1-0.9c-0.1-0.8-0.4-1.7-0.8-2.4c-0.6-1.1-1.4-1.9-2.5-2.4
					c-1.1-0.6-2.2-1.3-3.1-2.2l-0.4-0.4c-0.8-0.8-1.9-1.9-2.5-2.5c-0.6-0.6-1.3-1-2.1-1.1c-0.6,0-1.4,0-1.8,0.1s-0.8,0.3-0.8,0.7
					c-0.2,0.6-0.5,1.1-0.9,1.6c-0.7,0.8-1.6,1.5-2.4,2.1c-1,0.7-2.3,1-3.5,1.1h-0.7c-1.1,0-2-0.1-2-0.3s-0.9-0.4-2-0.6l-3.3-0.5
					c-1.1-0.2-2,0.1-2,0.6S61.9,8,61.1,8c-0.8,0-1.5-0.4-1.8-1.1c-0.2-0.6-0.6-1.1-1-1.5c-0.8-0.3-1.7-0.3-2.5-0.2h-0.4
					c-1.1,0.1-2.1,0.6-2.7,1.5c-0.5,0.8-1.3,1.3-2.2,1.6c-0.8,0.2-1.7,0-2.4-0.4c-0.8-0.5-1.7-0.8-2.6-0.8c-0.8-0.1-1.5,0.1-2.2,0.4
					c-0.3,0.2-0.9,0.7-1.3,1s-0.7,0.3-0.7,0S40.8,8,40.3,8s-1-0.6-1.3-1.2C38.7,6,38.2,5.4,37.6,5c-0.9-0.4-1.9-0.7-2.8-0.8
					c-1.3-0.3-2.5-0.6-3.8-1.1l-2.4-0.9c-1-0.4-2.2-0.9-2.6-1.1c-0.6-0.3-1.3-0.5-1.9-0.7C23,0.1,21.9,0,20.8,0H20.2z"/>
			</defs>
			<clipPath id="SVGID_2_">
				<use xlink:href="#SVGID_1_"  style="overflow:visible;"/>
			</clipPath>
			<g class="st0">
				<rect width="98.5" height="92.2"/>
			</g>
		</g>
		<path d="M19,45.2c-1.1,0-2-0.3-2-0.7c0-0.5,0.2-1.1,0.4-1.6c0.2-0.4,0.6-1.2,0.8-1.6c0.5-0.6,1.3-1,2.1-0.9c0.9,0,1.7-0.4,2.2-1.2
			c0.4-0.8,0.9-1.6,1.6-2.3c0.5-0.6,0.9-1.3,1-2.1c0.2-0.8,0.7-1.4,1.5-1.8c0.8-0.5,1.4-1.1,2-1.8c0.3-0.5,0.5-1.1,0.6-1.7
			c-0.1-0.5-0.4-0.9-0.9-1.1c-0.8-0.2-1.5-0.3-2.3-0.3c-0.8,0-1.5-0.2-2.1-0.7c-0.4-0.4-0.7-0.3-0.7,0.1s-0.5,0.9-1.1,1.1
			c-0.8,0.3-1.7,0.6-2.5,1.1c-0.7,0.4-1.3,1.1-1.3,1.5c0,0.4-0.2,0.7-0.6,0.8c-0.5,0-0.9-0.2-1.3-0.4c-0.7-0.4-1.3-0.9-1.9-1.5
			c-0.6-0.6-1.3-1.3-1.6-1.7c-0.4-0.4-0.9-0.6-1.5-0.6c-0.7,0-1.4-0.2-2-0.5c-0.6-0.3-1-0.8-1.1-1.4c-0.1-0.6-0.2-1.2-0.4-1.8
			c-0.1-0.4-0.4-0.8-0.7-1.1c-0.2-0.1-0.3-1-0.2-2C7,20.1,7.1,19.1,7,18.2c-0.1-0.5-0.1-1.1,0-1.6c0.1-0.5-0.2-0.9-0.6-1.2
			c-0.4-0.2-0.8-0.2-0.8,0s-0.5,0.5-1,0.7c-0.5,0.1-0.9,0.5-1,1c0,0.4-0.6,0.7-1.2,0.8c-0.6,0.1-1.3-0.3-1.6-0.8
			c-0.2-0.5-0.5-1.2-0.7-1.5C0,15.1,0,14.6,0,14.1c0-0.5,0.2-0.9,0.4-0.9s0.2-0.3,0-0.7C0.1,11.8,0,11.1,0,10.3
			c0.1-1.1,0.7-2.1,1.5-2.8l0.1-0.1c0.7-0.7,1.6-1.2,2.5-1.4L5.9,6c0.6,0,1.3,0.2,1.8,0.4c0.5,0.2,1.1,0.6,1.5,1
			c0.5,0.3,1.1,0.5,1.7,0.5c0.7,0,1.3-0.4,1.5-1c0.1-0.6,0.3-1.3,0.4-1.7c0.2-0.6,0.4-1.1,0.7-1.7c0.4-0.6,1.1-1,1.9-0.9
			c0.9-0.1,1.7-0.5,2.1-1.3C18.1,0.5,19.1,0,20.2,0h0.6C21.9,0,23,0.1,24,0.3c0.7,0.2,1.3,0.4,1.9,0.7c0.4,0.2,1.6,0.7,2.6,1.1
			L31,3.1c1.2,0.5,2.5,0.8,3.8,1.1c1,0.2,1.9,0.4,2.8,0.8c0.6,0.4,1.1,1,1.4,1.7C39.3,7.4,39.9,8,40.3,8s0.8,0.3,0.8,0.6
			s0.3,0.3,0.7,0s1-0.8,1.3-1c0.7-0.3,1.5-0.5,2.2-0.4c0.9,0,1.8,0.3,2.6,0.8c0.7,0.4,1.6,0.6,2.4,0.4c0.9-0.3,1.6-0.8,2.2-1.6
			c0.7-0.8,1.7-1.4,2.7-1.5h0.4c0.9-0.2,1.7-0.1,2.5,0.2c0.4,0.4,0.8,0.9,1,1.5c0.4,0.7,1.1,1,1.9,1c0.8,0,1.4-0.4,1.4-0.8
			s0.9-0.7,2-0.6l3.3,0.5c1.1,0.2,2,0.4,2,0.6s0.9,0.3,2,0.3h0.7c1.2,0,2.4-0.4,3.5-1.1c0.9-0.6,1.7-1.3,2.4-2.1
			c0.4-0.4,0.8-1,0.9-1.6c0-0.3,0.4-0.6,0.8-0.7s1.3-0.1,1.8-0.1c0.8,0.1,1.5,0.5,2.1,1.1c0.6,0.6,1.7,1.7,2.5,2.5L87,6.5
			c0.9,0.9,2,1.6,3.1,2.2c1.1,0.5,1.9,1.4,2.5,2.4c0.4,0.8,0.6,1.6,0.8,2.4c0,0.4-0.5,0.8-1.1,0.9c-0.6,0.1-1.2,0.4-1.7,0.8
			c-0.3,0.4-0.5,1-0.3,1.5c0.3,0.6,1,1,1.7,1c0.7,0.1,1.4,0,2-0.3c0.6-0.3,1.3-0.4,2-0.4c0.7,0,1.4,0.1,2.1,0.2
			c0.4,0.1,0.5,1.1,0.3,2.2v0.1c-0.1,1-0.6,1.9-1.4,2.5c-1,0.5-2,0.9-3,1.3l-0.8,0.3c-1,0.4-2.4,0.9-3,1.2c-0.6,0.4-1,1.1-0.9,1.8
			c0.1,1.1,0.1,2.1,0,3.2c-0.1,1-0.2,2.4-0.2,3.2s-0.4,1.3-1,1.2c-0.7-0.2-1.2-0.7-1.3-1.4c-0.2-0.8-0.7-1.6-1.3-2.2
			c-0.6-0.6-0.9-1.5-0.8-2.4c0-0.9-0.7-1.7-1.6-1.7c0,0,0,0,0,0c-0.7-0.1-1.5-0.1-2.2,0c-0.5,0.2-0.9,0.5-1.2,0.8
			c-0.4,0.4-0.6,0.8-0.4,1s0.8,0.8,1.3,1.4c0.5,0.6,0.7,1.4,0.5,2.2c-0.3,0.6-0.3,1.3-0.2,2c0.2,0.5,0.5,1.4,0.8,2.1
			c0.3,1,0.5,2.1,0.5,3.2v5.2c-0.1,1.2-0.7,2.2-1.6,2.9l-2.6,2C77,50,76,50.4,75,50.5c-0.7,0-1.3,0.2-1.8,0.7c-1.5,1.3-3.4,2-5.3,2
			c-1,0.1-1.7,0.9-1.7,1.9c0,1.1,0.4,1.9,0.8,1.9c0.6,0.1,1.1,0.5,1.2,1.1c0.2,0.6,0.4,1.2,0.6,1.8c0.1,0.4-0.5,0.8-1.2,0.8
			s-1.4,0.9-1.4,2l0.1,2.2c0.1,1-0.2,1.9-0.8,2.7c-0.5,0.4-1.4,0.1-2-0.5l-2.2-2.2c-0.5-0.6-1.2-0.8-1.5-0.5c-0.3,0.8-0.3,1.7,0,2.4
			l0.4,1.6c0.2,0.9,0.6,1.8,1.1,2.6c0.4,0.4,0.8,0.9,1.2,1.4c0.3,0.4,0.6,0.7,0.7,0.6v3.3c0,0.6-0.3,1.1-0.8,1.4
			c-0.4,0.2-0.9,0.2-1-0.1c-0.1-0.3-0.4-0.4-0.7-0.4c-0.2,0-0.4,0.4-0.4,0.8c0.2,0.6,0.6,1.2,1.2,1.5c0.8,0.6,1.6,1.3,2.2,2
			c0.6,0.6,1,1.4,1.2,2.2c0,0.6,0.1,1.8,0.1,2.7c0.1,1,0.9,1.7,1.9,1.7c0.8-0.1,1.6,0.1,2.3,0.6c0.2,0.3,0.5,0.5,0.8,0.6
			c0.2,0,0.4,0.4,0.4,0.8c0,0.5,0,0.9,0.1,1.4c0,0.3-0.6,0.6-1.3,0.6c-0.8,0-1.6-0.3-2.3-0.8c-0.5-0.4-1.2-0.7-1.8-0.8
			c-0.8-0.2-1.4-0.6-1.9-1.2c-0.5-0.5-0.8-1.2-0.8-1.9c0.1-0.4-0.2-0.8-0.6-0.9c-0.6-0.3-1.2-0.8-1.7-1.3c-0.6-0.7-1.1-1.6-1.5-2.4
			c-0.3-0.7-0.5-1.4-0.5-2.1c-0.1-0.7-0.3-1.4-0.8-1.9c-0.5-0.6-1.2-1.7-1.6-2.3c-0.4-0.7-0.7-1.4-0.8-2.2c0-0.6,0.2-1.2,0.6-1.8
			c0.3-0.4,1,0.1,1.5,1c0,0,0.1,0.2,0.8,0.2h0.7c0,0.8,0.2,1.5,0.7,2.1c0.3,0.1,0.5-0.2,0.5-0.8v-1.5c-0.1-0.5-0.3-1.1-0.5-1.6
			c-0.2-0.6-0.6-1-1.1-1.4c-0.5-0.7-0.8-1.5-0.8-2.3l-0.5-4.9c-0.1-1.1-0.3-2.5-0.3-3.2c-0.1-0.7-0.6-1.2-1.3-1.3
			c-0.8-0.2-1.4-0.9-1.5-1.7c-0.1-0.8-0.5-1.5-1.2-1.9c-0.7-0.5-1-1.3-1-2.1c0-1-0.5-1.8-1.1-1.8c-0.7,0-1.4-0.1-2-0.3
			c-0.9,0-1.8,0.4-2.4,1.1l-1.3,1.3c-0.7,0.7-1.4,1.5-1.9,2.3c-0.3,0.5-0.9,0.9-1.5,1.1c-0.9,0.3-1.7,0.9-2.3,1.7l-0.3,0.4
			c-0.8,1-1.3,2.2-1.4,3.5v1.8c0,1.1,0.2,2.2,0.5,2.3c0.4,0.4,0.6,0.9,0.7,1.4c0,0.6,0.3,1.2,0.6,1.2c0.3,0.2,0.6,0.5,0.6,0.9
			c0.1,0.4-0.1,0.7-0.5,0.9c-0.5,0.1-0.9,0.2-1.4,0.3c-0.5,0.1-0.9-0.3-0.8-0.9c0.1-0.5-0.1-1.1-0.5-1.5c-0.3-0.2-0.7-0.3-1-0.2
			c-0.2,0.1-0.7-0.2-1.1-0.8c-0.4-0.8-0.7-1.6-0.8-2.5c-0.2-1.1-0.5-2.2-1.1-3.2l-1.2-2c-0.6-1.2-1.1-2.4-1.3-3.7L29.3,53
			c-0.2-1.1-0.6-1.6-0.9-1.1s-1.2,0.3-2-0.3c-0.7-0.7-1.2-1.6-1.4-2.5c-0.2-1-0.7-1.9-1.4-2.7c-0.7-0.8-1.5-1.4-1.9-1.3
			S20.2,45.2,19,45.2L19,45.2z"/>
		<path d="M101,25.3c-0.4,0.3-0.7,0.7-0.7,1.2c0,0.5-0.1,1.1-0.4,1.6c-0.2,0.4-0.4,0.8-0.5,1.2c-0.4,0.5-0.9,0.8-1.5,1h-0.7
			c0.2,0.5,0.2,1-0.1,1.4l-0.8,0.9c-0.6,0.4-1.3,0.5-2,0.5h-0.2c-0.2,0-0.8,0.6-0.8,0.8l0.1,0.2c-0.5,0.2-1.1,0.5-1.6,0.8
			c-0.3,0.2-0.3,0.5-0.1,0.6c0.2,0.2,0.5,0.3,0.7,0.3c0.2,0.1,0.4,0.2,0.6,0.4c0.2,0.2,0.4,0.4,0.7,0.5c0.3,0.1,0.6,0,0.8-0.2
			c0.2-0.1,0.4-0.3,0.5-0.5c0-0.1,0.3-0.2,0.6-0.2c0.5,0.1,1,0.2,1.4,0.4c0.3,0.2,0.7,0.3,1,0.4c0.1,0,0.2-0.4,0.3-0.9
			s0.2-0.9,0.4-0.9c0.2,0,0.5-0.1,0.7-0.2c0.3-0.1,0.5-0.2,0.8-0.4c0.3-0.2,0.6-0.4,1-0.5c0.4-0.1,0.7-0.4,0.8-0.8l0.3-0.9
			c0.1-0.5,0.2-1,0.1-1.5c0-0.6,0.2-1.1,0.5-1.2c0.3-0.3,0.5-0.7,0.5-1.2v-1.9c0-0.5-0.5-0.9-1-0.9H102c-0.1-0.2-0.4-0.4-0.6-0.4
			C101.2,25.2,101.1,25.2,101,25.3"/>
		<g>
			<defs>
				<path id="SVGID_3_" d="M101,25.3c-0.4,0.3-0.7,0.7-0.7,1.2c0,0.5-0.1,1.1-0.4,1.6c-0.2,0.4-0.4,0.8-0.5,1.2
					c-0.4,0.5-0.9,0.8-1.5,1h-0.7c0.2,0.5,0.2,1-0.1,1.4l-0.8,0.9c-0.6,0.4-1.3,0.5-2,0.5h-0.2c-0.2,0-0.8,0.6-0.8,0.8l0.1,0.2
					c-0.5,0.2-1.1,0.5-1.6,0.8c-0.3,0.2-0.3,0.5-0.1,0.6c0.2,0.2,0.5,0.3,0.7,0.3c0.2,0.1,0.4,0.2,0.6,0.4c0.2,0.2,0.4,0.4,0.7,0.5
					c0.3,0.1,0.6,0,0.8-0.2c0.2-0.1,0.4-0.3,0.5-0.5c0-0.1,0.3-0.2,0.6-0.2c0.5,0.1,1,0.2,1.4,0.4c0.3,0.2,0.7,0.3,1,0.4
					c0.1,0,0.2-0.4,0.3-0.9s0.2-0.9,0.4-0.9c0.2,0,0.5-0.1,0.7-0.2c0.3-0.1,0.5-0.2,0.8-0.4c0.3-0.2,0.6-0.4,1-0.5
					c0.4-0.1,0.7-0.4,0.8-0.8l0.3-0.9c0.1-0.5,0.2-1,0.1-1.5c0-0.6,0.2-1.1,0.5-1.2c0.3-0.3,0.5-0.7,0.5-1.2v-1.9
					c0-0.5-0.5-0.9-1-0.9H102c-0.1-0.2-0.4-0.4-0.6-0.4C101.2,25.2,101.1,25.2,101,25.3"/>
			</defs>
			<clipPath id="SVGID_4_">
				<use xlink:href="#SVGID_3_"  style="overflow:visible;"/>
			</clipPath>
			<g class="st1">
				<rect x="91.6" y="25.2" width="11.9" height="11.8"/>
			</g>
		</g>
		<path d="M93.8,36.9c-0.3-0.1-0.5-0.3-0.7-0.5c-0.1-0.2-0.3-0.3-0.6-0.4c-0.3,0-0.5-0.1-0.7-0.3c-0.2-0.2-0.2-0.5,0.1-0.6
			c0.5-0.3,1-0.6,1.6-0.8L93.4,34c-0.1-0.2,0.5-0.8,0.8-0.8h0.2c0.7,0,1.4-0.1,2-0.5c0.2-0.3,0.6-0.7,0.8-0.9
			c0.2-0.4,0.3-0.9,0.1-1.4H98c0.6-0.2,1.1-0.5,1.5-1c0.2-0.4,0.3-0.8,0.5-1.2c0.2-0.5,0.3-1,0.4-1.6c0-0.5,0.2-0.9,0.6-1.2
			c0.4-0.2,0.8-0.1,1,0.3h0.4c0.5,0,1,0.4,1,0.9v1.8c0,0.4-0.1,0.9-0.5,1.2c-0.3,0.1-0.5,0.7-0.5,1.2c0,0.5,0,1-0.1,1.4l-0.3,0.9
			c-0.2,0.4-0.5,0.6-0.8,0.8c-0.4,0.1-0.7,0.3-1,0.5c-0.2,0.2-0.5,0.3-0.8,0.4c-0.2,0.1-0.5,0.1-0.7,0.2c-0.1,0-0.3,0.4-0.4,0.9
			s-0.2,0.9-0.3,0.9c-0.3-0.1-0.7-0.2-1-0.4c-0.5-0.2-0.9-0.4-1.4-0.4c-0.3,0-0.6,0.1-0.6,0.2c-0.1,0.2-0.3,0.4-0.5,0.5
			C94.3,36.8,94.1,36.9,93.8,36.9z"/>
		<path d="M103.2,18.7h-0.6c-0.2,0.7-0.3,1.4-0.3,2.2c0,0.6-0.1,1.1-0.2,1.7c0,0.5-0.2,0.9-0.4,1.3c-0.1,0.1,0,0.2,0.3,0.2h3.1
			c0.6,0,1.1-0.3,1.1-0.6c0.3-0.8,0.8-1.5,1.3-2.1c0.1-0.2,0.1-0.4,0.1-0.5l-0.1-0.3c-0.6-0.2-1.1-0.5-1.6-1
			c-0.6-0.5-1.4-0.8-2.2-0.8H103.2z"/>
		<g>
			<defs>
				<path id="SVGID_5_" d="M103.2,18.7h-0.6c-0.2,0.7-0.3,1.4-0.3,2.2c0,0.6-0.1,1.1-0.2,1.7c0,0.5-0.2,0.9-0.4,1.3
					c-0.1,0.1,0,0.2,0.3,0.2h3.1c0.6,0,1.1-0.3,1.1-0.6c0.3-0.8,0.8-1.5,1.3-2.1c0.1-0.2,0.1-0.4,0.1-0.5l-0.1-0.3
					c-0.6-0.2-1.1-0.5-1.6-1c-0.6-0.5-1.4-0.8-2.2-0.8H103.2z"/>
			</defs>
			<clipPath id="SVGID_6_">
				<use xlink:href="#SVGID_5_"  style="overflow:visible;"/>
			</clipPath>
			<g class="st2">
				<rect x="101.5" y="18.7" width="6.2" height="5.3"/>
			</g>
		</g>
		<path d="M101.6,23.9c0.3-0.4,0.4-0.9,0.4-1.3c0.1-0.5,0.1-1.1,0.2-1.7c0.1-0.7,0.2-1.4,0.3-2.2h1.2c0.8,0,1.5,0.3,2.2,0.8
			c0.4,0.4,1,0.8,1.6,1l0.1,0.3c0,0.2,0,0.4-0.1,0.5c-0.6,0.6-1,1.3-1.3,2.1c0,0.3-0.5,0.6-1.1,0.6h-3.1
			C101.6,24.1,101.5,24,101.6,23.9z"/>
		<path d="M69.4,54c-0.5,0.3-0.9,0.5-1.4,0.8L67.7,55l-0.2,0.2c0.5,0.1,0.9,0.3,1.3,0.7c0.2,0.2,0.5,0.4,0.8,0.4
			c0.3,0,0.6-0.2,0.6-0.3c0.1-0.2,0.2-0.4,0.5-0.4c0.2,0,0.4-0.1,0.4-0.3c-0.1-0.3-0.2-0.6-0.3-0.9h-0.7C70,54.1,69.8,54,69.6,54
			C69.5,53.9,69.4,54,69.4,54"/>
		<g>
			<defs>
				<path id="SVGID_7_" d="M69.4,54c-0.5,0.3-0.9,0.5-1.4,0.8L67.7,55l-0.2,0.2c0.5,0.1,0.9,0.3,1.3,0.7c0.2,0.2,0.5,0.4,0.8,0.4
					c0.3,0,0.6-0.2,0.6-0.3c0.1-0.2,0.2-0.4,0.5-0.4c0.2,0,0.4-0.1,0.4-0.3c-0.1-0.3-0.2-0.6-0.3-0.9h-0.7C70,54.1,69.8,54,69.6,54
					C69.5,53.9,69.4,54,69.4,54"/>
			</defs>
			<clipPath id="SVGID_8_">
				<use xlink:href="#SVGID_7_"  style="overflow:visible;"/>
			</clipPath>
			<g class="st3">
				<rect x="67.5" y="54" width="3.7" height="2.3"/>
			</g>
		</g>
		<path d="M70.3,55.9c0,0.2-0.3,0.3-0.6,0.3c-0.3,0-0.6-0.2-0.8-0.4c-0.4-0.3-0.8-0.6-1.3-0.7l0.2-0.2l0.2-0.2
			c0.5-0.2,1-0.5,1.4-0.8c0.2-0.2,0.6,0,0.8,0.3h0.7c0.2,0.3,0.3,0.6,0.3,0.9c0,0.1-0.2,0.3-0.4,0.3C70.5,55.5,70.3,55.7,70.3,55.9z
			"/>
		<path d="M81.5,57v1.5c0,0.4-0.1,0.9-0.4,1.2c-0.2,0.3-0.6,1-0.8,1.5l-0.4,0.2l-0.4,0.2c-0.2-0.5-0.6-1-1-1.4l-0.2,0.1L78,60.3
			c-0.4,0-0.6,0.2-0.3,0.5l0.3,0.5l0.3,0.5c0.4,0.1,0.7,0.2,1,0.4c0.2,0.2,0.4,0.3,0.6,0.4h0.6c0.2,0,0.6-0.3,0.7-0.6
			c0.1-0.4,0.2-0.7,0.5-1c0.3-0.3,0.7-0.6,1.1-0.9l0.2-0.1c0-0.4,0.1-0.7,0.1-1.1c0-0.3-0.1-0.6-0.3-0.8H82c0.1-0.5,0-0.9-0.2-1.3
			c-0.1-0.1-0.1-0.1-0.2-0.1S81.5,56.7,81.5,57"/>
		<g>
			<defs>
				<path id="SVGID_9_" d="M81.5,57v1.5c0,0.4-0.1,0.9-0.4,1.2c-0.2,0.3-0.6,1-0.8,1.5l-0.4,0.2l-0.4,0.2c-0.2-0.5-0.6-1-1-1.4
					l-0.2,0.1L78,60.3c-0.4,0-0.6,0.2-0.3,0.5l0.3,0.5l0.3,0.5c0.4,0.1,0.7,0.2,1,0.4c0.2,0.2,0.4,0.3,0.6,0.4h0.6
					c0.2,0,0.6-0.3,0.7-0.6c0.1-0.4,0.2-0.7,0.5-1c0.3-0.3,0.7-0.6,1.1-0.9l0.2-0.1c0-0.4,0.1-0.7,0.1-1.1c0-0.3-0.1-0.6-0.3-0.8H82
					c0.1-0.5,0-0.9-0.2-1.3c-0.1-0.1-0.1-0.1-0.2-0.1S81.5,56.7,81.5,57"/>
			</defs>
			<clipPath id="SVGID_10_">
				<use xlink:href="#SVGID_9_"  style="overflow:visible;"/>
			</clipPath>
			<g class="st4">
				<rect x="77.4" y="56.6" width="5.7" height="6"/>
			</g>
		</g>
		<path d="M80,62.5c-0.2-0.1-0.4-0.2-0.6-0.4c-0.3-0.2-0.6-0.4-1-0.4L78,61.3l-0.3-0.5c-0.3-0.3-0.1-0.5,0.3-0.5l0.2-0.1l0.2-0.1
			c0.4,0.4,0.8,0.9,1,1.4l0.4-0.2l0.4-0.2c0.3-0.5,0.6-1.2,0.8-1.5c0.2-0.4,0.4-0.8,0.4-1.2V57c0-0.4,0.2-0.5,0.3-0.3
			c0.2,0.4,0.3,0.9,0.2,1.3h0.8c0.2,0.2,0.3,0.5,0.3,0.8c0,0.4,0,0.7-0.1,1.1L82.8,60c-0.4,0.2-0.8,0.5-1.1,0.9
			c-0.2,0.3-0.4,0.6-0.5,1c-0.1,0.3-0.4,0.6-0.7,0.6L80,62.5z"/>
		<path d="M79,65.5l0.1,0.5c0.1,0.5,0.1,1,0.6,1.3l0.5,0.3c0,0.7,0,1.4,0,1.6c0,0.2-0.1,0.3-0.3,0.4c-0.2,0.1-0.2,0.2-0.2,0.4
			c0.1,0.2,0.4,0.4,0.6,0.4c0.3,0.1,0.6,0.3,0.8,0.6c0.2,0.3,0.3,0.7,0.4,1s0.3,0.2,0.5,0c0.4-0.3,0.8-0.6,1.2-0.8L83.2,71
			C83,70.6,83,70.2,83,69.8c0.1-0.9,0-1.7-0.3-2.5c-0.3-0.4-0.7-0.7-1.2-0.9c-0.4-0.2-0.8-0.5-1.1-0.8c-0.2-0.3-0.4-0.7-0.6-1
			c-0.2-0.3-0.5-0.6-0.8-0.7l0,0C78.8,63.8,78.7,64.5,79,65.5"/>
		<g>
			<defs>
				<path id="SVGID_11_" d="M79,65.5l0.1,0.5c0.1,0.5,0.1,1,0.6,1.3l0.5,0.3c0,0.7,0,1.4,0,1.6c0,0.2-0.1,0.3-0.3,0.4
					c-0.2,0.1-0.2,0.2-0.2,0.4c0.1,0.2,0.4,0.4,0.6,0.4c0.3,0.1,0.6,0.3,0.8,0.6c0.2,0.3,0.3,0.7,0.4,1s0.3,0.2,0.5,0
					c0.4-0.3,0.8-0.6,1.2-0.8L83.2,71C83,70.6,83,70.2,83,69.8c0.1-0.9,0-1.7-0.3-2.5c-0.3-0.4-0.7-0.7-1.2-0.9
					c-0.4-0.2-0.8-0.5-1.1-0.8c-0.2-0.3-0.4-0.7-0.6-1c-0.2-0.3-0.5-0.6-0.8-0.7l0,0C78.8,63.8,78.7,64.5,79,65.5"/>
			</defs>
			<clipPath id="SVGID_12_">
				<use xlink:href="#SVGID_11_"  style="overflow:visible;"/>
			</clipPath>
			<g class="st5">
				<rect x="78.7" y="63.8" width="4.5" height="8.4"/>
			</g>
		</g>
		<path d="M81.5,72c0.1,0.2,0.3,0.2,0.5,0c0.4-0.3,0.8-0.6,1.2-0.8L83.1,71C83,70.6,83,70.2,83,69.8c0.1-0.9,0-1.7-0.2-2.5
			c-0.3-0.4-0.7-0.7-1.2-0.9c-0.4-0.2-0.8-0.5-1.1-0.8c-0.2-0.3-0.4-0.7-0.6-1c-0.2-0.3-0.5-0.6-0.8-0.7c-0.3-0.1-0.3,0.7-0.1,1.8
			l0.1,0.5c0.1,0.5,0.1,1,0.6,1.3l0.5,0.3c0,0.7,0,1.4,0,1.6c0,0.2-0.1,0.3-0.3,0.4c-0.2,0.1-0.2,0.2-0.2,0.4
			c0.1,0.2,0.4,0.4,0.6,0.4c0.3,0.1,0.6,0.3,0.8,0.6C81.2,71.3,81.4,71.7,81.5,72z"/>
		<path d="M81.4,64.8c0,0.3,0.1,0.6,0.2,0.6c0.2,0,0.3-0.1,0.5-0.1c0.2-0.2,0.3-0.4,0.2-0.6c0-0.3-0.2-0.5-0.5-0.5
			C81.6,64.2,81.4,64.5,81.4,64.8"/>
		<g>
			<defs>
				<path id="SVGID_13_" d="M81.4,64.8c0,0.3,0.1,0.6,0.2,0.6c0.2,0,0.3-0.1,0.5-0.1c0.2-0.2,0.3-0.4,0.2-0.6c0-0.3-0.2-0.5-0.5-0.5
					C81.6,64.2,81.4,64.5,81.4,64.8"/>
			</defs>
			<clipPath id="SVGID_14_">
				<use xlink:href="#SVGID_13_"  style="overflow:visible;"/>
			</clipPath>
			<g class="st6">
				<rect x="81.4" y="64.2" width="0.9" height="1.2"/>
			</g>
		</g>
		<path d="M81.6,65.4c-0.1,0-0.2-0.3-0.2-0.6c0-0.3,0.2-0.6,0.5-0.6c0.3,0,0.5,0.2,0.5,0.5c0,0.2-0.1,0.5-0.2,0.6
			C82,65.3,81.8,65.4,81.6,65.4z"/>
		<path d="M72.8,71.3c-0.2,0.3-0.4,0.6-0.5,1c-0.1,0.3-0.3,0.6-0.6,0.8c-0.3,0.2-0.6,0.3-1,0.4c-0.2,0-0.7,0.5-1,1
			c-0.5,0.7-1,1.4-1.7,2c-0.4,0.4-0.9,0.8-1.2,1.3c-0.3,0.2-0.7,0.4-1.1,0.3c-0.5,0-0.9,0.4-0.9,0.9c0,0,0,0,0,0
			c0,0.4,0.1,0.9,0.4,1.2c0.3,0.5,0.5,1.1,0.5,1.7c0,0.6,0.2,1.2,0.6,1.7c0.3,0.2,0.6,0.3,0.9,0.4c0.3,0.1,0.5,0.2,0.7,0.3
			c0.4,0.2,0.9,0.3,1.4,0.3h0.7c0.6,0,1,0.3,1,0.6v0.4c0-0.1,0.4-0.2,1-0.2s1-0.3,1-0.7c0-0.4,0.2-0.7,0.5-0.9
			c0.3-0.1,0.5-0.9,0.5-1.8c0-0.7,0.1-1.4,0.3-2c0.2-0.8,0.3-1.6,0.3-2.3v-5c0-1.1-0.3-2-0.7-2C73.6,70.7,73.2,70.9,72.8,71.3"/>
		<g>
			<defs>
				<path id="SVGID_15_" d="M72.8,71.3c-0.2,0.3-0.4,0.6-0.5,1c-0.1,0.3-0.3,0.6-0.6,0.8c-0.3,0.2-0.6,0.3-1,0.4c-0.2,0-0.7,0.5-1,1
					c-0.5,0.7-1,1.4-1.7,2c-0.4,0.4-0.9,0.8-1.2,1.3c-0.3,0.2-0.7,0.4-1.1,0.3c-0.5,0-0.9,0.4-0.9,0.9c0,0,0,0,0,0
					c0,0.4,0.1,0.9,0.4,1.2c0.3,0.5,0.5,1.1,0.5,1.7c0,0.6,0.2,1.2,0.6,1.7c0.3,0.2,0.6,0.3,0.9,0.4c0.3,0.1,0.5,0.2,0.7,0.3
					c0.4,0.2,0.9,0.3,1.4,0.3h0.7c0.6,0,1,0.3,1,0.6v0.4c0-0.1,0.4-0.2,1-0.2s1-0.3,1-0.7c0-0.4,0.2-0.7,0.5-0.9
					c0.3-0.1,0.5-0.9,0.5-1.8c0-0.7,0.1-1.4,0.3-2c0.2-0.8,0.3-1.6,0.3-2.3v-5c0-1.1-0.3-2-0.7-2C73.6,70.7,73.2,70.9,72.8,71.3"/>
			</defs>
			<clipPath id="SVGID_16_">
				<use xlink:href="#SVGID_15_"  style="overflow:visible;"/>
			</clipPath>
			<g class="st7">
				<rect x="64.9" y="70.8" width="9.8" height="14.8"/>
			</g>
		</g>
		<path d="M71.2,85.6c0-0.1,0.4-0.2,1-0.2s1-0.3,1-0.7c0-0.4,0.2-0.7,0.5-0.9c0.3-0.1,0.5-0.9,0.5-1.8c0-0.7,0.1-1.4,0.3-2
			c0.2-0.8,0.3-1.5,0.3-2.3v-5c0-1.1-0.3-2-0.8-2c-0.4,0-0.8,0.2-1.1,0.5c-0.2,0.3-0.4,0.6-0.5,1c-0.1,0.3-0.3,0.6-0.6,0.8
			c-0.3,0.2-0.6,0.3-1,0.4c-0.2,0-0.7,0.5-1,1c-0.5,0.7-1,1.4-1.7,2c-0.4,0.4-0.9,0.8-1.2,1.3c-0.3,0.2-0.7,0.4-1.1,0.3
			c-0.5,0-0.9,0.4-0.9,0.9c0,0,0,0,0,0c0,0.4,0.1,0.9,0.4,1.2c0.3,0.5,0.5,1.1,0.5,1.7c0,0.6,0.2,1.2,0.6,1.7
			c0.3,0.2,0.6,0.3,0.9,0.4c0.3,0.1,0.5,0.2,0.7,0.3c0.4,0.2,0.9,0.3,1.4,0.3h0.7c0.6,0,1,0.3,1,0.6L71.2,85.6z"/>
		<path d="M78.6,78.1c-0.6,0.1-1,0.4-1,0.8c-0.1,0.4-0.2,0.8-0.5,1.2c-0.2,0.3-0.4,0.6-0.4,1c-0.1,0.3-0.3,0.6-0.5,0.7
			c-0.3,0.2-0.6,0.5-0.8,0.8c-0.2,0.5-0.3,1-0.4,1.5c-0.1,0.6-0.1,1.2,0.1,1.7l0.4,0.9c0,0.1,0.4,0.2,0.7,0.2c0.3,0,0.7-0.2,0.8-0.5
			c0.1-0.3,0.3-0.4,0.4-0.3c0.3,0.2,0.7,0.4,1,0.5c0.3,0.1,0.6,0.3,0.9,0.3c0.1,0,0.2-0.1,0.2-0.1c0-0.1,0.3-0.1,0.5,0
			s0.5-0.2,0.6-0.5c0.1-0.3,0.1-0.7,0-1h-0.9c-0.2-0.6-0.3-1.2-0.3-1.8c-0.1-0.5-0.4-0.9-0.9-1.2c-0.5-0.2-0.8-0.6-1.1-1
			c-0.1-0.4,0.1-0.9,0.5-1.1c0.8-0.4,1.7-0.6,2.7-0.6h1.3h0.3c0.1-0.2,0.2-0.5,0.1-0.7c0-0.3-0.6-0.6-1.4-0.8c-0.4,0-0.9-0.1-1.3,0
			C79.3,78,79,78,78.6,78.1"/>
		<g>
			<defs>
				<path id="SVGID_17_" d="M78.6,78.1c-0.6,0.1-1,0.4-1,0.8c-0.1,0.4-0.2,0.8-0.5,1.2c-0.2,0.3-0.4,0.6-0.4,1
					c-0.1,0.3-0.3,0.6-0.5,0.7c-0.3,0.2-0.6,0.5-0.8,0.8c-0.2,0.5-0.3,1-0.4,1.5c-0.1,0.6-0.1,1.2,0.1,1.7l0.4,0.9
					c0,0.1,0.4,0.2,0.7,0.2c0.3,0,0.7-0.2,0.8-0.5c0.1-0.3,0.3-0.4,0.4-0.3c0.3,0.2,0.7,0.4,1,0.5c0.3,0.1,0.6,0.3,0.9,0.3
					c0.1,0,0.2-0.1,0.2-0.1c0-0.1,0.3-0.1,0.5,0s0.5-0.2,0.6-0.5c0.1-0.3,0.1-0.7,0-1h-0.9c-0.2-0.6-0.3-1.2-0.3-1.8
					c-0.1-0.5-0.4-0.9-0.9-1.2c-0.5-0.2-0.8-0.6-1.1-1c-0.1-0.4,0.1-0.9,0.5-1.1c0.8-0.4,1.7-0.6,2.7-0.6h1.3h0.3
					c0.1-0.2,0.2-0.5,0.1-0.7c0-0.3-0.6-0.6-1.4-0.8c-0.4,0-0.9-0.1-1.3,0C79.3,78,79,78,78.6,78.1"/>
			</defs>
			<clipPath id="SVGID_18_">
				<use xlink:href="#SVGID_17_"  style="overflow:visible;"/>
			</clipPath>
			<g class="st8">
				<rect x="74.8" y="78" width="7.5" height="8.8"/>
			</g>
		</g>
		<path d="M76.2,86.8c-0.4,0-0.7-0.1-0.7-0.2l-0.4-0.9c-0.2-0.6-0.3-1.2-0.1-1.7c0.1-0.5,0.3-1,0.4-1.5c0.2-0.3,0.4-0.6,0.8-0.8
			c0.3-0.1,0.5-0.4,0.5-0.7c0.1-0.4,0.2-0.7,0.4-1c0.2-0.3,0.4-0.7,0.4-1.2c0-0.3,0.5-0.6,1-0.8c0.8-0.1,1.6-0.1,2.4,0
			c0.8,0.1,1.4,0.4,1.4,0.8c0,0.3,0,0.5-0.1,0.7h-0.3h-1.3c-0.9,0-1.8,0.2-2.7,0.6c-0.3,0.3-0.5,0.7-0.5,1.1c0.2,0.4,0.6,0.8,1.1,1
			c0.5,0.2,0.8,0.6,0.9,1.2c0.1,0.6,0.2,1.2,0.3,1.8h0.9c0.1,0.3,0.1,0.7,0,1c-0.1,0.4-0.4,0.6-0.6,0.5s-0.5-0.1-0.5,0
			c0,0.1-0.1,0.1-0.2,0.1c-0.3-0.1-0.6-0.2-0.9-0.3c-0.3-0.1-0.7-0.3-1-0.5c-0.1-0.1-0.3,0.1-0.4,0.3C76.8,86.6,76.5,86.8,76.2,86.8
			z"/>
		<path d="M85.1,79.2c0.1,0.3,0.2,0.6,0.4,0.8c0.2,0.2,0.4,0.4,0.4,0.7c0,0.2,0.2,0.2,0.4,0.1s0.4-0.2,0.4-0.3v-0.6
			c0-0.3-0.2-0.5-0.4-0.7c-0.3-0.2-0.5-0.3-0.8-0.3C85.3,78.9,85.1,79,85.1,79.2"/>
		<g>
			<defs>
				<path id="SVGID_19_" d="M85.1,79.2c0.1,0.3,0.2,0.6,0.4,0.8c0.2,0.2,0.4,0.4,0.4,0.7c0,0.2,0.2,0.2,0.4,0.1s0.4-0.2,0.4-0.3
					v-0.6c0-0.3-0.2-0.5-0.4-0.7c-0.3-0.2-0.5-0.3-0.8-0.3C85.3,78.9,85.1,79,85.1,79.2"/>
			</defs>
			<clipPath id="SVGID_20_">
				<use xlink:href="#SVGID_19_"  style="overflow:visible;"/>
			</clipPath>
			<g class="st9">
				<rect x="85.1" y="78.8" width="1.7" height="2"/>
			</g>
		</g>
		<path d="M86.4,80.7c-0.2,0.1-0.4,0-0.4-0.1c-0.1-0.3-0.2-0.5-0.4-0.7c-0.2-0.2-0.4-0.5-0.4-0.8c0-0.2,0.2-0.3,0.4-0.3
			c0.3,0,0.6,0.1,0.8,0.3c0.2,0.1,0.4,0.4,0.4,0.7v0.6C86.8,80.5,86.6,80.7,86.4,80.7z"/>
		<path d="M89.4,81.2c-0.2,0.2-0.3,0.5-0.3,0.7c0,0.2,0.3,0.5,0.7,0.7s0.7,0.5,0.7,0.7c0.1,0.4,0.3,0.8,0.7,1
			c0.4,0.3,0.8,0.5,1.2,0.7c0.4,0.1,0.7,0.4,1,0.7c0.2,0.3,0.4,0.5,0.7,0.8c0.2,0.2,0.4,0.5,0.5,0.9c0.1,0.6,0.2,1.1,0.2,1.7
			c0,0.5,0.1,1,0.5,1.4c0.4,0.2,0.9,0.3,1.4,0.3c0.5,0,1,0.2,1.4,0.6c0.4,0.4,0.8,0.6,1.3,0.6c0.5,0,0.9-0.1,0.9-0.3v-2.4
			c0-0.5-0.1-0.9-0.3-1.3c-0.3-0.5-0.4-1.1-0.3-1.7v-0.3c0-0.3-0.3-1.4-0.4-2s-0.5-0.3-0.6-0.3s-1.6-0.1-1.9-0.1h-0.3
			c-0.7-0.1-1.8-0.3-2.6-0.4s-2-0.3-2.8-0.4h-0.4c0-0.9-0.3-1.6-0.5-1.7c-0.1,0-0.1,0-0.2,0C89.9,81,89.7,81.1,89.4,81.2"/>
		<g>
			<defs>
				<path id="SVGID_21_" d="M89.4,81.2c-0.2,0.2-0.3,0.5-0.3,0.7c0,0.2,0.3,0.5,0.7,0.7s0.7,0.5,0.7,0.7c0.1,0.4,0.3,0.8,0.7,1
					c0.4,0.3,0.8,0.5,1.2,0.7c0.4,0.1,0.7,0.4,1,0.7c0.2,0.3,0.4,0.5,0.7,0.8c0.2,0.2,0.4,0.5,0.5,0.9c0.1,0.6,0.2,1.1,0.2,1.7
					c0,0.5,0.1,1,0.5,1.4c0.4,0.2,0.9,0.3,1.4,0.3c0.5,0,1,0.2,1.4,0.6c0.4,0.4,0.8,0.6,1.3,0.6c0.5,0,0.9-0.1,0.9-0.3v-2.4
					c0-0.5-0.1-0.9-0.3-1.3c-0.3-0.5-0.4-1.1-0.3-1.7v-0.3c0-0.3-0.3-1.4-0.4-2s-0.5-0.3-0.6-0.3s-1.6-0.1-1.9-0.1h-0.3
					c-0.7-0.1-1.8-0.3-2.6-0.4s-2-0.3-2.8-0.4h-0.4c0-0.9-0.3-1.6-0.5-1.7c-0.1,0-0.1,0-0.2,0C89.9,81,89.7,81.1,89.4,81.2"/>
			</defs>
			<clipPath id="SVGID_22_">
				<use xlink:href="#SVGID_21_"  style="overflow:visible;"/>
			</clipPath>
			<g class="st10">
				<rect x="89.1" y="81" width="11.3" height="10.9"/>
			</g>
		</g>
		<path d="M95.4,90.5c-0.3-0.4-0.5-0.9-0.5-1.4c0-0.6-0.1-1.1-0.2-1.7c-0.1-0.3-0.3-0.6-0.5-0.9c-0.3-0.2-0.5-0.5-0.7-0.8
			c-0.3-0.3-0.6-0.6-1-0.7c-0.5-0.2-0.9-0.4-1.2-0.7c-0.3-0.2-0.6-0.6-0.7-1c0-0.2-0.3-0.6-0.7-0.7s-0.7-0.5-0.7-0.7
			c0-0.3,0.1-0.5,0.3-0.7c0.2-0.2,0.5-0.3,0.8-0.2c0.2,0.1,0.5,0.8,0.5,1.7h0.4c0.8,0.1,2,0.3,2.8,0.4s2,0.3,2.6,0.4h0.3
			c0.3,0,1.7,0.1,1.9,0.1s0.6-0.3,0.7,0.3s0.4,1.6,0.4,2v0.3c0,0.6,0.1,1.2,0.3,1.7c0.2,0.4,0.4,0.9,0.3,1.3v2.4
			c0,0.2-0.4,0.3-0.9,0.3c-0.5,0-1-0.2-1.3-0.6c-0.4-0.4-0.9-0.6-1.4-0.6C96.3,90.7,95.8,90.7,95.4,90.5z"/>
		<path d="M81.3,48.5L80.8,49l-0.5,0.5c0.3,0.2,0.5,0.5,0.5,0.9c0,0.3,0.2,0.4,0.5,0.2c0.3-0.3,0.6-0.5,0.9-0.8
			c0.2-0.2,0.3-0.4,0.4-0.7v-0.8c0-0.3-0.2-0.6-0.4-0.6S81.6,48,81.3,48.5"/>
		<g>
			<defs>
				<path id="SVGID_23_" d="M81.3,48.5L80.8,49l-0.5,0.5c0.3,0.2,0.5,0.5,0.5,0.9c0,0.3,0.2,0.4,0.5,0.2c0.3-0.3,0.6-0.5,0.9-0.8
					c0.2-0.2,0.3-0.4,0.4-0.7v-0.8c0-0.3-0.2-0.6-0.4-0.6S81.6,48,81.3,48.5"/>
			</defs>
			<clipPath id="SVGID_24_">
				<use xlink:href="#SVGID_23_"  style="overflow:visible;"/>
			</clipPath>
			<g class="st11">
				<rect x="80.3" y="47.6" width="2.4" height="3.2"/>
			</g>
		</g>
		<path d="M81.3,50.5c-0.3,0.2-0.5,0.2-0.5-0.2c0-0.4-0.2-0.7-0.5-0.9l0.5-0.5l0.5-0.5c0.3-0.5,0.7-0.9,0.9-0.9s0.4,0.3,0.4,0.6V49
			c-0.1,0.3-0.2,0.5-0.4,0.7C82,50,81.7,50.3,81.3,50.5z"/>
		<path d="M86,51.3h-0.3c0.7,0.4,1.2,0.5,1.2,0.3s-0.2-0.3-0.5-0.3H86z"/>
		<g>
			<defs>
				<path id="SVGID_25_" d="M86,51.3h-0.3c0.7,0.4,1.2,0.5,1.2,0.3s-0.2-0.3-0.5-0.3H86z"/>
			</defs>
			<clipPath id="SVGID_26_">
				<use xlink:href="#SVGID_25_"  style="overflow:visible;"/>
			</clipPath>
			<g class="st12">
				<rect x="85.6" y="51.3" width="1.2" height="0.5"/>
			</g>
		</g>
		<path d="M86,51.3h0.3c0.3,0,0.5,0.2,0.5,0.3s-0.5,0-1.2-0.3H86z"/>
	</g>
</g>
</svg>
