<?xml version="1.0" encoding="utf-8"?>
<!-- Generator: Adobe Illustrator 25.0.0, SVG Export Plug-In . SVG Version: 6.00 Build 0)  -->
<svg version="1.1" id="Layer_1" xmlns="http://www.w3.org/2000/svg" xmlns:xlink="http://www.w3.org/1999/xlink" x="0px" y="0px"
	 viewBox="0 0 61.6 103.3" style="enable-background:new 0 0 61.6 103.3;" xml:space="preserve">
<style type="text/css">
	.st0{clip-path:url(#SVGID_2_);}
	.st1{clip-path:url(#SVGID_4_);}
	.st2{clip-path:url(#SVGID_6_);}
</style>
<g id="Layer_2_1_">
	<g id="Layer_1-2">
		<path d="M22.2,15.4L19,19.2h-3.1l-0.8-1.1l-1.6,0.1l-2.2,2.9l-1.6,1.7l0.7,2.2l1.4,1l-0.8,1.4H8.6c-2.3,0.4-4.3,1.5-5.9,3.2
			c-0.9,1.6-1.3,3.4-1.2,5.2L0,35.9v2.5l1.1,1.1c0.5,2.4,1.2,4.8,2.1,7.1l0.6,3l-0.1,1.3l-0.9,0.9v1.7h1.4v1h1.5v-0.8L7,53.3V52
			l2.3,0.6H13v-1.9l3.7-1.5l8.4-0.7l5.3,4.7l2,1.2l2.5,3.3l3,1.8l0.5,1.1h7l1.4-2.3h2.6v-5.7l2.7-0.8v-1.4l2.7-0.8v-8.2l-1.1-1.9
			v-3.7h-2l-4.2-7.2L44.1,26l-3.8-1.8l0.1-4.6h-1.5L38,17.6v-1.4l-2.5-0.8c0,0-1.1,3.8-1.1,4.2c-0.2,0.6-0.5,1.1-0.8,1.6v2.6
			l-1.5-0.1L28.8,21v-2.6l1.2-1.1v-1.1h0.1L30,16.1v-0.1h-0.1l-0.6-0.6c-1.2,0.3-2.5,0.3-3.7,0C24.5,15.1,23.3,15.1,22.2,15.4"/>
		<g>
			<defs>
				<path id="SVGID_1_" d="M22.2,15.4L19,19.2h-3.1l-0.8-1.1l-1.6,0.1l-2.2,2.9l-1.6,1.7l0.7,2.2l1.4,1l-0.8,1.4H8.6
					c-2.3,0.4-4.3,1.5-5.9,3.2c-0.9,1.6-1.3,3.4-1.2,5.2L0,35.9v2.5l1.1,1.1c0.5,2.4,1.2,4.8,2.1,7.1l0.6,3l-0.1,1.3l-0.9,0.9v1.7
					h1.4v1h1.5v-0.8L7,53.3V52l2.3,0.6H13v-1.9l3.7-1.5l8.4-0.7l5.3,4.7l2,1.2l2.5,3.3l3,1.8l0.5,1.1h7l1.4-2.3h2.6v-5.7l2.7-0.8
					v-1.4l2.7-0.8v-8.2l-1.1-1.9v-3.7h-2l-4.2-7.2L44.1,26l-3.8-1.8l0.1-4.6h-1.5L38,17.6v-1.4l-2.5-0.8c0,0-1.1,3.8-1.1,4.2
					c-0.2,0.6-0.5,1.1-0.8,1.6v2.6l-1.5-0.1L28.8,21v-2.6l1.2-1.1v-1.1h0.1L30,16.1v-0.1h-0.1l-0.6-0.6c-1.2,0.3-2.5,0.3-3.7,0
					C24.5,15.1,23.3,15.1,22.2,15.4"/>
			</defs>
			<clipPath id="SVGID_2_">
				<use xlink:href="#SVGID_1_"  style="overflow:visible;"/>
			</clipPath>
			<g class="st0">
				<rect y="15.2" width="54.9" height="45.4"/>
			</g>
		</g>
		<path d="M2.7,53.5h1.4v1h1.5v-0.8L7,53.3V52l2.3,0.6H13v-1.9l3.7-1.5l8.4-0.7l5.3,4.7l2,1.2l2.5,3.3l3,1.8l0.5,1.1h7l1.4-2.3h2.6
			v-5.7l2.7-0.8v-1.4l2.7-0.8v-8.2l-1.1-1.9v-3.7h-2l-4.2-7.2l-3.4-2.5l-3.8-1.8l0.1-4.6h-1.6L38,17.6v-1.4l-2.5-0.8
			c0,0-1.1,3.8-1.1,4.2c-0.2,0.6-0.5,1.1-0.8,1.6v2.6l-1.5-0.1L28.8,21v-2.6l1.2-1.1v-1.2L28.8,16l1.3,0.3l-0.8-0.8
			c-1.2,0.3-2.5,0.3-3.7,0c-1.1-0.3-2.3-0.3-3.4,0L19,19.2h-3.1l-0.8-1.1l-1.6,0.1l-2.2,2.9l-1.6,1.7l0.7,2.2l1.4,1l-0.8,1.4H8.6
			c-2.3,0.4-4.3,1.5-5.9,3.2c-0.9,1.6-1.3,3.4-1.2,5.2L0,35.9v2.5l1.1,1.1c0.5,2.4,1.2,4.8,2.1,7.1l0.6,3l-0.1,1.3l-0.9,0.9
			L2.7,53.5z"/>
		<path d="M34.7,1.4V4l0.8,1c0.1,0.8,0.1,1.7,0,2.6c-0.1,0.5-0.1,0.9-0.1,1.4c0,0.5,0.1,1,0.1,1l2.4-1.1c0,0,3,0.6,2.6,1.1
			s1.2,1.5,1.2,1.5s2.7,2.7,3.2,2.4s0.5,0,0.5,0h1.2c-0.2-1.4-0.7-2.7-1.5-3.8c-1.5-2.6-0.6-1.1-1.2-1.1c-0.6-0.1-1.2-0.4-1.5-1
			c-0.2-0.5,0.9-0.8,0.9-0.8V5l-1.4-1h-2.1V2.3c-1.5-0.8-3-1.6-4.5-2.2c-0.1,0-0.2,0-0.3,0C34.2,0.1,34.7,1,34.7,1.4"/>
		<g>
			<defs>
				<path id="SVGID_3_" d="M34.7,1.4V4l0.8,1c0.1,0.8,0.1,1.7,0,2.6c-0.1,0.5-0.1,0.9-0.1,1.4c0,0.5,0.1,1,0.1,1l2.4-1.1
					c0,0,3,0.6,2.6,1.1s1.2,1.5,1.2,1.5s2.7,2.7,3.2,2.4s0.5,0,0.5,0h1.2c-0.2-1.4-0.7-2.7-1.5-3.8c-1.5-2.6-0.6-1.1-1.2-1.1
					c-0.6-0.1-1.2-0.4-1.5-1c-0.2-0.5,0.9-0.8,0.9-0.8V5l-1.4-1h-2.1V2.3c-1.5-0.8-3-1.6-4.5-2.2c-0.1,0-0.2,0-0.3,0
					C34.2,0.1,34.7,1,34.7,1.4"/>
			</defs>
			<clipPath id="SVGID_4_">
				<use xlink:href="#SVGID_3_"  style="overflow:visible;"/>
			</clipPath>
			<g class="st1">
				<rect x="34.2" width="12.2" height="14.2"/>
			</g>
		</g>
		<path d="M35.5,10c0,0,0-0.5-0.1-1c0-0.5,0-0.9,0.1-1.4c0.1-0.9,0.1-1.7,0-2.6l-0.8-1V1.4c0-0.4-0.7-1.6,0.4-1.4
			c1.6,0.6,3.1,1.4,4.5,2.2V4h2.1l1.3,1v2.1c0,0-1,0.3-0.9,0.8c0.3,0.6,0.9,0.9,1.5,1c0.6,0-0.3-1.5,1.2,1.1
			c0.8,1.2,1.3,2.5,1.5,3.9h-1.2c0,0,0-0.3-0.5,0s-3.2-2.4-3.2-2.4s-1.6-1.1-1.2-1.5s-2.6-1-2.6-1L35.5,10z"/>
		<path d="M44.7,67.1c-0.1,0.4-0.2,0.8-0.2,1.3c0,0.3,0.2,0.7,0.5,0.7l0.5,0.1l0.5,0.1c-0.2,0.2-0.2,0.5-0.2,0.8
			c0.1,0.2,0.2,0.5,0.3,0.7c0.1,0.2,0.4,0.3,0.6,0.3c0.3,0,0.6-0.1,0.9-0.2c0.3-0.1,0.5-0.2,0.7-0.5l-0.1-0.2l-0.1-0.2
			c0.1-0.9,0-1.6-0.2-1.7c-0.3,0-0.5-0.1-0.8-0.2c-0.3-0.2-0.5-0.5-0.6-0.8c-0.2-0.4-0.6-0.7-1-0.6C45.1,66.5,44.8,66.7,44.7,67.1"
			/>
		<g>
			<defs>
				<path id="SVGID_5_" d="M44.7,67.1c-0.1,0.4-0.2,0.8-0.2,1.3c0,0.3,0.2,0.7,0.5,0.7l0.5,0.1l0.5,0.1c-0.2,0.2-0.2,0.5-0.2,0.8
					c0.1,0.2,0.2,0.5,0.3,0.7c0.1,0.2,0.4,0.3,0.6,0.3c0.3,0,0.6-0.1,0.9-0.2c0.3-0.1,0.5-0.2,0.7-0.5l-0.1-0.2l-0.1-0.2
					c0.1-0.9,0-1.6-0.2-1.7c-0.3,0-0.5-0.1-0.8-0.2c-0.3-0.2-0.5-0.5-0.6-0.8c-0.2-0.4-0.6-0.7-1-0.6C45.1,66.5,44.8,66.7,44.7,67.1
					"/>
			</defs>
			<clipPath id="SVGID_6_">
				<use xlink:href="#SVGID_5_"  style="overflow:visible;"/>
			</clipPath>
			<g class="st2">
				<rect x="44.5" y="66.5" width="4" height="4.4"/>
			</g>
		</g>
		<path d="M45,69c-0.3,0-0.6-0.4-0.5-0.7c0-0.4,0.1-0.8,0.2-1.3c0.2-0.4,0.5-0.6,0.9-0.6c0.4,0,0.8,0.2,1,0.6
			c0.1,0.3,0.3,0.6,0.6,0.8c0.3,0.1,0.5,0.2,0.8,0.2c0.2,0,0.3,0.8,0.2,1.7l0.1,0.2l0.1,0.2c-0.2,0.2-0.5,0.4-0.7,0.5
			c-0.3,0.1-0.6,0.2-0.9,0.2c-0.2,0-0.5-0.1-0.6-0.3c-0.1-0.2-0.3-0.4-0.3-0.7c0-0.3,0-0.5,0.2-0.8l-0.5-0.1L45,69z"/>
	</g>
</g>
</svg>
