<svg xmlns="http://www.w3.org/2000/svg"
    xmlns:xlink="http://www.w3.org/1999/xlink" >
    <defs>
        <symbol id="africa"  viewBox="0 0 73 127.1">
        <style type="text/css">
	.st0{
        clip-path:url(#SVGID_2_);
        fill: "pink";
    }
	.st1{clip-path:url(#SVGID_4_);
        fill: orange;
    }
	.st2{clip-path:url(#SVGID_6_);}
</style>
<g id="Layer_2_1_">
	<g id="Layer_1-2">
		<polygon fill="green" points="38.3,97.2 39.2,97.2 45.5,97.2 52,88.5 53,85 55.3,82.8 55.3,77.8 61.7,73.3 61.7,64.2 60.2,63.3 60.3,60.2 
			64.5,52 66.2,52 73,39.7 73,36.5 71.7,35.8 68.3,37 67.2,37.5 66.3,36.8 66.5,35.8 64.8,33.8 62.8,33.8 61.2,31.8 60,29.2 
			58.8,26.7 57.2,24 57,19.8 56.5,17.7 55.7,16.8 54.8,11.8 53.8,10.3 52.2,10.3 51,10.3 49.7,9.3 45.5,9.3 42.3,9.3 42.8,8 40.7,8 
			38.3,7.3 39.3,10.2 38.3,10.8 38.3,9.7 34.7,9 34.7,8.2 32.7,7.3 30,7.3 30,6 30,4.7 30,3.2 30,2.3 30,1.3 30,0.8 27.8,0 20.4,0 
			18,2 15.2,3 13.2,4 13.2,3.2 13.2,2.2 11.5,2.2 11.5,3.3 10.5,5.5 7.7,7.3 7.7,9.2 7.7,10.8 7.7,13.2 0,18.2 0,29.5 0,31.7 
			0,33.3 2.3,35.8 5.8,39.3 6,41.5 8.3,43.2 8.5,44.7 16.3,45.2 18.7,43.5 23.3,43 28.5,45.2 29.3,53.2 32,57.2 32.7,60.7 
			33.5,62.5 33.3,65.3 33.3,68.3 31,70 31.8,76.7 33.3,80.8 34.2,88.3 35,94.5 36.5,97.2 37.8,97.8 		"/>
		<g>
			<defs>
				<polygon id="SVGID_1_" points="38.3,97.2 39.2,97.2 45.5,97.2 52,88.5 53,85 55.3,82.8 55.3,77.8 61.7,73.3 61.7,64.2 
					60.2,63.3 60.3,60.2 64.5,52 66.2,52 73,39.7 73,36.5 71.7,35.8 68.3,37 67.2,37.5 66.3,36.8 66.5,35.8 64.8,33.8 62.8,33.8 
					61.2,31.8 60,29.2 58.8,26.7 57.2,24 57,19.8 56.5,17.7 55.7,16.8 54.8,11.8 53.8,10.3 52.2,10.3 51,10.3 49.7,9.3 45.5,9.3 
					42.3,9.3 42.8,8 40.7,8 38.3,7.3 39.3,10.2 38.3,10.8 38.3,9.7 34.7,9 34.7,8.2 32.7,7.3 30,7.3 30,6 30,4.7 30,3.2 30,2.3 
					30,1.3 30,0.8 27.8,0 20.4,0 18,2 15.2,3 13.2,4 13.2,3.2 13.2,2.2 11.5,2.2 11.5,3.3 10.5,5.5 7.7,7.3 7.7,9.2 7.7,10.8 
					7.7,13.2 0,18.2 0,29.5 0,31.7 0,33.3 2.3,35.8 5.8,39.3 6,41.5 8.3,43.2 8.5,44.7 16.3,45.2 18.7,43.5 23.3,43 28.5,45.2 
					29.3,53.2 32,57.2 32.7,60.7 33.5,62.5 33.3,65.3 33.3,68.3 31,70 31.8,76.7 33.3,80.8 34.2,88.3 35,94.5 36.5,97.2 37.8,97.8 
									"/>
			</defs>
			<clipPath id="SVGID_2_">
				<use xlink:href="#SVGID_1_"  style="overflow:visible;"/>
			</clipPath>
			<g class="st0">
				<rect width="73" height="97.8"/>
			</g>
		</g>
		<polygon points="38.3,97.2 39.2,97.2 45.5,97.2 52,88.5 53,85 55.3,82.8 55.3,77.8 61.7,73.3 61.7,64.2 60.2,63.3 60.3,60.2 
			64.5,52 66.2,52 73,39.7 73,36.5 71.7,35.8 68.3,37 67.2,37.5 66.3,36.8 66.5,35.8 64.8,33.8 62.8,33.8 61.2,31.8 60,29.2 
			58.8,26.7 57.2,24 57,19.8 56.5,17.7 55.7,16.8 54.8,11.8 53.8,10.3 52.2,10.3 51,10.3 49.7,9.3 45.5,9.3 42.3,9.3 42.8,8 40.7,8 
			38.3,7.3 39.3,10.2 38.3,10.8 38.3,9.7 34.7,9 34.7,8.2 32.7,7.3 30,7.3 30,6 30,4.7 30,3.2 30,2.3 30,1.3 30,0.8 27.8,0 20.4,0 
			18,2 15.2,3 13.2,4 13.2,3.2 13.2,2.2 11.5,2.2 11.5,3.3 10.5,5.5 7.7,7.3 7.7,9.2 7.7,10.8 7.7,13.2 0,18.2 0,29.5 0,31.7 
			0,33.3 2.3,35.8 5.8,39.3 6,41.5 8.3,43.2 8.5,44.7 16.3,45.2 18.7,43.5 23.3,43 28.5,45.2 29.3,53.2 32,57.2 32.7,60.7 
			33.5,62.5 33.3,65.3 33.3,68.3 31,70 31.8,76.7 33.3,80.8 34.2,88.3 35,94.5 36.5,97.2 37.8,97.8 		"/>
		<path d="M70.1,68.6l-0.3,1.9l-1,0.2v1.3l-1.1,0.3l-1,0.8V74c-0.2,0.5-0.4,1-0.5,1.5c0.1,0.2-0.3,0.7-0.3,0.7l-1.2,0.1v1.4
			c0,0,0.2,1.2,0,1.4l-0.6,0.5l-0.5,1.4l0.6,0.8l0.1,1.8l0.4,0.8l1.5-0.7l0.7-0.7l0.6-0.7l0.6-0.3l0.3-0.6h0.4l0.3-3.1l0.2-1l1-0.3
			l0.5-0.9L72,75v-6.4H70.1z"/>
		<g>
			<defs>
				<path id="SVGID_3_" d="M70.1,68.6l-0.3,1.9l-1,0.2v1.3l-1.1,0.3l-1,0.8V74c-0.2,0.5-0.4,1-0.5,1.5c0.1,0.2-0.3,0.7-0.3,0.7
					l-1.2,0.1v1.4c0,0,0.2,1.2,0,1.4l-0.6,0.5l-0.5,1.4l0.6,0.8l0.1,1.8l0.4,0.8l1.5-0.7l0.7-0.7l0.6-0.7l0.6-0.3l0.3-0.6h0.4
					l0.3-3.1l0.2-1l1-0.3l0.5-0.9L72,75v-6.4H70.1z"/>
			</defs>
			<clipPath id="SVGID_4_">
				<use xlink:href="#SVGID_3_"  style="overflow:visible;"/>
			</clipPath>
			<g class="st1">
				<rect x="63.6" y="68.6" width="8.3" height="15.6"/>
			</g>
		</g>
		<path d="M64.8,84.2l1.6-0.7l0.7-0.7l0.6-0.7l0.6-0.3l0.3-0.6h0.4l0.3-3.1l0.2-1l1-0.3l0.5-0.9L72,75v-6.4h-1.9l-0.3,1.9l-1,0.2
			v1.3l-1.1,0.3l-1,0.8V74c-0.2,0.5-0.4,1-0.5,1.5c0.1,0.2-0.3,0.7-0.3,0.7l-1.2,0.1v1.4c0,0,0.2,1.2,0,1.4l-0.6,0.5l-0.5,1.4
			l0.6,0.8l0.1,1.8L64.8,84.2z"/>
		<polygon points="69.7,55.3 69.2,56.6 69.7,57.7 70.2,57.7 70.2,57.2 70.2,56.5 70.2,55.3 		"/>
		<g>
			<defs>
				<polygon id="SVGID_5_" points="69.7,55.3 69.2,56.6 69.7,57.7 70.2,57.7 70.2,57.2 70.2,56.5 70.2,55.3 				"/>
			</defs>
			<clipPath id="SVGID_6_">
				<use xlink:href="#SVGID_5_"  style="overflow:visible;"/>
			</clipPath>
			<g class="st2">
				<rect x="69.2" y="55.3" width="1" height="2.4"/>
			</g>
		</g>
		<polyline points="69.7,57.7 69.2,56.6 69.7,55.3 70.2,55.3 70.2,56.5 70.2,57.2 70.2,57.7 		"/>
	</g>
</g>

        </symbol>
    </defs>
</svg>