<?xml version="1.0" encoding="utf-8"?>
<!-- Generator: Adobe Illustrator 25.0.0, SVG Export Plug-In . SVG Version: 6.00 Build 0)  -->
<svg version="1.1" id="Layer_1" xmlns="http://www.w3.org/2000/svg" xmlns:xlink="http://www.w3.org/1999/xlink" x="0px" y="0px"
	 viewBox="0 0 212.2 134.1" style="enable-background:new 0 0 212.2 134.1;" xml:space="preserve">
<style type="text/css">
	.st0{clip-path:url(#SVGID_2_);}
	.st1{clip-path:url(#SVGID_4_);}
	.st2{clip-path:url(#SVGID_6_);}
	.st3{clip-path:url(#SVGID_8_);}
</style>
<g id="Layer_2_1_">
	<g id="Layer_1-2">
		<path d="M4.5,34.1c0.2,1.1,0.3,2.3,0.2,3.4c0,0.8-0.4,1.4-1.1,1.8v-0.8c-0.5-0.2-1-0.1-1.1,0.2c-0.2,0.5-0.4,1-0.6,1.5
			c-0.3,0.6-0.7,1.1-1.2,1.5c-0.5,0.4-0.8,1-0.8,1.6c0,0.5,0.1,0.9,0.2,1.3c0.4,0.3,0.9,0.5,1.4,0.5c0.5,0.2,1,0.1,1.4-0.1l0.2-0.1
			c0.3-0.6,0.5-1.2,0.6-1.8v-2.1c0-0.3,0.4-0.5,1-0.5c0.5,0,1,0.5,0.9,1c0,0.7-0.2,1.3-0.4,2C5,44.3,4.5,45,4,45.6l-0.1,0.2L3.8,46
			c1,0.7,2.2,1.2,3.4,1.2h0.4c0.3,0,0.6-0.1,0.9-0.1c1.1-0.2,2.2-0.3,2.5-0.3s0.5-0.4,0.5-1c0-0.8-0.1-1.7-0.3-2.5
			c-0.2-0.8-0.6-1.5-0.9-1.5s-1.1-0.7-1.7-1.7c0,0-0.7-1-1-1.7c-0.2-0.5-0.5-1-1-1.3C6.3,37,6,34.7,5.9,34.4s-0.6-0.3-1-0.3
			L4.5,34.1z"/>
		<g>
			<defs>
				<path id="SVGID_1_" d="M4.5,34.1c0.2,1.1,0.3,2.3,0.2,3.4c0,0.8-0.4,1.4-1.1,1.8v-0.8c-0.5-0.2-1-0.1-1.1,0.2
					c-0.2,0.5-0.4,1-0.6,1.5c-0.3,0.6-0.7,1.1-1.2,1.5c-0.5,0.4-0.8,1-0.8,1.6c0,0.5,0.1,0.9,0.2,1.3c0.4,0.3,0.9,0.5,1.4,0.5
					c0.5,0.2,1,0.1,1.4-0.1l0.2-0.1c0.3-0.6,0.5-1.2,0.6-1.8v-2.1c0-0.3,0.4-0.5,1-0.5c0.5,0,1,0.5,0.9,1c0,0.7-0.2,1.3-0.4,2
					C5,44.3,4.5,45,4,45.6l-0.1,0.2L3.8,46c1,0.7,2.2,1.2,3.4,1.2h0.4c0.3,0,0.6-0.1,0.9-0.1c1.1-0.2,2.2-0.3,2.5-0.3s0.5-0.4,0.5-1
					c0-0.8-0.1-1.7-0.3-2.5c-0.2-0.8-0.6-1.5-0.9-1.5s-1.1-0.7-1.7-1.7c0,0-0.7-1-1-1.7c-0.2-0.5-0.5-1-1-1.3
					C6.3,37,6,34.7,5.9,34.4s-0.6-0.3-1-0.3L4.5,34.1z"/>
			</defs>
			<clipPath id="SVGID_2_">
				<use xlink:href="#SVGID_1_"  style="overflow:visible;"/>
			</clipPath>
			<g class="st0">
				<rect y="34.1" width="11.6" height="13.1"/>
			</g>
		</g>
		<path d="M3,45.3c-0.4,0.2-0.9,0.3-1.4,0.1c-0.5-0.1-0.9-0.3-1.4-0.5C0,44.4,0,44,0,43.5c0-0.6,0.3-1.2,0.8-1.6
			c0.5-0.4,0.9-1,1.2-1.5c0.2-0.5,0.4-1,0.6-1.5c0.1-0.3,0.5-0.4,1.1-0.2v0.8c0.7-0.4,1.1-1.1,1.1-1.8c0.1-1.1,0-2.3-0.2-3.4h0.4
			c0.4,0,1,0,1,0.3s0.4,2.6,0.8,2.8c0.5,0.3,0.8,0.7,1,1.3c0.3,0.6,0.6,1.1,1,1.7c0.6,0.9,1.4,1.7,1.7,1.7s0.7,0.7,0.9,1.5
			c0.2,0.8,0.3,1.6,0.3,2.5c0,0.5-0.2,1-0.5,1s-1.4,0.2-2.5,0.3c-0.3,0.1-0.6,0.1-0.9,0.1H7.2C6,47.1,4.8,46.7,3.8,46l0.1-0.2
			L4,45.6c0.5-0.6,1-1.3,1.4-2c0.3-0.6,0.4-1.3,0.4-1.9c0-0.5-0.4-1-0.9-1c-0.5,0-1,0.2-1,0.5v2.1c-0.1,0.6-0.3,1.3-0.6,1.8L3,45.3z
			"/>
		<path d="M73,2.2v0.3c0,0.5-0.2,0.9-0.4,0.9h-0.7c-0.2,0-0.4,0.4-0.6,0.8v0.5c-0.1,0.6-0.3,1.1-0.7,1.6c-0.3,0.3-0.6,0.4-1,0.4
			c-0.3,0-0.6,0.4-0.6,1c0,0.6-0.1,1.1-0.3,1.6c-0.2,0.4-0.7,0.5-1.1,0.4c-0.4-0.1-0.8,0-0.8,0.4s0.4,0.7,0.9,0.8
			c0.4,0.1,0.8,0.2,1.2,0.4c0.2,0.1,0.1,0.2-0.1,0.2s-0.1,0.2,0.3,0.4s0.8,0.2,0.9,0c0.2-0.5,0.4-1.1,0.5-1.6c0.2-0.6,0.2-1.3,0-1.9
			c-0.1-0.3,0.4-0.8,1.2-1.1c0.9-0.3,1.7-0.7,2.5-1.2c0.6-0.4,1-0.9,1.4-1.4c0.2-0.4,0.6-1.1,0.8-1.5s0-0.8-0.4-0.8
			C75,2.1,74,2,73.1,1.8l0,0C73.1,1.8,73,1.8,73,2.2"/>
		<g>
			<defs>
				<path id="SVGID_3_" d="M73,2.2v0.3c0,0.5-0.2,0.9-0.4,0.9h-0.7c-0.2,0-0.4,0.4-0.6,0.8v0.5c-0.1,0.6-0.3,1.1-0.7,1.6
					c-0.3,0.3-0.6,0.4-1,0.4c-0.3,0-0.6,0.4-0.6,1c0,0.6-0.1,1.1-0.3,1.6c-0.2,0.4-0.7,0.5-1.1,0.4c-0.4-0.1-0.8,0-0.8,0.4
					s0.4,0.7,0.9,0.8c0.4,0.1,0.8,0.2,1.2,0.4c0.2,0.1,0.1,0.2-0.1,0.2s-0.1,0.2,0.3,0.4s0.8,0.2,0.9,0c0.2-0.5,0.4-1.1,0.5-1.6
					c0.2-0.6,0.2-1.3,0-1.9c-0.1-0.3,0.4-0.8,1.2-1.1c0.9-0.3,1.7-0.7,2.5-1.2c0.6-0.4,1-0.9,1.4-1.4c0.2-0.4,0.6-1.1,0.8-1.5
					s0-0.8-0.4-0.8C75,2.1,74,2,73.1,1.8l0,0C73.1,1.8,73,1.8,73,2.2"/>
			</defs>
			<clipPath id="SVGID_4_">
				<use xlink:href="#SVGID_3_"  style="overflow:visible;"/>
			</clipPath>
			<g class="st1">
				<rect x="66.9" y="1.8" width="9.7" height="10.2"/>
			</g>
		</g>
		<path d="M70.1,11.8c0.2-0.5,0.4-1.1,0.5-1.6c0.2-0.6,0.2-1.3,0-1.9c-0.1-0.3,0.4-0.8,1.2-1.1c0.9-0.3,1.7-0.7,2.4-1.2
			c0.6-0.4,1-0.9,1.4-1.4c0.2-0.4,0.6-1.1,0.8-1.5s0-0.8-0.4-0.8C75,2.1,74,2,73.1,1.8c0,0-0.1,0-0.1,0.4v0.3c0,0.5-0.2,0.9-0.4,0.9
			h-0.7c-0.2,0-0.4,0.4-0.6,0.8v0.5c-0.1,0.6-0.3,1.1-0.7,1.6c-0.3,0.3-0.6,0.4-1,0.4c-0.3,0-0.6,0.4-0.6,1c0,0.6-0.1,1.1-0.3,1.6
			c-0.2,0.4-0.7,0.5-1.1,0.4c-0.4-0.1-0.8,0-0.8,0.4s0.4,0.7,0.9,0.8c0.4,0.1,0.8,0.2,1.2,0.4c0.2,0.1,0.1,0.2-0.1,0.2
			s-0.1,0.2,0.3,0.4S69.9,12,70.1,11.8z"/>
		<path d="M83.2,3c0,0.2,0.1,0.1,0-0.2V3z M83.2,2.3c0,0.2,0,0.4,0.1,0.5l0.1-0.4L83.5,2c0.1,0.3,0.2,0.3,0.2,0.1V1.4
			c0-0.1-0.1-0.2-0.3-0.2S83.1,1.8,83.2,2.3"/>
		<g>
			<defs>
				<path id="SVGID_5_" d="M83.2,3c0,0.2,0.1,0.1,0-0.2V3z M83.2,2.3c0,0.2,0,0.4,0.1,0.5l0.1-0.4L83.5,2c0.1,0.3,0.2,0.3,0.2,0.1
					V1.4c0-0.1-0.1-0.2-0.3-0.2S83.1,1.8,83.2,2.3"/>
			</defs>
			<clipPath id="SVGID_6_">
				<use xlink:href="#SVGID_5_"  style="overflow:visible;"/>
			</clipPath>
			<g class="st2">
				<rect x="83.1" y="1.3" width="0.6" height="1.9"/>
			</g>
		</g>
		<path d="M83.2,2.4c-0.1-0.6,0-1.1,0.2-1.1s0.3,0.1,0.3,0.2v0.6c0,0.2-0.1,0.2-0.2-0.1l-0.1,0.5L83.2,3C83.3,3.3,83.3,3,83.2,2.4z"
			/>
		<path d="M122.8,0.4l-1,0.5c-1.2,0.6-2.5,1-3.8,1.1l-1.2,0.1c-1.1,0.1-2.4,0.2-2.9,0.2S113,2.6,113,2.9s-0.7,0.5-1.6,0.5h-2.3
			c-0.4,0-0.8,0.2-0.8,0.5s-0.4,0.5-0.9,0.5c-0.6,0-1.1,0.3-1.4,0.8c-0.3,0.4-0.5,0.8-0.7,1.3c-0.1,0.3-1.1,0.5-2.2,0.5h-2
			c-1-0.1-1.9,0.3-2.6,1c-0.3,0.5-0.4,1.1-0.1,1.6c0.3,0.3,0.4,0.7,0.3,1.1c-0.1,0.2-0.6,0.1-1.1-0.2c-0.5-0.4-1.2-0.6-1.8-0.6
			c-0.8,0.2-1.5,0.6-2,1.2c-0.5,0.5-1,1.1-1.5,1.8c-0.2,0.4-0.4,0.9-0.4,1.4c0,0.4,0.3,0.8,0.8,0.9c0.4,0.1,0.7,0.5,0.7,0.9
			c-0.1,0.5-0.3,1-0.5,1.5c-0.3,0.5-0.8,1-1.2,1.3c-0.5,0.3-1.1-0.1-1.4-1s-0.7-2-0.9-2.5c-0.2-0.7-0.3-1.4-0.2-2.1
			c0-1-0.2-2-0.6-2.9c-0.4-1-1.2-1.7-1.8-1.6C86.2,9,85.7,9.4,85.5,10c-0.2,0.6-0.6,1.2-1.2,1.6c-0.5,0.3-0.7,0.9-0.5,1.5
			c0.3,0.7,0.6,1.3,1.1,1.9c0.4,0.4,0.6,1.1,0.5,1.7c-0.1,0.4-0.6,0.3-0.9-0.2c-0.3-0.5-0.8-0.9-1.3-1.2c-0.5-0.2-1-0.3-1.6-0.4
			c-0.5-0.1-1-0.3-1.5-0.6c-0.8-0.3-1.7-0.5-2.6-0.4c-1.1,0-1.9,0.4-1.8,0.9s-0.4,1.1-1.2,1.4c-0.8,0.3-1.6,0.5-2.4,0.5
			c-0.6,0-1.2-0.2-1.8-0.5c-0.6-0.3-1.2-0.5-1.8-0.6c-1,0.1-1.9,0.5-2.7,1.2l-2,1.7c-0.8,0.7-1.8,1.1-2.1,0.9
			c-0.4-0.4-0.6-0.9-0.7-1.5c-0.1-0.6-0.4-1.2-0.8-1.7c-0.4-0.3-0.9-0.3-1,0.1c-0.2,0.6-0.2,1.2-0.2,1.8c0,0.7-0.1,1.3-0.5,1.9
			c-0.3,0.4-0.8,0.7-1.3,0.8c-0.7-0.1-1.3-0.5-1.6-1.1c-0.4-0.5-0.6-1.1-0.8-1.8c-0.1-0.5-0.4-1-0.9-1.3c-0.5-0.4-0.8-0.9-0.7-1.2
			s-0.7-0.6-1.8-0.6h-0.8c-1.1,0-2.2-0.1-3.3-0.3c-0.8-0.2-1.5-0.7-1.9-1.3c-0.7-0.7-1.6-1.1-2.6-1h-5.2c-1.3,0.1-2.5,0.5-3.5,1.3
			c-0.8,0.8-1.8,1.3-2.9,1.5c-0.9,0.2-1.7,0.8-2.2,1.6c-0.4,0.7-0.7,1.5-0.8,2.4c0,0.5-0.8,1.4-1.8,2l-0.9,0.5
			c-0.9,0.5-1.6,1.3-2,2.2c-0.4,0.9-1.2,1.7-2.1,2.1L19,26.8c-1,0.5-1.9,1.2-2,1.6c0,0.6,0.1,1.2,0.5,1.8c0.4,0.6,0.6,1.3,0.6,2
			c0,0.5,0.7,1.2,1.6,1.5c1,0.3,2,0.3,3,0.1c0.5-0.2,1.1,0.1,1.2,0.7c0,0.1,0,0.2,0,0.3c0,0.8,0.3,1.5,0.9,2c0.5,0.4,0.7,1,0.6,1.6
			c-0.1,0.5,0,0.5,0.4,0s1.2-1.7,1.9-2.6l0-0.1c0.6-0.8,1.4-1.4,2.3-1.6c0.6,0,1-0.6,0.9-1.4c-0.1-0.9-0.5-1.6-1.1-2.3
			c-0.5-0.5-0.4-1.6,0.3-2.5l0.6-0.8c0.7-0.9,1.5-1.6,1.9-1.6s0.7-0.5,0.7-1.2c0-0.7,0.2-1.5,0.5-2.1c0.4-0.6,0.8-1.1,1.3-1.6
			c0.5-0.4,0.8-0.1,0.8,0.5c0,0.7,0.6,1.2,1.2,1.2c0,0,0.1,0,0.1,0v0.1c0,0.1-0.5,1.3-0.5,1.3c-0.4,1-1.2,1.8-1.7,1.8
			s-0.9,0.9-0.9,2c0,1.1,0.2,2.2,0.5,3.2C35,31.4,35.6,32,36,32s1.2,0,1.8-0.1s1.4-0.1,1.7-0.1s0.7,0.2,0.7,0.4s-0.5,0.4-1.2,0.4
			s-1.9-0.1-2.8-0.2l0.5,0.5c0.3,0.3,0.4,0.6,0.4,1c-0.2,1.1-0.4,2.1-0.4,2.3s-0.6,0.1-1.4-0.1c-0.9-0.5-1.3-1.4-1.1-2.4
			c0,0,0.1-0.7-0.2,0.2s-0.8,2.5-0.8,2.5c-0.3,1-0.4,2-0.2,3c0.1,0.6-0.3,1.3-0.9,1.5c-1,0.3-2,0.3-2.9,0c-1.2-0.3-2.4-0.4-3.7-0.4
			h-0.8c-1.1,0-2-0.4-2.1-1c-0.1-0.7-0.3-1.4-0.6-2c-0.3-0.5-0.8-0.9-1.2-0.8s-0.7,1-0.7,2c0,1-0.1,2-0.2,3
			c-0.2,0.7-0.8,1.3-1.6,1.4c-1,0.1-2.1,0-3.1-0.4v0.7c0,0.7-3.5,4.7-3.5,4.7c-0.9,0.9-2,1.6-3.3,2l-0.4,0.1c-0.6,0-1.1,0.6-1.1,1.2
			c0,0.3,0.2,0.6,0.4,0.8l0.4,0.5c0.7,0.8,1.2,1.8,1.4,2.8c0,0.7-0.3,1.2-0.7,1.2c-0.5,0-1.1,0.2-1.6,0.5c-0.8,0.4-1.6,0.5-2.5,0.5
			c-0.9,0-2.2,0-2.9,0.1s-1.2,1-1.2,2.1l-0.1,3c0,1,0.1,2.1,0.3,3.1C0.9,66.5,1.5,67,2.3,67H4c0.3,0,0.6,0.2,0.7,0.5
			c0.1,0.3,0.3,0.7,0.4,1c0.2,0.3,0.6,0.3,0.9,0.1c0.4-0.2,1.2-0.6,2-1h0.8c0.4-0.8,0.6-1.7,0.7-2.6c0.1-0.9-0.1-1.8-0.4-2.7
			l0.5,0.1c0.3,0,0.7,0.1,1,0.1c1,0,1.9-0.3,2.6-1c0.3-0.5,0.6-1,0.6-1.6c0-0.4,0.6-1,1.3-1.3c0.7-0.4,1.5-0.6,2.3-0.7
			c0.5,0,0.5,0,0-0.1h3.7c0.4,0.8,1,1.5,1.7,2l0.5,0.2c0.5,0.2,0.7,1.6,1.3,1.9c0.4,0.2,0.8,0.5,1.1,0.8c0.9,0.7,1.7,1.1,1.8,0.9
			c0.1-0.3,0.1-0.7-0.1-1c-0.5-0.8-1.1-1.5-1.8-2.1c0,0-0.4-0.3-0.7-0.7l-0.4-0.4c-0.3-0.7-0.4-1.4-0.4-2.1c0.4-0.8,1-1.5,1.7-2
			c0,0,0.2-0.2,0.8,1.2s1.7,2.9,2.1,3c0.7,0.4,1.2,0.9,1.6,1.5c0.1,0.3,0.1,0.6,0.1,0.6c0.3,1.3,0.3,2.6,0.3,3.8l0.5,0.2
			c0.5,0.2,1.1,1.4,1.4,1.4h0.3c0.5,0.1,0.8,0.8,0.6,1.6h0.6c0.3-0.4,0.7-0.9,0.8-1.2c0.2-0.3,0.4-0.5,0.7-0.7
			c0.2-0.1,0.1-0.4-0.2-0.6c-0.2-0.1-0.5-0.3-0.7-0.5v-0.8c0.1-0.9,0.5-1.6,0.9-1.6c0.4,0,0.8-0.1,1.2-0.3c0.4-0.2,0.9-0.3,1.4-0.2
			c0,0.1-0.1,0.5,0,0.5c0.4,0.2,0.8,0.3,1.2,0.4c0.4,0,0.4,0.1,0.4,0.1v4.2c-0.1,0.5-0.2,1-0.5,1.4l0.5,0.2l0.5,0.2
			c1-0.1,2.1-0.1,3.1-0.1h2.8c0.5,0,1,0.8,1.3,1.7s0.5,2.2,0.6,2.8c0.1,0.5,0.1,1.1-0.2,1.6c-0.5,0.3-1,0.5-1.6,0.4
			c-0.7,0-0.8,0.7-0.2,1.5c0.6,0.9,1,1.9,1.3,3c0.2,0.8,0.5,1.4,0.8,1.4s0.9,0.7,1.3,1.5s1.2,2.4,1.6,3.4v0.1
			c0.6,1.2,1.3,2.3,2.1,3.3c0.1,0.1,0.2,0.3,0.2,0.5c0,0.2,0.3,2.8,0.6,2.8c0.6,0.2,1.1,0.6,1.5,1.2l0.2,0.3
			c0.2,0.9,0.4,1.9,0.4,2.9c0,0.8,0.1,1.5,0.4,2.2c0.6,0.4,1.3,0.6,2.1,0.4l0.2,0.2l0.2,0.2c0.6,0.2,1.1,0.4,1.6,0.7
			c0.4,0.2,0.8,0.2,1.1,0c0.3-0.2,0.7-0.4,1-0.7c0.2-0.2,0.4-0.3,0.6-0.4H66c0.3-0.6,0.8-1.1,1.3-1.4c0.4-0.3,0.6-0.6,0.5-0.8
			c-0.2-0.2-0.2-0.4,0-0.6c0,0,0,0,0,0c0.2-0.2,0.1-0.8-0.2-1.3h0.9c0.5,0.1,1,0.1,1.5,0.1c0.3,0,0.6-0.6,0.6-1.2
			c0-0.8,0.1-1.6,0.2-2.4h0.9c0.5-0.1,1-0.4,1.3-0.9c0.3-0.4,0.5-0.9,0.6-1.4c0-0.3,0-1.3,0-2.2c0-0.9,0.1-1.7,0.3-2.6
			c0.1-0.4,0.4-0.8,0.8-1.2c0.3-0.2,0.5-0.6,0.6-0.9c0.2-0.5,0.4-1,0.6-1.4c0.2-0.4,0.6-1.2,0.8-1.6c0.5-0.6,1.3-1,2.1-0.9
			c0.9,0,1.7-0.4,2.2-1.2c0.4-0.8,0.9-1.6,1.6-2.3c0.6-0.6,0.9-1.3,1.1-2.1c0-0.5,0.8-1.3,1.8-1.8c0,0,1.1-0.5,1.1-1
			c0-0.2,1.2-0.9,1.2-1.8c0-0.7,0-1,0-1.5v-0.6c-0.8,0-2.2,0-3,0c-0.8,0-1.6-0.3-2.3-0.7c-0.4-0.4-0.7-0.3-0.7,0.1s-0.8,1.1-1.8,1.6
			l-1,0.4c-1,0.4-1.9,1.2-1.9,1.6s-0.4,0.8-0.7,0.8c-0.4,0-0.8-0.1-1.2-0.3c-0.7-0.5-1.5-1-2.1-1.6L72.7,69
			c-0.7-0.7-1.7-1.1-2.7-1.3c-0.7,0-1.3,0.2-1.9,0.6c-0.6,0.3-1.3,0.5-1.9,0.3c-0.7-0.2-1.4-0.5-1.9-1c-0.5-0.8-0.8-1.8-0.8-2.8
			v-0.6c0-1-0.3-2-1-2.8c-0.7-0.8-1.3-1.6-1.7-2.6l-0.5-1.1c-0.5-1-1-2.2-1.2-2.6c-0.2-0.6-0.3-1.1-0.3-1.7c0-0.5,0.2-0.9,0.4-0.9
			s0.2-0.6,0-1.2c-0.2-0.7-0.4-1.5-0.4-2.3c0.2-0.9,0.8-1.7,1.5-2.3c1-0.7,2.1-1.2,3.3-1.3c1,0,2,0.1,2.9,0.4c0.5,0.2,1,0.5,1.5,1
			c0.5,0.4,1.1,0.5,1.7,0.5c0.7,0,1.3-0.4,1.5-1c0.1-0.5,0.3-1.3,0.4-1.7c0.2-0.6,0.4-1.1,0.7-1.7c0.4-0.6,1.1-1,1.8-0.9
			c0.8-0.1,1.5-0.6,1.9-1.3c0.7-0.9,1.7-1.4,2.8-1.3h0.7c1.3,0,2.6,0.3,3.9,0.7h0.1l3.1,1.2c0.7,0.3,2,0.8,2.8,1.3s1.6,0.8,1.5,0.8
			l1.9,0.2c0,0,0.8,0.1,1.5,0.1c0.4,0,0.8,0.1,1.1,0.2c0.9,0.5,1.7,1.3,2.2,2.2c0.3,0.7,0.9,1.2,1.3,1.2s0.8,0.3,0.8,0.6
			s0.6,0.1,1.3-0.5c0.7-0.6,1.5-0.9,2.3-1c0.6,0,1.4,0,1.8,0c0.6,0.1,1.2,0.3,1.6,0.8c0.6,0.5,1.4,0.6,2.2,0.4
			c0.8-0.2,1.4-0.6,1.9-1.2c0.3-0.5,0.7-1.1,0.8-1.4s1.2-0.6,2.3-0.7h0.2c0.9-0.1,1.7,0,2.6,0.3c0.4,0.4,0.8,0.9,1,1.5
			c0.4,0.7,1.1,1.1,1.8,1.1c0.8,0,1.4-0.4,1.4-0.8s0.9-0.7,2-0.6l3.3,0.3c1.1,0.1,2,0.4,2,0.6s0.9,0.4,2,0.4h0.7
			c1.2,0,2.3-0.3,3.3-0.9c0.9-0.7,1.7-1.4,2.4-2.2c0.5-0.5,0.8-1.1,1.1-1.7c0-0.2,0.8-0.5,1.8-0.6c1.2,0,2.3,0.4,3.2,1.3l1,1.1
			c0.8,0.8,2,2.1,2.8,2.9c1.2,0.7,2.4,1.3,3.7,1.7c0.3,0.2,0.5,0.4,0.6,0.7c0.3,1,0.6,2,0.8,3c0,0.6-0.4,1.2-1,1.3
			c-0.6,0.1-1.2,0.4-1.7,0.8c-0.3,0.4-0.5,1-0.3,1.5c0.3,0.6,1,1,1.7,1c0.7,0.1,1.4,0,2-0.3c0.6-0.3,1.3-0.4,2-0.4
			c0.8,0,1.5,0.1,2.2,0.4c0.4,0.2,1.3-0.1,1.9-0.8s1.5-1.5,1.9-1.9c0.5-0.5,0.8-1.1,0.8-1.8c0-0.4,0.1-0.9,0.3-1.2
			c0.2-0.1,0.3,0.7,0.3,1.8v0.5c0,1,0.3,1.9,0.9,2.7c0.5,0.4,0.9,0.3,0.9-0.1c0.1-0.6,0.4-1.2,0.8-1.7c0.5-0.6,0.8-1.4,0.8-2.2
			c0-0.7-0.3-1.3-0.8-1.4s-0.8-0.9-0.9-1.8l-0.2-0.8c-0.2-0.8-0.2-1.2-0.2-1.2c-0.2-1.1-0.9-2-1.6-2c-0.7,0-1.4-0.1-2-0.3
			c-0.5-0.2-0.8-0.6-0.8-0.8s-0.1-0.5-0.3-0.5s-0.4,0.2-0.5,0.5s-0.6,0.5-1.1,0.5c-0.5,0-0.9-0.3-1-0.8c-0.1-0.4,0.6-1.3,1.5-1.9
			c0.5-0.3,0.9-0.7,1.4-1.1c0.4-0.4,0.7-0.8,1-1.3c1.2-2.1,3.4-3.4,5.9-3.4h8.3c0.7,0,1.4-0.3,1.9-0.8c0.4-0.4,0.1-1.3-0.7-2.1
			c0,0-0.4-0.3,2.6-0.3s3.2,0.2,3.4,0.3s0.6,0.5,0.8,0.8s-0.1,0.9-0.7,1.5s-1.5,1.6-2.1,2.2c-0.7,0.9-1,2-1.1,3.2l-0.3,6
			c-0.1,1.1,0.3,1.7,0.7,1.2c0.5-0.4,0.6-1,0.5-1.6c-0.2-0.5,0.2-0.9,0.8-0.9c0.8-0.3,1.5-0.9,1.8-1.7c0.4-1.2,0.6-2.4,0.7-3.7v-1
			c0-1,0.3-2,1-2.8c0.7-0.5,1.6-0.8,2.5-0.8c1.2-0.1,2.3-0.3,3.4-0.6l1-0.3c1.2-0.4,2.4-1.1,3.4-1.9l0.1-0.1
			c0.7-0.7,1.6-1.1,2.6-1.3c0.7-0.1,1.4-0.5,1.8-1.2c0.4-0.9,0.7-2,0.7-3c0-0.8,0.5-1.4,1.3-1.4c0.2,0,0.4,0,0.6,0.1l0.5-0.5
			c0.5-0.5,0.8,0.7,1.3,0.7s1.7,1,1.7,1c0.6,0.6,1.4,1.1,2.2,1.4c0.4,0,1.2-0.6,1.9-1.5c0.6-0.8,1.4-1.4,2.3-1.7
			c1.3-0.4-0.1-1.4-0.1-1.4c-0.8-0.6-1.7-1-2.6-1.2c-0.6,0-1.3-0.3-1.8-0.7c-0.4-0.4-0.1-0.3,0.8,0.2l-0.5-0.8
			c-0.5-0.8-0.6-0.9-0.6-0.9c-1-0.3-2-0.7-2.9-1.2c-0.6-0.3-1.1-0.7-1.6-1.2c-0.6-0.5-1.1-1-1.8-1.4c-0.9-0.5-1.9-0.8-3-0.8
			c-1.2,0.1-2.2,0.7-2.9,1.6c-0.4,0.7-1,1.3-1.8,1.8c-0.4,0.1-0.7,0-1-0.2c-0.7-0.4-1.5-0.6-2.3-0.7c0,0-2-0.2-3.2-0.2
			s-3.1-1.9-3.1-1.9c-0.9-0.8-2.2-1.3-3.4-1.4h-2.7c-1.3-0.1-2.5-0.5-3.5-1.2l-0.4-0.3c-1.1-0.8-2.3-1.3-3.6-1.5l-4-0.5
			c-1.3-0.1-2.6-0.1-3.9,0.2l-4.3,1c-1.1,0.2-2.1,0.6-3.1,1.1c-0.6,0.4-1.3,0.4-1.8,0c-0.6-0.5-1.3-0.9-2-1.2
			c-0.7-0.3-1.3-1-1.3-1.8c0-0.7-0.9-1.2-2-1.2h-0.2c-1,0-2,0.2-2.9,0.6c-0.7,0.4-1.5,0.5-2.2,0.5c-0.7,0-1.4-0.2-2.1-0.6
			c-0.8-0.3-1.6-0.5-2.4-0.5h-6.8c-0.5,0-0.9-0.3-1.1-0.8c-0.1-0.3,0-0.6,0.3-0.8c0.1,0,0.2,0,0.3,0c0.7-0.1,1.3-0.4,1.8-0.8
			c0.7-0.5,1.4-1,2.2-1.4c0.6-0.3,1-0.9,1.2-1.6c0-0.5-0.9-1-2-1.2c-0.6-0.1-1.3,0-1.9,0.3c-0.5,0.3-1,0.4-1.5,0.3
			c-1.1-0.2-2-0.6-2.1-0.9c-0.3-0.6-0.8-1.1-1.3-1.5c-0.4-0.2-0.8-0.3-1.2-0.3C123.9,0,123.3,0.1,122.8,0.4"/>
		<g>
			<defs>
				<path id="SVGID_7_" d="M122.8,0.4l-1,0.5c-1.2,0.6-2.5,1-3.8,1.1l-1.2,0.1c-1.1,0.1-2.4,0.2-2.9,0.2S113,2.6,113,2.9
					s-0.7,0.5-1.6,0.5h-2.3c-0.4,0-0.8,0.2-0.8,0.5s-0.4,0.5-0.9,0.5c-0.6,0-1.1,0.3-1.4,0.8c-0.3,0.4-0.5,0.8-0.7,1.3
					c-0.1,0.3-1.1,0.5-2.2,0.5h-2c-1-0.1-1.9,0.3-2.6,1c-0.3,0.5-0.4,1.1-0.1,1.6c0.3,0.3,0.4,0.7,0.3,1.1c-0.1,0.2-0.6,0.1-1.1-0.2
					c-0.5-0.4-1.2-0.6-1.8-0.6c-0.8,0.2-1.5,0.6-2,1.2c-0.5,0.5-1,1.1-1.5,1.8c-0.2,0.4-0.4,0.9-0.4,1.4c0,0.4,0.3,0.8,0.8,0.9
					c0.4,0.1,0.7,0.5,0.7,0.9c-0.1,0.5-0.3,1-0.5,1.5c-0.3,0.5-0.8,1-1.2,1.3c-0.5,0.3-1.1-0.1-1.4-1s-0.7-2-0.9-2.5
					c-0.2-0.7-0.3-1.4-0.2-2.1c0-1-0.2-2-0.6-2.9c-0.4-1-1.2-1.7-1.8-1.6C86.2,9,85.7,9.4,85.5,10c-0.2,0.6-0.6,1.2-1.2,1.6
					c-0.5,0.3-0.7,0.9-0.5,1.5c0.3,0.7,0.6,1.3,1.1,1.9c0.4,0.4,0.6,1.1,0.5,1.7c-0.1,0.4-0.6,0.3-0.9-0.2c-0.3-0.5-0.8-0.9-1.3-1.2
					c-0.5-0.2-1-0.3-1.6-0.4c-0.5-0.1-1-0.3-1.5-0.6c-0.8-0.3-1.7-0.5-2.6-0.4c-1.1,0-1.9,0.4-1.8,0.9s-0.4,1.1-1.2,1.4
					c-0.8,0.3-1.6,0.5-2.4,0.5c-0.6,0-1.2-0.2-1.8-0.5c-0.6-0.3-1.2-0.5-1.8-0.6c-1,0.1-1.9,0.5-2.7,1.2l-2,1.7
					c-0.8,0.7-1.8,1.1-2.1,0.9c-0.4-0.4-0.6-0.9-0.7-1.5c-0.1-0.6-0.4-1.2-0.8-1.7c-0.4-0.3-0.9-0.3-1,0.1c-0.2,0.6-0.2,1.2-0.2,1.8
					c0,0.7-0.1,1.3-0.5,1.9c-0.3,0.4-0.8,0.7-1.3,0.8c-0.7-0.1-1.3-0.5-1.6-1.1c-0.4-0.5-0.6-1.1-0.8-1.8c-0.1-0.5-0.4-1-0.9-1.3
					c-0.5-0.4-0.8-0.9-0.7-1.2s-0.7-0.6-1.8-0.6h-0.8c-1.1,0-2.2-0.1-3.3-0.3c-0.8-0.2-1.5-0.7-1.9-1.3c-0.7-0.7-1.6-1.1-2.6-1h-5.2
					c-1.3,0.1-2.5,0.5-3.5,1.3c-0.8,0.8-1.8,1.3-2.9,1.5c-0.9,0.2-1.7,0.8-2.2,1.6c-0.4,0.7-0.7,1.5-0.8,2.4c0,0.5-0.8,1.4-1.8,2
					l-0.9,0.5c-0.9,0.5-1.6,1.3-2,2.2c-0.4,0.9-1.2,1.7-2.1,2.1L19,26.8c-1,0.5-1.9,1.2-2,1.6c0,0.6,0.1,1.2,0.5,1.8
					c0.4,0.6,0.6,1.3,0.6,2c0,0.5,0.7,1.2,1.6,1.5c1,0.3,2,0.3,3,0.1c0.5-0.2,1.1,0.1,1.2,0.7c0,0.1,0,0.2,0,0.3
					c0,0.8,0.3,1.5,0.9,2c0.5,0.4,0.7,1,0.6,1.6c-0.1,0.5,0,0.5,0.4,0s1.2-1.7,1.9-2.6l0-0.1c0.6-0.8,1.4-1.4,2.3-1.6
					c0.6,0,1-0.6,0.9-1.4c-0.1-0.9-0.5-1.6-1.1-2.3c-0.5-0.5-0.4-1.6,0.3-2.5l0.6-0.8c0.7-0.9,1.5-1.6,1.9-1.6s0.7-0.5,0.7-1.2
					c0-0.7,0.2-1.5,0.5-2.1c0.4-0.6,0.8-1.1,1.3-1.6c0.5-0.4,0.8-0.1,0.8,0.5c0,0.7,0.6,1.2,1.2,1.2c0,0,0.1,0,0.1,0v0.1
					c0,0.1-0.5,1.3-0.5,1.3c-0.4,1-1.2,1.8-1.7,1.8s-0.9,0.9-0.9,2c0,1.1,0.2,2.2,0.5,3.2C35,31.4,35.6,32,36,32s1.2,0,1.8-0.1
					s1.4-0.1,1.7-0.1s0.7,0.2,0.7,0.4s-0.5,0.4-1.2,0.4s-1.9-0.1-2.8-0.2l0.5,0.5c0.3,0.3,0.4,0.6,0.4,1c-0.2,1.1-0.4,2.1-0.4,2.3
					s-0.6,0.1-1.4-0.1c-0.9-0.5-1.3-1.4-1.1-2.4c0,0,0.1-0.7-0.2,0.2s-0.8,2.5-0.8,2.5c-0.3,1-0.4,2-0.2,3c0.1,0.6-0.3,1.3-0.9,1.5
					c-1,0.3-2,0.3-2.9,0c-1.2-0.3-2.4-0.4-3.7-0.4h-0.8c-1.1,0-2-0.4-2.1-1c-0.1-0.7-0.3-1.4-0.6-2c-0.3-0.5-0.8-0.9-1.2-0.8
					s-0.7,1-0.7,2c0,1-0.1,2-0.2,3c-0.2,0.7-0.8,1.3-1.6,1.4c-1,0.1-2.1,0-3.1-0.4v0.7c0,0.7-3.5,4.7-3.5,4.7c-0.9,0.9-2,1.6-3.3,2
					l-0.4,0.1c-0.6,0-1.1,0.6-1.1,1.2c0,0.3,0.2,0.6,0.4,0.8l0.4,0.5c0.7,0.8,1.2,1.8,1.4,2.8c0,0.7-0.3,1.2-0.7,1.2
					c-0.5,0-1.1,0.2-1.6,0.5c-0.8,0.4-1.6,0.5-2.5,0.5c-0.9,0-2.2,0-2.9,0.1s-1.2,1-1.2,2.1l-0.1,3c0,1,0.1,2.1,0.3,3.1
					C0.9,66.5,1.5,67,2.3,67H4c0.3,0,0.6,0.2,0.7,0.5c0.1,0.3,0.3,0.7,0.4,1c0.2,0.3,0.6,0.3,0.9,0.1c0.4-0.2,1.2-0.6,2-1h0.8
					c0.4-0.8,0.6-1.7,0.7-2.6c0.1-0.9-0.1-1.8-0.4-2.7l0.5,0.1c0.3,0,0.7,0.1,1,0.1c1,0,1.9-0.3,2.6-1c0.3-0.5,0.6-1,0.6-1.6
					c0-0.4,0.6-1,1.3-1.3c0.7-0.4,1.5-0.6,2.3-0.7c0.5,0,0.5,0,0-0.1h3.7c0.4,0.8,1,1.5,1.7,2l0.5,0.2c0.5,0.2,0.7,1.6,1.3,1.9
					c0.4,0.2,0.8,0.5,1.1,0.8c0.9,0.7,1.7,1.1,1.8,0.9c0.1-0.3,0.1-0.7-0.1-1c-0.5-0.8-1.1-1.5-1.8-2.1c0,0-0.4-0.3-0.7-0.7
					l-0.4-0.4c-0.3-0.7-0.4-1.4-0.4-2.1c0.4-0.8,1-1.5,1.7-2c0,0,0.2-0.2,0.8,1.2s1.7,2.9,2.1,3c0.7,0.4,1.2,0.9,1.6,1.5
					c0.1,0.3,0.1,0.6,0.1,0.6c0.3,1.3,0.3,2.6,0.3,3.8l0.5,0.2c0.5,0.2,1.1,1.4,1.4,1.4h0.3c0.5,0.1,0.8,0.8,0.6,1.6h0.6
					c0.3-0.4,0.7-0.9,0.8-1.2c0.2-0.3,0.4-0.5,0.7-0.7c0.2-0.1,0.1-0.4-0.2-0.6c-0.2-0.1-0.5-0.3-0.7-0.5v-0.8
					c0.1-0.9,0.5-1.6,0.9-1.6c0.4,0,0.8-0.1,1.2-0.3c0.4-0.2,0.9-0.3,1.4-0.2c0,0.1-0.1,0.5,0,0.5c0.4,0.2,0.8,0.3,1.2,0.4
					c0.4,0,0.4,0.1,0.4,0.1v4.2c-0.1,0.5-0.2,1-0.5,1.4l0.5,0.2l0.5,0.2c1-0.1,2.1-0.1,3.1-0.1h2.8c0.5,0,1,0.8,1.3,1.7
					s0.5,2.2,0.6,2.8c0.1,0.5,0.1,1.1-0.2,1.6c-0.5,0.3-1,0.5-1.6,0.4c-0.7,0-0.8,0.7-0.2,1.5c0.6,0.9,1,1.9,1.3,3
					c0.2,0.8,0.5,1.4,0.8,1.4s0.9,0.7,1.3,1.5s1.2,2.4,1.6,3.4v0.1c0.6,1.2,1.3,2.3,2.1,3.3c0.1,0.1,0.2,0.3,0.2,0.5
					c0,0.2,0.3,2.8,0.6,2.8c0.6,0.2,1.1,0.6,1.5,1.2l0.2,0.3c0.2,0.9,0.4,1.9,0.4,2.9c0,0.8,0.1,1.5,0.4,2.2
					c0.6,0.4,1.3,0.6,2.1,0.4l0.2,0.2l0.2,0.2c0.6,0.2,1.1,0.4,1.6,0.7c0.4,0.2,0.8,0.2,1.1,0c0.3-0.2,0.7-0.4,1-0.7
					c0.2-0.2,0.4-0.3,0.6-0.4H66c0.3-0.6,0.8-1.1,1.3-1.4c0.4-0.3,0.6-0.6,0.5-0.8c-0.2-0.2-0.2-0.4,0-0.6c0,0,0,0,0,0
					c0.2-0.2,0.1-0.8-0.2-1.3h0.9c0.5,0.1,1,0.1,1.5,0.1c0.3,0,0.6-0.6,0.6-1.2c0-0.8,0.1-1.6,0.2-2.4h0.9c0.5-0.1,1-0.4,1.3-0.9
					c0.3-0.4,0.5-0.9,0.6-1.4c0-0.3,0-1.3,0-2.2c0-0.9,0.1-1.7,0.3-2.6c0.1-0.4,0.4-0.8,0.8-1.2c0.3-0.2,0.5-0.6,0.6-0.9
					c0.2-0.5,0.4-1,0.6-1.4c0.2-0.4,0.6-1.2,0.8-1.6c0.5-0.6,1.3-1,2.1-0.9c0.9,0,1.7-0.4,2.2-1.2c0.4-0.8,0.9-1.6,1.6-2.3
					c0.6-0.6,0.9-1.3,1.1-2.1c0-0.5,0.8-1.3,1.8-1.8c0,0,1.1-0.5,1.1-1c0-0.2,1.2-0.9,1.2-1.8c0-0.7,0-1,0-1.5v-0.6
					c-0.8,0-2.2,0-3,0c-0.8,0-1.6-0.3-2.3-0.7c-0.4-0.4-0.7-0.3-0.7,0.1s-0.8,1.1-1.8,1.6l-1,0.4c-1,0.4-1.9,1.2-1.9,1.6
					s-0.4,0.8-0.7,0.8c-0.4,0-0.8-0.1-1.2-0.3c-0.7-0.5-1.5-1-2.1-1.6L72.7,69c-0.7-0.7-1.7-1.1-2.7-1.3c-0.7,0-1.3,0.2-1.9,0.6
					c-0.6,0.3-1.3,0.5-1.9,0.3c-0.7-0.2-1.4-0.5-1.9-1c-0.5-0.8-0.8-1.8-0.8-2.8v-0.6c0-1-0.3-2-1-2.8c-0.7-0.8-1.3-1.6-1.7-2.6
					l-0.5-1.1c-0.5-1-1-2.2-1.2-2.6c-0.2-0.6-0.3-1.1-0.3-1.7c0-0.5,0.2-0.9,0.4-0.9s0.2-0.6,0-1.2c-0.2-0.7-0.4-1.5-0.4-2.3
					c0.2-0.9,0.8-1.7,1.5-2.3c1-0.7,2.1-1.2,3.3-1.3c1,0,2,0.1,2.9,0.4c0.5,0.2,1,0.5,1.5,1c0.5,0.4,1.1,0.5,1.7,0.5
					c0.7,0,1.3-0.4,1.5-1c0.1-0.5,0.3-1.3,0.4-1.7c0.2-0.6,0.4-1.1,0.7-1.7c0.4-0.6,1.1-1,1.8-0.9c0.8-0.1,1.5-0.6,1.9-1.3
					c0.7-0.9,1.7-1.4,2.8-1.3h0.7c1.3,0,2.6,0.3,3.9,0.7h0.1l3.1,1.2c0.7,0.3,2,0.8,2.8,1.3s1.6,0.8,1.5,0.8l1.9,0.2
					c0,0,0.8,0.1,1.5,0.1c0.4,0,0.8,0.1,1.1,0.2c0.9,0.5,1.7,1.3,2.2,2.2c0.3,0.7,0.9,1.2,1.3,1.2s0.8,0.3,0.8,0.6s0.6,0.1,1.3-0.5
					c0.7-0.6,1.5-0.9,2.3-1c0.6,0,1.4,0,1.8,0c0.6,0.1,1.2,0.3,1.6,0.8c0.6,0.5,1.4,0.6,2.2,0.4c0.8-0.2,1.4-0.6,1.9-1.2
					c0.3-0.5,0.7-1.1,0.8-1.4s1.2-0.6,2.3-0.7h0.2c0.9-0.1,1.7,0,2.6,0.3c0.4,0.4,0.8,0.9,1,1.5c0.4,0.7,1.1,1.1,1.8,1.1
					c0.8,0,1.4-0.4,1.4-0.8s0.9-0.7,2-0.6l3.3,0.3c1.1,0.1,2,0.4,2,0.6s0.9,0.4,2,0.4h0.7c1.2,0,2.3-0.3,3.3-0.9
					c0.9-0.7,1.7-1.4,2.4-2.2c0.5-0.5,0.8-1.1,1.1-1.7c0-0.2,0.8-0.5,1.8-0.6c1.2,0,2.3,0.4,3.2,1.3l1,1.1c0.8,0.8,2,2.1,2.8,2.9
					c1.2,0.7,2.4,1.3,3.7,1.7c0.3,0.2,0.5,0.4,0.6,0.7c0.3,1,0.6,2,0.8,3c0,0.6-0.4,1.2-1,1.3c-0.6,0.1-1.2,0.4-1.7,0.8
					c-0.3,0.4-0.5,1-0.3,1.5c0.3,0.6,1,1,1.7,1c0.7,0.1,1.4,0,2-0.3c0.6-0.3,1.3-0.4,2-0.4c0.8,0,1.5,0.1,2.2,0.4
					c0.4,0.2,1.3-0.1,1.9-0.8s1.5-1.5,1.9-1.9c0.5-0.5,0.8-1.1,0.8-1.8c0-0.4,0.1-0.9,0.3-1.2c0.2-0.1,0.3,0.7,0.3,1.8v0.5
					c0,1,0.3,1.9,0.9,2.7c0.5,0.4,0.9,0.3,0.9-0.1c0.1-0.6,0.4-1.2,0.8-1.7c0.5-0.6,0.8-1.4,0.8-2.2c0-0.7-0.3-1.3-0.8-1.4
					s-0.8-0.9-0.9-1.8l-0.2-0.8c-0.2-0.8-0.2-1.2-0.2-1.2c-0.2-1.1-0.9-2-1.6-2c-0.7,0-1.4-0.1-2-0.3c-0.5-0.2-0.8-0.6-0.8-0.8
					s-0.1-0.5-0.3-0.5s-0.4,0.2-0.5,0.5s-0.6,0.5-1.1,0.5c-0.5,0-0.9-0.3-1-0.8c-0.1-0.4,0.6-1.3,1.5-1.9c0.5-0.3,0.9-0.7,1.4-1.1
					c0.4-0.4,0.7-0.8,1-1.3c1.2-2.1,3.4-3.4,5.9-3.4h8.3c0.7,0,1.4-0.3,1.9-0.8c0.4-0.4,0.1-1.3-0.7-2.1c0,0-0.4-0.3,2.6-0.3
					s3.2,0.2,3.4,0.3s0.6,0.5,0.8,0.8s-0.1,0.9-0.7,1.5s-1.5,1.6-2.1,2.2c-0.7,0.9-1,2-1.1,3.2l-0.3,6c-0.1,1.1,0.3,1.7,0.7,1.2
					c0.5-0.4,0.6-1,0.5-1.6c-0.2-0.5,0.2-0.9,0.8-0.9c0.8-0.3,1.5-0.9,1.8-1.7c0.4-1.2,0.6-2.4,0.7-3.7v-1c0-1,0.3-2,1-2.8
					c0.7-0.5,1.6-0.8,2.5-0.8c1.2-0.1,2.3-0.3,3.4-0.6l1-0.3c1.2-0.4,2.4-1.1,3.4-1.9l0.1-0.1c0.7-0.7,1.6-1.1,2.6-1.3
					c0.7-0.1,1.4-0.5,1.8-1.2c0.4-0.9,0.7-2,0.7-3c0-0.8,0.5-1.4,1.3-1.4c0.2,0,0.4,0,0.6,0.1l0.5-0.5c0.5-0.5,0.8,0.7,1.3,0.7
					s1.7,1,1.7,1c0.6,0.6,1.4,1.1,2.2,1.4c0.4,0,1.2-0.6,1.9-1.5c0.6-0.8,1.4-1.4,2.3-1.7c1.3-0.4-0.1-1.4-0.1-1.4
					c-0.8-0.6-1.7-1-2.6-1.2c-0.6,0-1.3-0.3-1.8-0.7c-0.4-0.4-0.1-0.3,0.8,0.2l-0.5-0.8c-0.5-0.8-0.6-0.9-0.6-0.9
					c-1-0.3-2-0.7-2.9-1.2c-0.6-0.3-1.1-0.7-1.6-1.2c-0.6-0.5-1.1-1-1.8-1.4c-0.9-0.5-1.9-0.8-3-0.8c-1.2,0.1-2.2,0.7-2.9,1.6
					c-0.4,0.7-1,1.3-1.8,1.8c-0.4,0.1-0.7,0-1-0.2c-0.7-0.4-1.5-0.6-2.3-0.7c0,0-2-0.2-3.2-0.2s-3.1-1.9-3.1-1.9
					c-0.9-0.8-2.2-1.3-3.4-1.4h-2.7c-1.3-0.1-2.5-0.5-3.5-1.2l-0.4-0.3c-1.1-0.8-2.3-1.3-3.6-1.5l-4-0.5c-1.3-0.1-2.6-0.1-3.9,0.2
					l-4.3,1c-1.1,0.2-2.1,0.6-3.1,1.1c-0.6,0.4-1.3,0.4-1.8,0c-0.6-0.5-1.3-0.9-2-1.2c-0.7-0.3-1.3-1-1.3-1.8c0-0.7-0.9-1.2-2-1.2
					h-0.2c-1,0-2,0.2-2.9,0.6c-0.7,0.4-1.5,0.5-2.2,0.5c-0.7,0-1.4-0.2-2.1-0.6c-0.8-0.3-1.6-0.5-2.4-0.5h-6.8
					c-0.5,0-0.9-0.3-1.1-0.8c-0.1-0.3,0-0.6,0.3-0.8c0.1,0,0.2,0,0.3,0c0.7-0.1,1.3-0.4,1.8-0.8c0.7-0.5,1.4-1,2.2-1.4
					c0.6-0.3,1-0.9,1.2-1.6c0-0.5-0.9-1-2-1.2c-0.6-0.1-1.3,0-1.9,0.3c-0.5,0.3-1,0.4-1.5,0.3c-1.1-0.2-2-0.6-2.1-0.9
					c-0.3-0.6-0.8-1.1-1.3-1.5c-0.4-0.2-0.8-0.3-1.2-0.3C123.9,0,123.3,0.1,122.8,0.4"/>
			</defs>
			<clipPath id="SVGID_8_">
				<use xlink:href="#SVGID_7_"  style="overflow:visible;"/>
			</clipPath>
			<g class="st3">
				<rect x="0.3" width="211.9" height="101.6"/>
			</g>
		</g>
		<path d="M5.1,68.4c0.2,0.3,0.6,0.3,0.9,0.1c0.4-0.2,1.2-0.6,2-1h0.8c0.3-0.8,0.6-1.7,0.6-2.5c0.1-0.9-0.1-1.8-0.4-2.7l0.5,0.1
			c0.3,0,0.7,0.1,1,0.1c1,0,1.9-0.3,2.6-1c0.3-0.5,0.6-1,0.6-1.6c0-0.4,0.6-1,1.3-1.3c0.7-0.4,1.5-0.6,2.3-0.7c0.5,0,0.5,0,0-0.1
			h3.7c0.4,0.8,1,1.5,1.7,2l0.5,0.2c0.5,0.2,0.7,1.6,1.3,1.9c0.4,0.2,0.8,0.5,1.1,0.8c0.9,0.7,1.7,1.1,1.8,0.9
			c0.1-0.3,0.1-0.7-0.1-1c-0.5-0.8-1.1-1.5-1.8-2.1c0,0-0.4-0.3-0.7-0.7l-0.4-0.4c-0.3-0.7-0.4-1.4-0.4-2.1c0.4-0.8,1-1.5,1.7-1.9
			c0,0,0.2-0.2,0.9,1.2s1.7,2.9,2.1,3c0.7,0.4,1.2,0.9,1.6,1.5c0.1,0.3,0.1,0.6,0.1,0.6c0.3,1.3,0.3,2.6,0.3,3.8l0.5,0.2
			c0.5,0.2,1.1,1.4,1.4,1.4h0.3c0.5,0.1,0.8,0.8,0.6,1.6h0.6c0.3-0.4,0.7-0.9,0.8-1.2c0.2-0.3,0.4-0.5,0.7-0.7
			c0.2-0.2,0.1-0.4-0.2-0.6c-0.2-0.1-0.5-0.3-0.7-0.5v-0.8c0.1-0.9,0.5-1.6,0.9-1.6c0.4,0,0.8-0.1,1.2-0.3c0.4-0.2,0.9-0.3,1.4-0.2
			l0,0c0,0-0.1,0.6,0,0.6c0.4,0.2,0.8,0.3,1.2,0.4c0.4,0,0.4,0.1,0.4,0.1v4.2c-0.1,0.5-0.2,1-0.5,1.4l0.5,0.2l0.5,0.2
			c1-0.1,2.1-0.1,3.1-0.1h2.8c0.5,0,1,0.8,1.3,1.7s0.5,2.2,0.6,2.8c0.1,0.5,0.1,1.1-0.2,1.6c-0.5,0.3-1,0.5-1.6,0.4
			c-0.7,0-0.8,0.7-0.2,1.5c0.6,0.9,1,1.9,1.3,3c0.2,0.8,0.5,1.4,0.8,1.4s0.9,0.7,1.3,1.5s1.2,2.3,1.6,3.4v0.1
			c0.6,1.2,1.3,2.3,2.1,3.3c0.1,0.1,0.2,0.3,0.2,0.5c0,0.2,0.3,2.8,0.6,2.8c0.6,0.2,1.1,0.6,1.5,1.2l0.2,0.3
			c0.2,0.9,0.4,1.9,0.4,2.9c0,0.8,0.1,1.5,0.4,2.2c0.6,0.4,1.3,0.6,2.1,0.4l0.2,0.2l0.2,0.2c0.6,0.2,1.1,0.4,1.6,0.7
			c0.4,0.2,0.8,0.2,1.1,0c0.3-0.2,0.7-0.4,1-0.7c0.2-0.2,0.4-0.3,0.6-0.4H66c0.3-0.6,0.8-1.1,1.3-1.4c0.4-0.3,0.6-0.6,0.5-0.8
			c-0.2-0.2-0.2-0.4,0-0.6c0,0,0,0,0,0c0.2-0.2,0.1-0.8-0.2-1.3h0.9c0.5,0.1,1,0.1,1.5,0.1c0.3,0,0.6-0.6,0.6-1.2
			c0-0.8,0.1-1.6,0.2-2.4h0.9c0.5-0.1,1-0.4,1.3-0.9c0.3-0.4,0.5-0.9,0.6-1.4c0-0.3,0-1.3,0-2.2c0-0.9,0.1-1.7,0.3-2.6
			c0.2-0.4,0.4-0.8,0.8-1.2c0.3-0.2,0.5-0.5,0.6-0.9c0.2-0.5,0.4-1,0.6-1.4c0.2-0.4,0.6-1.2,0.8-1.6c0.5-0.6,1.3-1,2.1-0.9
			c0.9,0,1.7-0.4,2.2-1.2c0.4-0.8,0.9-1.6,1.6-2.3c0.6-0.6,0.9-1.3,1.1-2.1c0-0.5,0.8-1.3,1.8-1.8c0,0,1.1-0.5,1.1-1
			c0-0.2,1.2-0.9,1.2-1.8c0-0.7,0-1,0-1.5v-0.6c-0.8,0-2.2,0-3,0c-0.8,0-1.6-0.3-2.3-0.7c-0.4-0.4-0.7-0.3-0.7,0.1s-0.8,1.1-1.8,1.6
			l-1,0.4c-1,0.4-1.9,1.2-1.9,1.6s-0.4,0.8-0.7,0.8c-0.4,0-0.8-0.1-1.2-0.3c-0.7-0.5-1.5-1-2.1-1.6L72.7,69
			c-0.7-0.7-1.7-1.1-2.7-1.3c-0.7,0-1.3,0.2-1.9,0.6c-0.6,0.3-1.3,0.5-1.9,0.3c-0.7-0.2-1.4-0.5-1.9-1c-0.5-0.8-0.8-1.8-0.8-2.8
			v-0.6c0-1-0.3-2-1-2.8c-0.7-0.8-1.3-1.6-1.7-2.6l-0.5-1.1c-0.5-1-1-2.2-1.2-2.6c-0.2-0.6-0.3-1.1-0.3-1.7c0-0.5,0.2-0.9,0.4-0.9
			s0.2-0.6,0-1.2c-0.2-0.7-0.4-1.5-0.4-2.3c0.2-0.9,0.8-1.7,1.5-2.3c1-0.7,2.1-1.2,3.3-1.3c1,0,2,0.1,2.9,0.4c0.5,0.2,1,0.5,1.5,1
			c0.5,0.4,1.1,0.5,1.7,0.5c0.7,0,1.3-0.4,1.5-1c0.1-0.5,0.3-1.3,0.4-1.7c0.2-0.6,0.4-1.1,0.7-1.7c0.4-0.6,1.1-1,1.8-0.9
			c0.8-0.1,1.5-0.6,1.9-1.3c0.7-0.9,1.7-1.4,2.8-1.3h0.7c1.3,0,2.6,0.3,3.9,0.7h0.1l3.1,1.2c0.7,0.3,2,0.8,2.8,1.3s1.6,0.8,1.5,0.8
			l1.9,0.2c0,0,0.8,0.1,1.5,0.1c0.4,0,0.8,0.1,1.1,0.3c0.9,0.5,1.7,1.3,2.2,2.2c0.3,0.7,0.9,1.2,1.3,1.2s0.8,0.3,0.8,0.6
			s0.6,0.1,1.3-0.5c0.7-0.6,1.5-0.9,2.3-1c0.6,0,1.4,0,1.8,0c0.6,0.1,1.2,0.3,1.6,0.8c0.6,0.5,1.4,0.6,2.2,0.4
			c0.8-0.2,1.4-0.6,1.9-1.2c0.3-0.5,0.7-1.1,0.8-1.4s1.2-0.6,2.3-0.7h0.2c0.9-0.1,1.7,0,2.6,0.3c0.4,0.4,0.8,0.9,1,1.5
			c0.4,0.7,1.1,1.1,1.8,1.1c0.8,0,1.4-0.4,1.4-0.8s0.9-0.7,2-0.6l3.3,0.3c1.1,0.1,2,0.4,2,0.6s0.9,0.4,2,0.4h0.7
			c1.2,0,2.3-0.3,3.3-0.9c0.9-0.7,1.7-1.4,2.4-2.2c0.5-0.5,0.8-1.1,1.1-1.7c0-0.2,0.8-0.5,1.8-0.6c1.2,0,2.3,0.4,3.2,1.3l1,1.1
			c0.8,0.8,2,2.1,2.8,2.9c1.2,0.7,2.4,1.3,3.7,1.7c0.3,0.2,0.5,0.4,0.6,0.7c0.3,1,0.6,2,0.8,3c0.1,0.6-0.4,1.2-1,1.3
			c-0.6,0.1-1.2,0.4-1.7,0.8c-0.3,0.4-0.5,1-0.3,1.5c0.3,0.6,1,1,1.7,1c0.7,0.1,1.4,0,2-0.3c0.6-0.3,1.3-0.4,2-0.4
			c0.8,0,1.5,0.1,2.2,0.4c0.4,0.2,1.3-0.1,1.9-0.8s1.5-1.5,1.9-1.9c0.5-0.5,0.8-1.1,0.8-1.8c0-0.4,0.1-0.9,0.3-1.2
			c0.2-0.1,0.3,0.7,0.3,1.8v0.5c0,1,0.3,1.9,0.9,2.7c0.5,0.4,0.9,0.3,0.9-0.1c0.1-0.6,0.4-1.2,0.8-1.7c0.5-0.6,0.8-1.4,0.8-2.2
			c0-0.7-0.3-1.3-0.8-1.4s-0.8-0.9-0.9-1.8l-0.2-0.8c-0.2-0.8-0.2-1.2-0.2-1.2c-0.2-1.1-0.9-2-1.6-2c-0.7,0-1.4-0.1-2-0.3
			c-0.5-0.2-0.8-0.6-0.8-0.8s-0.1-0.5-0.3-0.5s-0.4,0.2-0.5,0.5s-0.6,0.5-1.1,0.5c-0.5,0-0.9-0.3-1-0.8c-0.1-0.4,0.6-1.3,1.5-1.9
			c0.5-0.3,0.9-0.7,1.4-1.1c0.4-0.4,0.7-0.8,1-1.3c1.2-2.1,3.4-3.4,5.9-3.4h8.3c0.7,0,1.4-0.3,1.9-0.8c0.4-0.4,0.1-1.3-0.7-2.1
			c0,0-0.4-0.3,2.6-0.3s3.2,0.2,3.4,0.3s0.6,0.5,0.8,0.8s-0.1,0.9-0.7,1.5s-1.5,1.6-2.1,2.2c-0.7,0.9-1,2-1.1,3.2l-0.3,6
			c-0.1,1.1,0.3,1.7,0.7,1.2c0.5-0.4,0.6-1,0.5-1.6c-0.2-0.5,0.2-0.9,0.8-0.9c0.8-0.3,1.5-0.9,1.8-1.7c0.4-1.2,0.6-2.4,0.7-3.7v-1
			c0-1,0.3-2,1-2.8c0.7-0.5,1.6-0.8,2.5-0.8c1.2-0.1,2.3-0.3,3.4-0.6l1-0.3c1.2-0.4,2.4-1.1,3.4-1.9l0.1-0.1
			c0.7-0.7,1.6-1.1,2.6-1.3c0.7-0.1,1.4-0.5,1.8-1.2c0.4-0.9,0.7-2,0.7-3c0-0.8,0.5-1.4,1.3-1.4c0.2,0,0.4,0,0.6,0.1l0.5-0.5
			c0.5-0.5,0.8,0.7,1.3,0.7s1.7,1,1.7,1c0.6,0.6,1.4,1.1,2.2,1.4c0.4,0,1.2-0.6,1.9-1.5c0.6-0.8,1.4-1.4,2.3-1.7
			c1.3-0.4-0.1-1.4-0.1-1.4c-0.8-0.6-1.7-1-2.6-1.2c-0.6,0-1.3-0.3-1.8-0.7c-0.4-0.4-0.1-0.3,0.8,0.2l-0.5-0.8
			c-0.5-0.8-0.6-0.9-0.6-0.9c-1-0.3-2-0.7-2.9-1.2c-0.6-0.3-1.1-0.7-1.6-1.2c-0.6-0.5-1.1-1-1.8-1.4c-0.9-0.5-1.9-0.8-3-0.8
			c-1.2,0.1-2.2,0.7-2.9,1.6c-0.4,0.7-1,1.3-1.8,1.8c-0.4,0.1-0.7,0-1-0.2c-0.7-0.4-1.5-0.6-2.3-0.7c0,0-2-0.3-3.2-0.3
			s-3.1-1.9-3.1-1.9c-0.9-0.8-2.2-1.3-3.4-1.4h-2.7c-1.3-0.1-2.5-0.5-3.5-1.2l-0.4-0.3c-1.1-0.8-2.3-1.3-3.6-1.5l-4-0.5
			c-1.3-0.1-2.6-0.1-3.9,0.2l-4.3,1c-1.1,0.2-2.1,0.6-3.1,1.1c-0.6,0.4-1.3,0.4-1.8,0c-0.6-0.5-1.3-0.9-2-1.2
			c-0.7-0.3-1.3-1-1.3-1.8c0-0.7-0.9-1.2-2-1.2h-0.2c-1,0-2,0.2-2.9,0.6c-0.7,0.4-1.5,0.5-2.2,0.5c-0.7,0-1.4-0.2-2.1-0.6
			c-0.8-0.4-1.6-0.5-2.4-0.5h-6.8c-0.5,0-0.9-0.3-1.1-0.8c-0.1-0.3,0-0.6,0.3-0.8c0.1,0,0.2,0,0.3,0c0.7-0.1,1.3-0.4,1.8-0.8
			c0.7-0.5,1.4-1,2.2-1.4c0.6-0.3,1-0.9,1.2-1.6c0-0.5-0.9-1-2-1.2c-0.6-0.1-1.3,0-1.9,0.3c-0.4,0.3-1,0.4-1.5,0.3
			c-1.1-0.2-2-0.6-2.1-0.9c-0.3-0.6-0.8-1.1-1.3-1.5c-0.9-0.5-2-0.4-2.9,0.1l-1,0.5c-1.2,0.6-2.5,1-3.8,1.1l-1.2,0.1
			c-1.1,0.1-2.4,0.1-2.9,0.1S113,2.6,113,2.9s-0.7,0.6-1.6,0.6h-2.3c-0.4,0-0.8,0.2-0.8,0.5s-0.4,0.5-0.9,0.5
			c-0.6,0-1.1,0.3-1.4,0.8c-0.3,0.4-0.5,0.8-0.7,1.3c-0.1,0.3-1.1,0.5-2.2,0.5h-2c-1-0.1-1.9,0.3-2.6,1c-0.3,0.5-0.4,1.1-0.1,1.6
			c0.3,0.3,0.4,0.7,0.3,1.1c-0.1,0.2-0.6,0.1-1.1-0.2c-0.5-0.4-1.2-0.6-1.8-0.6c-0.8,0.2-1.5,0.6-2,1.2c-0.5,0.5-1.1,1.1-1.5,1.8
			c-0.2,0.4-0.4,0.9-0.4,1.4c0,0.4,0.3,0.8,0.8,0.9c0.4,0.1,0.7,0.5,0.7,0.9c-0.1,0.5-0.3,1-0.5,1.5c-0.3,0.5-0.8,1-1.2,1.3
			c-0.5,0.3-1.1-0.1-1.4-1s-0.7-2-0.9-2.5c-0.2-0.7-0.3-1.4-0.2-2.1c0-1-0.2-2-0.6-2.9c-0.4-1-1.2-1.7-1.8-1.6
			C86.2,9,85.7,9.4,85.5,10c-0.2,0.6-0.6,1.2-1.2,1.6c-0.5,0.3-0.7,0.9-0.5,1.5c0.3,0.7,0.6,1.3,1.1,1.9c0.4,0.4,0.6,1.1,0.5,1.7
			c-0.1,0.4-0.6,0.3-0.9-0.2c-0.3-0.5-0.8-0.9-1.3-1.2c-0.5-0.2-1-0.3-1.6-0.4c-0.5-0.1-1-0.3-1.5-0.6c-0.8-0.3-1.7-0.5-2.6-0.4
			c-1.1,0-1.9,0.4-1.8,0.9s-0.4,1.1-1.2,1.4c-0.8,0.3-1.6,0.5-2.4,0.5c-0.6,0-1.2-0.2-1.8-0.5c-0.6-0.3-1.2-0.5-1.8-0.6
			c-1,0.1-1.9,0.5-2.7,1.2l-2,1.7c-0.8,0.7-1.8,1.1-2.1,0.9c-0.4-0.4-0.6-0.9-0.7-1.5c-0.1-0.6-0.4-1.2-0.8-1.7
			c-0.4-0.3-0.9-0.3-1,0.1c-0.2,0.6-0.2,1.2-0.2,1.8c0,0.6-0.2,1.3-0.5,1.8c-0.3,0.4-0.8,0.7-1.3,0.8c-0.7-0.1-1.3-0.5-1.6-1.1
			c-0.4-0.5-0.6-1.1-0.8-1.8c-0.1-0.5-0.4-0.9-0.8-1.2c-0.5-0.4-0.8-0.9-0.7-1.2s-0.7-0.6-1.8-0.6h-0.8c-1.1,0-2.2-0.1-3.3-0.3
			c-0.8-0.2-1.5-0.7-1.9-1.3c-0.7-0.7-1.6-1.1-2.6-1h-5.2c-1.3,0.1-2.5,0.5-3.5,1.3c-0.8,0.8-1.8,1.3-2.9,1.5
			c-0.9,0.2-1.7,0.8-2.2,1.6c-0.4,0.7-0.7,1.5-0.8,2.4c0,0.5-0.8,1.4-1.8,2l-0.9,0.5c-0.9,0.5-1.6,1.3-2,2.2
			c-0.4,0.9-1.2,1.7-2.1,2.1L19,26.8c-1,0.5-1.9,1.2-2,1.6c0,0.6,0.1,1.2,0.5,1.8c0.4,0.6,0.6,1.3,0.6,2c0,0.5,0.7,1.2,1.6,1.5
			c1,0.3,2,0.3,3,0.1c0.5-0.2,1.1,0.1,1.2,0.7c0,0.1,0,0.2,0,0.3c0,0.8,0.3,1.5,0.9,2c0.5,0.4,0.7,1,0.6,1.6c-0.1,0.5,0,0.5,0.4,0
			s1.2-1.7,1.9-2.6l0-0.1c0.6-0.8,1.4-1.4,2.3-1.6c0.6,0,1-0.6,0.9-1.4c-0.1-0.9-0.5-1.7-1.1-2.3c-0.5-0.5-0.4-1.6,0.3-2.5l0.6-0.8
			c0.7-0.9,1.5-1.6,1.9-1.6s0.7-0.5,0.7-1.2c0-0.7,0.2-1.5,0.5-2.1c0.4-0.6,0.8-1.1,1.3-1.6c0.5-0.4,0.8-0.1,0.8,0.5
			c0,0.7,0.6,1.2,1.2,1.2c0,0,0.1,0,0.1,0v0.1c0,0.1-0.5,1.3-0.5,1.3c-0.4,1-1.2,1.8-1.7,1.8s-0.9,0.9-0.9,2c0,1.1,0.2,2.2,0.5,3.2
			C35,31.4,35.6,32,36,32s1.2,0,1.8-0.1s1.4-0.1,1.7-0.1s0.7,0.2,0.7,0.4s-0.5,0.4-1.1,0.4s-1.9-0.1-2.8-0.2l0.5,0.5
			c0.3,0.3,0.4,0.6,0.4,1c-0.2,1.1-0.4,2.1-0.4,2.3s-0.6,0.1-1.4-0.1c-0.9-0.5-1.3-1.4-1.1-2.4c0,0,0.1-0.7-0.2,0.2
			s-0.8,2.5-0.8,2.5c-0.3,1-0.4,2-0.2,3c0.1,0.6-0.3,1.3-0.9,1.5c-1,0.3-2,0.3-2.9,0c-1.2-0.3-2.4-0.4-3.7-0.4h-0.8
			c-1.1,0-2-0.4-2.1-1c-0.1-0.7-0.3-1.4-0.6-2c-0.3-0.5-0.8-0.9-1.2-0.8s-0.7,1-0.7,2c0,1-0.1,2-0.2,3c-0.2,0.7-0.8,1.3-1.6,1.4
			c-1,0.1-2.1,0-3.1-0.4v0.7c0,0.7-3.5,4.7-3.5,4.7c-0.9,0.9-2,1.6-3.3,2l-0.4,0.1c-0.6,0-1.1,0.6-1.1,1.2c0,0.3,0.2,0.6,0.4,0.8
			l0.4,0.5c0.7,0.8,1.1,1.8,1.4,2.8c0,0.7-0.3,1.2-0.7,1.2c-0.5,0-1.1,0.2-1.6,0.5c-0.8,0.4-1.6,0.5-2.5,0.5c-0.9,0-2.2,0-2.9,0.1
			s-1.2,1-1.2,2.1l-0.1,3c0,1,0.1,2.1,0.3,3.1C0.9,66.5,1.5,67,2.3,67H4c0.3,0,0.6,0.2,0.7,0.5C4.8,67.8,4.9,68.1,5.1,68.4z"/>
	</g>
</g>
</svg>
