<?xml version="1.0" encoding="utf-8"?>
<!-- Generator: Adobe Illustrator 25.0.0, SVG Export Plug-In . SVG Version: 6.00 Build 0)  -->
<svg version="1.1" id="Layer_1" xmlns="http://www.w3.org/2000/svg" xmlns:xlink="http://www.w3.org/1999/xlink" x="0px" y="0px"
	 viewBox="0 0 119.8 143.7" style="enable-background:new 0 0 119.8 143.7;" xml:space="preserve">
<style type="text/css">
	.st0{clip-path:url(#SVGID_2_);}
	.st1{clip-path:url(#SVGID_4_);}
	.st2{clip-path:url(#SVGID_6_);}
	.st3{clip-path:url(#SVGID_8_);}
	.st4{clip-path:url(#SVGID_10_);}
	.st5{clip-path:url(#SVGID_12_);}
	.st6{clip-path:url(#SVGID_14_);}
	.st7{clip-path:url(#SVGID_16_);}
	.st8{clip-path:url(#SVGID_18_);}
	.st9{clip-path:url(#SVGID_20_);}
	.st10{clip-path:url(#SVGID_22_);}
</style>
<g id="Layer_2_1_">
	<g id="Layer_1-2">
		<path d="M51.8,18.7c-0.2,0-2.3,0.7-2.3,0.7l-0.3,0.8l-0.7,1.5h-1.1l0.4,0.9l1,0.7l1.6,0.9h1.9l0.8-0.5L53,22.1l0.4-0.4h1.4v0.9
			l0.6,0.8l0.8,0.8l0.4,1.2l2.4-0.3l0.8,0.8l-0.3,1.1l-1.9,0.1l-0.5,2.3L55,29.9l-0.1-1.1h-2.1L52.5,28L49,27.8L48.2,27L47,27.1
			l-0.7-0.7l-1.9,0.1l-0.1,1.4l-1.5,0.4l-0.1,0.6h-1.8l-0.2-1l-0.7-0.1l0.2,0.5l-2,1.5H36l-0.2-1l-3.1,0.2l-0.7-0.7l-1.3-1h-3.5
			v-0.8H25l-0.3-0.8l-7.9-0.2l-2.9-0.8h-2.4l-1.1,0.8H8.8l-2.1,1.3l-1.5,2.1l-0.8,2.6l1.3,1.5l0.5,0.8H0L1,35l1.3,2.1h4.1v1.1
			l-1,0.8l-2.3,1.2l-0.8,1.3h1v2l2,0.8h1.2l1,1.8h1.3L9.6,48l-1.1,2.1l-2,1.5L7.7,53v-1.3l1.8-0.3l1.6-0.2v-1.6l1.3-0.3h0.6l0.8,1.8
			h2v-1.3l-2-1.5l2.3-4h10.7l4.7,3.7h3.7v3.7l1.3-2.3l1.7,3.3l3,3.7l1.7,4l2.3,1.3V65h4.7l-1,3c-1,3,0.3,14,1.7,15s7,9.7,7,9.7l4,8
			l0.3,0.9h0.8l0.1-0.6v-1.1c0-0.5,0-1.1-0.1-1.6c-0.2-0.5-0.3-0.9-0.3-1.4v-3c0-0.3,0.8,1.2,0.8,1.2l0.8,0.8l1.9,2l0.4,0.6l2.4,4.9
			c0.1,0.3,0.2,0.7,0.2,1l-0.7,0.5l0.1,1.3l2.2,1.8c0,0,0.6,0.6,0.6,1c-0.1,0.5-0.3,0.9-0.5,1.3l0.4,0.5h5.9l1.8,1.3c0,0,1,1,1,1.2
			s1.6,1,1.6,1l2.7,0.1c0.2,0.5,0.3,0.9,0.4,1.4v2c0,0.5,1.7,1.7,1.9,1.8c0.5,0.3,0.9,0.5,1.3,0.8h1.6l0.4-0.3l-1.1-1.6
			c0,0,0.7-5.8,0.7-6.6c0-0.4-0.3-0.8-0.7-0.8l-0.5-0.6c0,0,0.2-5.1,0.1-5.6c-0.1-0.5-0.1-1.1-0.1-1.6c0,0-1.3,0.9-1.5,1.1
			s-1.8,0.9-2,1.3s-0.7,0.5-0.9,0.8c-0.1,0.5-0.2,1.1-0.1,1.6c0,0.2-1.4,0.8-1.6,0.8c-0.3,0-0.6,0-0.9,0h-1.2l-0.4-0.8h-1.1l-1-1.1
			l-0.3-1.6H76l-0.3-1.3c0,0,0.2-2.8,0.2-3.7v-1.9l1.1-3.8l1.4-0.2l0.6-1.6l0.5,0.2l4.7,1l1.9-0.3v-1.6l3.5,1.2l1,0.1l0.6,0.8
			c0,0,0.2,1.8,0.2,2.4s2.6,2.6,2.6,2.6l1.5-0.1l0.2-2.5l-0.8-0.9v-3.7l1-2.2l1-3.1l2.4-0.9l-0.6-3.7l2.2-1.8l0.3-3.2l1.3-0.6
			l1.6-0.3c0,0,0.4-1.4,0.4-1.6s0.8-0.8,0.8-0.8l1.3,0.7l0.4,1l1,0.1h0.6c0.2,0,0.4-0.1,0.6-0.1l0.6-0.5c-0.3-0.5-0.7-1-1.1-1.3
			c-0.4-0.2-0.3-0.8-0.3-0.8c0-0.8-0.1-1.5-0.3-2.2c-0.3-0.3,0.5-0.8,0.5-0.8l0.8,1.6l0.6,1.5l2-0.1h1.4l1.2-1.3l1.8-1.8h-2.7
			l0.8-1.3l-2.4-0.1c-0.2-0.4-0.3-0.9-0.4-1.3c0-0.2,0.2-1.5,0.2-1.5s-1.5,0.2-1.9,0.2s-0.2,0.3-0.2,0.3l-2.2,0.6l-0.1-2.2l1.3-0.2
			l1.2-0.7l4-0.6l2.7-0.2l2-2.2l1.2-2.3c0,0-1.1-1.7-2.4-1.7s-2.9-2.5-2.9-2.5l-2-3.1l-1.4-4.1l-1-0.4c0,0-1.5,0.3-1.7,0.3
			s-0.7,1.5-0.7,1.5l-0.3,0.7l-1.3,0.3l-1-0.4v-1.8l-0.8-2.3c0,0-1.6,0.1-1.8,0.1s-0.3-1.7-0.3-1.7s-1.3,0.3-1.5,0.3h-2.4v-1.4
			L97,42.3l-1,0.8L95.8,47l-1.1-0.1l0.5,2.8l1.6,0.3l0.4,2.7l-1,2.2l-1.8,1.5l-0.1,4.1l-1.2-0.2l-1.5-0.8L91.1,56
			c-0.5-0.4-1.1-0.8-1.8-1.1c-0.3,0-2.4,0.5-2.4,0.5l-1.1-2.2l-1.7-1.8h-4l-0.8-1.8c0,0-1-1-1.3-1s-1.3-0.2-1.3-0.2l-0.1-1l0.8,0.3
			l1.1-2.6l0.3-1l0.6-1.6l2.7-1.2l0.8-2h1.3l1-0.3l-0.3-1.5c0.5-0.1,0.9-0.2,1.3-0.5c0.7-0.4,0.8,0.5,0.8,0.5c0,0.3,0,0.6-0.1,0.9
			c-0.1,0.4-0.1,0.9-0.1,1.3l0.1,0.6l1.5,0.5l3.4-0.3h1.2l1-1l-1.6-0.1c-0.6-0.7-1.3-1.4-2.1-2c-0.4-0.1-0.8-0.2-1.2-0.4l0.6-1l2-1
			l0.5-1.3l1-2.2h1.1l0.6-0.4l0.3-0.5l-0.3-0.6h-2c-0.5,0-0.8-1.3-0.8-1.3l0.7-1.2l1.9-0.5l2.7,1.3l2.2,0.8l2,1.2l0.6,0.9
			c-0.2,0.4-0.4,0.7-0.6,1.1c-0.1,0.3-0.4,1.5-0.4,1.5l-0.3,1.8l-0.8,1.8h-1.7l-0.1-0.4h-0.5l-0.3,0.8l0.1,0.6l3.1,0.2l1.2,0.8
			l0.3,1.4l3,1.8l0.5,1.3l1,0.4l0.5-2.2h2.5l1.3-1.2l-0.8-1c0,0-1.5-1.8-2-2s-0.2-0.6-0.2-0.6l0.3-1l0.5,0.6c0.6,0.7,1.3,1.4,2,2
			c0.7,0.5,0.8-0.3,0.8-0.3c0.5-0.7,1-1.4,1.5-2c0.2-0.1,1.3-0.6,1.3-0.6v-1.8H112c-0.4,0-0.6-1.3-0.6-1.3h-1l-3.4-0.7l-0.1-1
			l1.5-0.9l-0.4-3.4l-1.5-1.7l-4.5-0.4c0,0-3.7-3-4.6-3h-3.4l-0.7-1l-0.7-0.1v0.7l-1.3,0.5v1.4l-0.3,1.2c-0.3,0.1-0.6,0.1-0.9,0.1
			c-0.2,0-0.2-1.1-0.2-1.1l0.1-1.6h-1.2l-0.1-1.3h-1.2c-0.2,0.3-0.4,0.7-0.6,1c-0.1,0.7-0.2,1.3-0.2,2c0,0.4,0,0.7,0,1.1
			c0.4,0.3,0.7,0.8,0.8,1.3c0.2,0.8,0.6,0.5,0.6,0.5l1.1,0.4l0.5,1l1,0.1c0.1,0.4,0.2,0.8,0.3,1.2c0,0.2-0.7,1-1.1,1s0,0.5,0,0.9
			S89,31.4,89,31.4l-1.2,0.2l-1.3-2l-2.9-0.1l-0.3-1.1l-1.4-2.1v-1.4l-1.1-0.3l-0.5-0.8l0.8-0.8l1.3-0.6l1.8-0.6v-0.8c0,0-0.8-1-1-1
			s-2.7,0.6-2.7,0.6l-1.7,0.7l0.3,2.6v3.5l0.8,1.8l1.1,0.7l-0.3,0.9L80,31.3l-1.6,0.1V30c0-0.4-0.3-0.5-0.6-0.8
			c-0.2-0.2-0.4-0.3-0.6-0.4c0,0-0.9,0.4-1.1,0.6s-0.4,0.8-0.4,0.8l0.4,0.4l0.8,0.1v0.8L76,31.3l-2.4,0.3l-0.3,0.9
			c0,0-1.3-0.1-1.5-0.8s-0.1-0.7-0.1-0.7s-1.5-0.4-1.7-0.4s0,0.8,0,0.8h-2.3c-0.6,0-1.6,0.1-1.6,0.1l-1.5,0.8l-0.4,1.5l-0.4-0.3
			l-1.1-1c0,0-0.9-1-1.2-1s-0.3,1-0.3,1h-3.3c-0.3,0-0.1-1-0.1-1l1.7-0.9l0.5-0.4h1.5l0.3,0.2l0.3,0.4c0,0,0.7,0.4,0.8,0.6s1,0,1,0
			l0.4-0.2l0.3-0.4l0.8-1.3h4l1.1,0.4l0.5,0.4l0.7-0.5l0.6-0.8v-2.7l-2.9-2.8L69,20.5l-1.1-0.1v1.3l-1.4,0.2v1.1l-1,0.6l-1-2
			l-6.2-0.4h-1.7c-0.2,0-0.2-0.8-0.2-0.8l0.6-0.9l-0.4-0.4l-1.1-0.6L51.8,18.7z"/>
		<g>
			<defs>
				<path id="SVGID_1_" d="M51.8,18.7c-0.2,0-2.3,0.7-2.3,0.7l-0.3,0.8l-0.7,1.5h-1.1l0.4,0.9l1,0.7l1.6,0.9h1.9l0.8-0.5L53,22.1
					l0.4-0.4h1.4v0.9l0.6,0.8l0.8,0.8l0.4,1.2l2.4-0.3l0.8,0.8l-0.3,1.1l-1.9,0.1l-0.5,2.3L55,29.9l-0.1-1.1h-2.1L52.5,28L49,27.8
					L48.2,27L47,27.1l-0.7-0.7l-1.9,0.1l-0.1,1.4l-1.5,0.4l-0.1,0.6h-1.8l-0.2-1l-0.7-0.1l0.2,0.5l-2,1.5H36l-0.2-1l-3.1,0.2
					l-0.7-0.7l-1.3-1h-3.5v-0.8H25l-0.3-0.8l-7.9-0.2l-2.9-0.8h-2.4l-1.1,0.8H8.8l-2.1,1.3l-1.5,2.1l-0.8,2.6l1.3,1.5l0.5,0.8H0
					L1,35l1.3,2.1h4.1v1.1l-1,0.8l-2.3,1.2l-0.8,1.3h1v2l2,0.8h1.2l1,1.8h1.3L9.6,48l-1.1,2.1l-2,1.5L7.7,53v-1.3l1.8-0.3l1.6-0.2
					v-1.6l1.3-0.3h0.6l0.8,1.8h2v-1.3l-2-1.5l2.3-4h10.7l4.7,3.7h3.7v3.7l1.3-2.3l1.7,3.3l3,3.7l1.7,4l2.3,1.3V65h4.7l-1,3
					c-1,3,0.3,14,1.7,15s7,9.7,7,9.7l4,8l0.3,0.9h0.8l0.1-0.6v-1.1c0-0.5,0-1.1-0.1-1.6c-0.2-0.5-0.3-0.9-0.3-1.4v-3
					c0-0.3,0.8,1.2,0.8,1.2l0.8,0.8l1.9,2l0.4,0.6l2.4,4.9c0.1,0.3,0.2,0.7,0.2,1l-0.7,0.5l0.1,1.3l2.2,1.8c0,0,0.6,0.6,0.6,1
					c-0.1,0.5-0.3,0.9-0.5,1.3l0.4,0.5h5.9l1.8,1.3c0,0,1,1,1,1.2s1.6,1,1.6,1l2.7,0.1c0.2,0.5,0.3,0.9,0.4,1.4v2
					c0,0.5,1.7,1.7,1.9,1.8c0.5,0.3,0.9,0.5,1.3,0.8h1.6l0.4-0.3l-1.1-1.6c0,0,0.7-5.8,0.7-6.6c0-0.4-0.3-0.8-0.7-0.8l-0.5-0.6
					c0,0,0.2-5.1,0.1-5.6c-0.1-0.5-0.1-1.1-0.1-1.6c0,0-1.3,0.9-1.5,1.1s-1.8,0.9-2,1.3s-0.7,0.5-0.9,0.8c-0.1,0.5-0.2,1.1-0.1,1.6
					c0,0.2-1.4,0.8-1.6,0.8c-0.3,0-0.6,0-0.9,0h-1.2l-0.4-0.8h-1.1l-1-1.1l-0.3-1.6H76l-0.3-1.3c0,0,0.2-2.8,0.2-3.7v-1.9l1.1-3.8
					l1.4-0.2l0.6-1.6l0.5,0.2l4.7,1l1.9-0.3v-1.6l3.5,1.2l1,0.1l0.6,0.8c0,0,0.2,1.8,0.2,2.4s2.6,2.6,2.6,2.6l1.5-0.1l0.2-2.5
					l-0.8-0.9v-3.7l1-2.2l1-3.1l2.4-0.9l-0.6-3.7l2.2-1.8l0.3-3.2l1.3-0.6l1.6-0.3c0,0,0.4-1.4,0.4-1.6s0.8-0.8,0.8-0.8l1.3,0.7
					l0.4,1l1,0.1h0.6c0.2,0,0.4-0.1,0.6-0.1l0.6-0.5c-0.3-0.5-0.7-1-1.1-1.3c-0.4-0.2-0.3-0.8-0.3-0.8c0-0.8-0.1-1.5-0.3-2.2
					c-0.3-0.3,0.5-0.8,0.5-0.8l0.8,1.6l0.6,1.5l2-0.1h1.4l1.2-1.3l1.8-1.8h-2.7l0.8-1.3l-2.4-0.1c-0.2-0.4-0.3-0.9-0.4-1.3
					c0-0.2,0.2-1.5,0.2-1.5s-1.5,0.2-1.9,0.2s-0.2,0.3-0.2,0.3l-2.2,0.6l-0.1-2.2l1.3-0.2l1.2-0.7l4-0.6l2.7-0.2l2-2.2l1.2-2.3
					c0,0-1.1-1.7-2.4-1.7s-2.9-2.5-2.9-2.5l-2-3.1l-1.4-4.1l-1-0.4c0,0-1.5,0.3-1.7,0.3s-0.7,1.5-0.7,1.5l-0.3,0.7l-1.3,0.3l-1-0.4
					v-1.8l-0.8-2.3c0,0-1.6,0.1-1.8,0.1s-0.3-1.7-0.3-1.7s-1.3,0.3-1.5,0.3h-2.4v-1.4L97,42.3l-1,0.8L95.8,47l-1.1-0.1l0.5,2.8
					l1.6,0.3l0.4,2.7l-1,2.2l-1.8,1.5l-0.1,4.1l-1.2-0.2l-1.5-0.8L91.1,56c-0.5-0.4-1.1-0.8-1.8-1.1c-0.3,0-2.4,0.5-2.4,0.5
					l-1.1-2.2l-1.7-1.8h-4l-0.8-1.8c0,0-1-1-1.3-1s-1.3-0.2-1.3-0.2l-0.1-1l0.8,0.3l1.1-2.6l0.3-1l0.6-1.6l2.7-1.2l0.8-2h1.3l1-0.3
					l-0.3-1.5c0.5-0.1,0.9-0.2,1.3-0.5c0.7-0.4,0.8,0.5,0.8,0.5c0,0.3,0,0.6-0.1,0.9c-0.1,0.4-0.1,0.9-0.1,1.3l0.1,0.6l1.5,0.5
					l3.4-0.3h1.2l1-1l-1.6-0.1c-0.6-0.7-1.3-1.4-2.1-2c-0.4-0.1-0.8-0.2-1.2-0.4l0.6-1l2-1l0.5-1.3l1-2.2h1.1l0.6-0.4l0.3-0.5
					l-0.3-0.6h-2c-0.5,0-0.8-1.3-0.8-1.3l0.7-1.2l1.9-0.5l2.7,1.3l2.2,0.8l2,1.2l0.6,0.9c-0.2,0.4-0.4,0.7-0.6,1.1
					c-0.1,0.3-0.4,1.5-0.4,1.5l-0.3,1.8l-0.8,1.8h-1.7l-0.1-0.4h-0.5l-0.3,0.8l0.1,0.6l3.1,0.2l1.2,0.8l0.3,1.4l3,1.8l0.5,1.3l1,0.4
					l0.5-2.2h2.5l1.3-1.2l-0.8-1c0,0-1.5-1.8-2-2s-0.2-0.6-0.2-0.6l0.3-1l0.5,0.6c0.6,0.7,1.3,1.4,2,2c0.7,0.5,0.8-0.3,0.8-0.3
					c0.5-0.7,1-1.4,1.5-2c0.2-0.1,1.3-0.6,1.3-0.6v-1.8H112c-0.4,0-0.6-1.3-0.6-1.3h-1l-3.4-0.7l-0.1-1l1.5-0.9l-0.4-3.4l-1.5-1.7
					l-4.5-0.4c0,0-3.7-3-4.6-3h-3.4l-0.7-1l-0.7-0.1v0.7l-1.3,0.5v1.4l-0.3,1.2c-0.3,0.1-0.6,0.1-0.9,0.1c-0.2,0-0.2-1.1-0.2-1.1
					l0.1-1.6h-1.2l-0.1-1.3h-1.2c-0.2,0.3-0.4,0.7-0.6,1c-0.1,0.7-0.2,1.3-0.2,2c0,0.4,0,0.7,0,1.1c0.4,0.3,0.7,0.8,0.8,1.3
					c0.2,0.8,0.6,0.5,0.6,0.5l1.1,0.4l0.5,1l1,0.1c0.1,0.4,0.2,0.8,0.3,1.2c0,0.2-0.7,1-1.1,1s0,0.5,0,0.9S89,31.4,89,31.4l-1.2,0.2
					l-1.3-2l-2.9-0.1l-0.3-1.1l-1.4-2.1v-1.4l-1.1-0.3l-0.5-0.8l0.8-0.8l1.3-0.6l1.8-0.6v-0.8c0,0-0.8-1-1-1s-2.7,0.6-2.7,0.6
					l-1.7,0.7l0.3,2.6v3.5l0.8,1.8l1.1,0.7l-0.3,0.9L80,31.3l-1.6,0.1V30c0-0.4-0.3-0.5-0.6-0.8c-0.2-0.2-0.4-0.3-0.6-0.4
					c0,0-0.9,0.4-1.1,0.6s-0.4,0.8-0.4,0.8l0.4,0.4l0.8,0.1v0.8L76,31.3l-2.4,0.3l-0.3,0.9c0,0-1.3-0.1-1.5-0.8s-0.1-0.7-0.1-0.7
					s-1.5-0.4-1.7-0.4s0,0.8,0,0.8h-2.3c-0.6,0-1.6,0.1-1.6,0.1l-1.5,0.8l-0.4,1.5l-0.4-0.3l-1.1-1c0,0-0.9-1-1.2-1s-0.3,1-0.3,1
					h-3.3c-0.3,0-0.1-1-0.1-1l1.7-0.9l0.5-0.4h1.5l0.3,0.2l0.3,0.4c0,0,0.7,0.4,0.8,0.6s1,0,1,0l0.4-0.2l0.3-0.4l0.8-1.3h4l1.1,0.4
					l0.5,0.4l0.7-0.5l0.6-0.8v-2.7l-2.9-2.8L69,20.5l-1.1-0.1v1.3l-1.4,0.2v1.1l-1,0.6l-1-2l-6.2-0.4h-1.7c-0.2,0-0.2-0.8-0.2-0.8
					l0.6-0.9l-0.4-0.4l-1.1-0.6L51.8,18.7z"/>
			</defs>
			<clipPath id="SVGID_2_">
				<use xlink:href="#SVGID_1_"  style="overflow:visible;"/>
			</clipPath>
			<g class="st0">
				<rect y="18.7" width="119.8" height="101.6"/>
			</g>
		</g>
		<path d="M61.5,100.7l-4-8c0,0-5.7-8.7-7-9.7s-2.7-12-1.7-15l1-3h-4.7v-3.3l-2.3-1.3l-1.7-4l-3-3.7l-1.7-3.3l-1.3,2.3V48h-3.7
			l-4.7-3.7H16.2l-2.3,4l2,1.5v1.3h-2l-0.8-1.8h-0.6l-1.3,0.3v1.6l-1.6,0.2l-1.8,0.3V53l-1.2-1.4l2-1.5L9.6,48l-0.8-1.8H7.5l-1-1.8
			H5.2l-2-0.8v-2h-1L3,40.3l2.4-1.1l1-0.8v-1.1H2.3L1,35l-1-1.3h6.2l-0.5-0.8l-1.3-1.5l0.8-2.6l1.5-2.1l2.1-1.3h1.5l1.1-0.8h2.4
			l2.9,0.8l7.9,0.2l0.3,0.8h2.3v0.8h3.5l1.3,1l0.7,0.7l3.1-0.2l0.2,1h2.5l2-1.5l-0.2-0.5l0.7,0.1l0.2,1h1.8l0.1-0.6l1.5-0.4l0.1-1.4
			l1.9-0.1l0.7,0.7l1.1-0.1l0.8,0.8l3.6,0.2l0.3,0.8h2.1l0.1,1.1l2.1-0.4l0.5-2.3l1.9-0.1l0.3-1.1L59,25.1l-2.5,0.3l-0.4-1.2
			l-0.8-0.8l-0.6-0.8v-0.9h-1.4L53,22.1l0.1,1.6l-0.8,0.5h-1.9l-1.6-0.9l-1-0.7l-0.4-0.9h1.1l0.7-1.5l0.3-0.8c0,0,2.1-0.7,2.3-0.7
			h3.6l1.1,0.6l0.4,0.4l-0.6,0.9c0,0,0,0.8,0.2,0.8h1.7l6.2,0.4l1,2l1-0.6v-1.2l1.4-0.2v-1.3l1.1,0.1l0.5,3.1l2.9,2.8v2.7l-0.6,0.8
			l-0.7,0.5L70.6,30l-1.1-0.4h-4l-0.8,1.3l-0.3,0.4l-0.4,0.2c0,0-1,0.2-1.1,0s-0.8-0.6-0.8-0.6l-0.3-0.4l-0.3-0.2h-1.5l-0.5,0.4
			l-1.7,0.9c0,0-0.3,1,0.1,1h3.3c0,0,0.1-1,0.3-1s1.2,1,1.2,1l1.1,1l0.4,0.3l0.4-1.5l1.5-0.8c0,0,1-0.1,1.6-0.1h2.3
			c0,0-0.2-0.8,0-0.8s1.7,0.4,1.7,0.4s-0.2,0.1,0.1,0.7c0.3,0.6,1.5,0.8,1.5,0.8l0.3-0.9l2.5-0.3l0.8,0.1v-0.8L76,30.5l-0.4-0.4
			c0,0,0.1-0.6,0.4-0.8s1.1-0.6,1.1-0.6c0.2,0.1,0.4,0.2,0.6,0.4c0.3,0.3,0.6,0.4,0.6,0.8v1.3l1.7-0.1l0.8-0.7l0.3-0.9L79.9,29
			l-0.8-1.8v-3.6l-0.3-2.6l1.7-0.7c0,0,2.5-0.6,2.7-0.6s1,1,1,1v0.8l-1.8,0.6l-1.3,0.6l-0.8,0.9l0.5,0.8l1.1,0.3v1.5l1.4,2.1
			l0.3,1.1l2.9,0.1l1.3,2l1.2-0.2c0,0,0.7,0.1,0.7-0.3s-0.4-0.9,0-0.9s1.1-0.8,1.1-1c-0.1-0.4-0.2-0.8-0.3-1.2l-1-0.1l-0.5-1
			L88,26.5c0,0-0.4,0.4-0.6-0.5c-0.1-0.5-0.4-0.9-0.8-1.3c0-0.4,0-0.7,0-1.1c0-0.7,0.1-1.3,0.2-2c0.2-0.3,0.4-0.7,0.6-1h1.2l0.1,1.3
			h1.2l-0.1,1.6c0,0,0,1.1,0.2,1.1c0.3,0,0.6-0.1,0.9-0.1l0.3-1.2v-1.4l1.3-0.5v-0.7l0.7,0.1l0.7,1h3.4c1,0,4.6,3,4.6,3l4.6,0.4
			l1.5,1.7l0.4,3.4l-1.5,0.9l0.1,1l3.4,0.7h1c0,0,0.3,1.3,0.6,1.3h2.2v1.8c0,0-1.1,0.6-1.3,0.6c-0.6,0.6-1.1,1.3-1.6,2
			c0,0-0.1,0.8-0.8,0.3c-0.7-0.6-1.4-1.3-2-2l-0.5-0.6l-0.3,1c0,0-0.3,0.5,0.2,0.6s2,2,2,2l0.8,1l-1.4,1.1h-2.5l-0.5,2.2l-1-0.4
			l-0.5-1.3l-3-1.8l-0.3-1.4l-1.2-0.8l-3.1-0.2l-0.1-0.6l0.3-0.8h0.5l0.1,0.4h1.7l0.8-1.8l0.3-1.8c0,0,0.3-1.2,0.4-1.5
			c0.2-0.4,0.3-0.8,0.6-1.1l-0.6-0.9l-2-1.2l-2.2-0.8L94.5,27l-1.9,0.5l-0.7,1.2c0,0,0.3,1.3,0.8,1.3h2l0.3,0.6l-0.3,0.5l-0.6,0.4
			H93l-1,2.2L91.5,35l-2,1l-0.7,1c0.4,0.2,0.8,0.3,1.3,0.3c0.8,0.6,1.5,1.3,2.1,2l1.6,0.1l-1,1h-1.2l-3.4,0.3l-1.5-0.5l-0.1-0.6
			c0-0.4,0-0.9,0.1-1.3c0-0.3,0.1-0.6,0.1-0.9c0,0-0.1-0.9-0.8-0.5c-0.4,0.2-0.9,0.4-1.3,0.5l0.3,1.5l-1,0.3h-1.3l-0.8,2l-2.7,1.1
			l-0.6,1.6l-0.3,1l-1.1,2.6l-0.8-0.3l0.1,1c0,0,1.1,0.2,1.3,0.2s1.3,1,1.3,1l0.8,1.8h4l1.7,1.8l1.1,2.2c0,0,2.1-0.5,2.4-0.5
			c0.6,0.3,1.2,0.8,1.7,1.2l0.6,3.7l1.5,0.8l1.2,0.2l0.1-4.1l1.8-1.6l1-2.2L96.8,50l-1.6-0.3l-0.5-2.8l1.1,0.1l0.2-3.9l1-0.8
			l1.4-0.1v1.4h2.2c0.3,0,1.5-0.3,1.5-0.3s0.1,1.7,0.3,1.7s1.8-0.1,1.8-0.1l0.8,2.3V49l1,0.4l1.3-0.3l0.3-0.7c0,0,0.5-1.5,0.7-1.5
			s1.7-0.3,1.7-0.3l1,0.4l1.3,4.1l2,3.1c0,0,1.6,2.5,2.9,2.5s2.4,1.7,2.4,1.7l-1.2,2.3l-2,2.2l-2.7,0.1l-4,0.6l-1.2,0.7l-1.3,0.2
			l0.1,2.2l2.2-0.6c0,0-0.2-0.3,0.2-0.3s1.9-0.2,1.9-0.2s-0.2,1.3-0.2,1.5c0.1,0.5,0.3,0.9,0.4,1.3l2.4,0.1l-0.8,1.3h2.7l-1.8,1.8
			l-1.2,1.3H112l-2,0.1l-0.6-1.5l-0.8-1.6c0,0-0.8,0.5-0.5,0.8c0.2,0.7,0.3,1.5,0.3,2.2c0,0-0.1,0.6,0.3,0.8
			c0.5,0.4,0.9,0.8,1.2,1.4l-0.6,0.5c-0.2,0.1-0.4,0.1-0.6,0.1h-0.6l-1-0.1l-0.4-1l-1.3-0.7c0,0-0.8,0.6-0.8,0.8s-0.4,1.6-0.4,1.6
			l-1.6,0.3l-1.3,0.6l-0.3,3.1l-2.2,1.8l0.6,3.7l-2.4,0.9l-1,3.1l-1,2.2v3.7l0.8,0.9l-0.2,2.5L94,99.1c0,0-2.5-2-2.5-2.6
			s-0.2-2.4-0.2-2.4l-0.6-0.8l-1-0.1l-3.5-1.2v1.5l-1.9,0.3l-4.7-1L79,92.7l-0.6,1.6L77,94.6l-1.1,3.8v1.9c0,0.8-0.1,3.7-0.1,3.7
			l0.3,1.3h0.6l0.3,1.6l1,1.1h1.1l0.4,0.8h1.1c0.3,0,0.6,0,0.9,0c0.2,0.1,1.6-0.6,1.6-0.8c-0.1-0.5,0-1.1,0.1-1.6
			c0.2-0.3,0.7-0.4,0.9-0.8s1.8-1,2-1.3s1.5-1.1,1.5-1.1c0,0.5,0,1.1,0.1,1.6c0.1,0.6-0.1,5.6-0.1,5.6l0.5,0.6
			c0.4,0.1,0.7,0.4,0.7,0.8c0,0.8-0.7,6.6-0.7,6.6l1.1,1.6l-0.4,0.3h-1.6c-0.4-0.3-0.9-0.6-1.3-0.8c-0.2-0.1-1.9-1.3-1.9-1.8v-2
			c-0.1-0.5-0.2-1-0.4-1.4l-2.7-0.1c0,0-1.5-0.8-1.5-1s-1-1.2-1-1.2l-1.8-1.2h-5.9l-0.4-0.5c0.2-0.4,0.4-0.9,0.5-1.3
			c0-0.4-0.6-1-0.6-1l-2.2-1.8l-0.1-1.3l0.7-0.5c0-0.3-0.1-0.7-0.2-1l-2.4-4.9l-0.4-0.6l-1.9-2L63,95.1c0,0-0.8-1.5-0.8-1.2v3
			c0.1,0.5,0.2,0.9,0.3,1.4c0.1,0.5,0.2,1.1,0.1,1.6v1.1l-0.1,0.6h-0.8L61.5,100.7z"/>
		<path d="M93.6,101.4v1.5c0.8,0.4,1.7,0.7,2.5,0.9c0.1,0.6,0.3,1.1,0.5,1.7c0.4,0.3,0.7,0.6,1.1,1h1.9c0.1-0.4,0.1-0.8,0-1.1
			c-0.3-0.3-0.6-0.6-0.9-0.8h-1l-0.6-1c-0.1-0.2-1-1-1-1.2s0.5-0.4,0-0.6c-0.5-0.2-1-0.3-1.5-0.3c-0.2-0.1-0.5-0.2-0.7-0.3
			C93.7,101.1,93.6,101.2,93.6,101.4"/>
		<g>
			<defs>
				<path id="SVGID_3_" d="M93.6,101.4v1.5c0.8,0.4,1.7,0.7,2.5,0.9c0.1,0.6,0.3,1.1,0.5,1.7c0.4,0.3,0.7,0.6,1.1,1h1.9
					c0.1-0.4,0.1-0.8,0-1.1c-0.3-0.3-0.6-0.6-0.9-0.8h-1l-0.6-1c-0.1-0.2-1-1-1-1.2s0.5-0.4,0-0.6c-0.5-0.2-1-0.3-1.5-0.3
					c-0.2-0.1-0.5-0.2-0.7-0.3C93.7,101.1,93.6,101.2,93.6,101.4"/>
			</defs>
			<clipPath id="SVGID_4_">
				<use xlink:href="#SVGID_3_"  style="overflow:visible;"/>
			</clipPath>
			<g class="st1">
				<rect x="93.6" y="101.1" width="6.2" height="5.3"/>
			</g>
		</g>
		<path d="M97.7,106.4h1.9c0.1-0.4,0.1-0.8,0-1.1c-0.3-0.3-0.6-0.6-0.9-0.8h-1l-0.6-1c-0.1-0.2-1-1-1-1.2s0.5-0.4,0-0.6
			c-0.5-0.2-1-0.3-1.5-0.3c0,0-1-0.6-1,0v1.5c0.8,0.4,1.7,0.7,2.5,0.9c0.1,0.6,0.3,1.1,0.5,1.7C97,105.7,97.4,106.1,97.7,106.4z"/>
		<path d="M103.5,106.4v1c0,0.3-1.4,0.7-1.4,0.7l-0.6,0.9h1.2v0.8c0.6-0.1,1.2-0.1,1.8,0c0.3,0.2,0.9-0.3,0.9-0.3l0.8-0.6l0.5-0.4
			l-0.4-1.4l-1.5-0.1v-0.6L103.5,106.4z"/>
		<g>
			<defs>
				<path id="SVGID_5_" d="M103.5,106.4v1c0,0.3-1.4,0.7-1.4,0.7l-0.6,0.9h1.2v0.8c0.6-0.1,1.2-0.1,1.8,0c0.3,0.2,0.9-0.3,0.9-0.3
					l0.8-0.6l0.5-0.4l-0.4-1.4l-1.5-0.1v-0.6L103.5,106.4z"/>
			</defs>
			<clipPath id="SVGID_6_">
				<use xlink:href="#SVGID_5_"  style="overflow:visible;"/>
			</clipPath>
			<g class="st2">
				<rect x="101.4" y="106.4" width="5.2" height="3.7"/>
			</g>
		</g>
		<path d="M102.6,109.9V109h-1.2l0.6-0.9c0,0,1.4-0.4,1.4-0.7v-1h1.3v0.6l1.5,0.1l0.4,1.4l-0.5,0.4l-0.8,0.6c0,0-0.6,0.5-0.9,0.3
			C103.8,109.7,103.2,109.7,102.6,109.9z"/>
		<path d="M53.3,12.1v1.4l-1.2,0.6h-1.3c-0.1,0.5-0.1,1.1,0,1.6c0.1,0.1,0.1,0,0.3,0c0.2-0.1,0.4-0.1,0.6,0c0.7,0.1,1.4,0.1,2-0.1
			l0.9-1.3h1V15l0.4,1.2c0,0,1,2,1.2,1.7s1.5-0.5,1.5-0.5l1.2-0.4l0.7,0.9c0,0-0.9,1.4,0,1.5c0.4,0,0.9,0,1.3,0
			c0.4-0.1,0.9-0.1,1.3,0c0.5,0.1,0.5-0.1,0.5-0.3s0.4-0.6,1-0.6c0.9-0.1,1.8-0.3,2.6-0.5l-0.3-1L66,15.6c0,0,0.2-1.1-0.1-1.2
			c-0.4,0-0.8,0-1.1,0c0,0-1.1,0.8-1.1,1c-0.2,0.6-0.4,1.3-0.6,1.9l-1.4-0.4l-0.2-1.1l-1.5-0.1L60,16.2l-2.7-1l-0.5-1.4v-1.7H53.3z"
			/>
		<g>
			<defs>
				<path id="SVGID_7_" d="M53.3,12.1v1.4l-1.2,0.6h-1.3c-0.1,0.5-0.1,1.1,0,1.6c0.1,0.1,0.1,0,0.3,0c0.2-0.1,0.4-0.1,0.6,0
					c0.7,0.1,1.4,0.1,2-0.1l0.9-1.3h1V15l0.4,1.2c0,0,1,2,1.2,1.7s1.5-0.5,1.5-0.5l1.2-0.4l0.7,0.9c0,0-0.9,1.4,0,1.5
					c0.4,0,0.9,0,1.3,0c0.4-0.1,0.9-0.1,1.3,0c0.5,0.1,0.5-0.1,0.5-0.3s0.4-0.6,1-0.6c0.9-0.1,1.8-0.3,2.6-0.5l-0.3-1L66,15.6
					c0,0,0.2-1.1-0.1-1.2c-0.4,0-0.8,0-1.1,0c0,0-1.1,0.8-1.1,1c-0.2,0.6-0.4,1.3-0.6,1.9l-1.4-0.4l-0.2-1.1l-1.5-0.1L60,16.2
					l-2.7-1l-0.5-1.4v-1.7H53.3z"/>
			</defs>
			<clipPath id="SVGID_8_">
				<use xlink:href="#SVGID_7_"  style="overflow:visible;"/>
			</clipPath>
			<g class="st3">
				<rect x="50.7" y="12.1" width="16.6" height="7.3"/>
			</g>
		</g>
		<path d="M53.6,15.6l0.9-1.3h1V15l0.4,1.2c0,0,1,2,1.2,1.7s1.5-0.5,1.5-0.5l1.2-0.4l0.7,0.9c0,0-0.9,1.4,0,1.5s2.1-0.1,2.6,0
			s0.5-0.1,0.5-0.3s0.4-0.6,1-0.6c0.9-0.1,1.8-0.3,2.6-0.5l-0.3-1L66,15.6c0,0,0.2-1.1-0.1-1.2c-0.4,0-0.8,0-1.1,0
			c0,0-1.1,0.8-1.1,1c-0.2,0.6-0.4,1.3-0.6,1.9l-1.4-0.4l-0.2-1.1l-1.5-0.1L60,16.2l-2.7-1l-0.5-1.4v-1.7h-3.5v1.4l-1.2,0.6h-1.3
			c-0.1,0.5-0.1,1.1,0,1.6c0.2,0.2,0.3-0.2,0.8,0C52.3,15.9,53,15.8,53.6,15.6z"/>
		<path d="M62.4,10.9v1.3c0,0-0.7,0.8,0,0.8h0.7l-0.2-0.8h0.6l0.8-0.3v-1L62.4,10.9z"/>
		<g>
			<defs>
				<path id="SVGID_9_" d="M62.4,10.9v1.3c0,0-0.7,0.8,0,0.8h0.7l-0.2-0.8h0.6l0.8-0.3v-1L62.4,10.9z"/>
			</defs>
			<clipPath id="SVGID_10_">
				<use xlink:href="#SVGID_9_"  style="overflow:visible;"/>
			</clipPath>
			<g class="st4">
				<rect x="61.7" y="10.9" width="2.6" height="2"/>
			</g>
		</g>
		<path d="M62.8,12.1h0.6l0.8-0.3v-1h-1.9v1.3c0,0-0.7,0.8,0,0.8h0.7L62.8,12.1z"/>
		<path d="M69.4,8.1v2.1l0.5,0.7c0.5,0,1,0,1.4,0c0.5,0.1,0.5,0.2,0.9,0.7l0.4,0.4c0.2-0.3,0.5-0.3,0.8-0.1c0.1,0.1,0.2,0.2,0.2,0.3
			c0.4,0.8-0.1,0.8,0.4,0.8s0.6-0.4,0.6-1V10c0,0,0.7-0.5,0-0.7c-1-0.1-1.9-0.2-2.9-0.1L70.4,9V8.1H69.4z"/>
		<g>
			<defs>
				<path id="SVGID_11_" d="M69.4,8.1v2.1l0.5,0.7c0.5,0,1,0,1.4,0c0.5,0.1,0.5,0.2,0.9,0.7l0.4,0.4c0.2-0.3,0.5-0.3,0.8-0.1
					c0.1,0.1,0.2,0.2,0.2,0.3c0.4,0.8-0.1,0.8,0.4,0.8s0.6-0.4,0.6-1V10c0,0,0.7-0.5,0-0.7c-1-0.1-1.9-0.2-2.9-0.1L70.4,9V8.1H69.4z
					"/>
			</defs>
			<clipPath id="SVGID_12_">
				<use xlink:href="#SVGID_11_"  style="overflow:visible;"/>
			</clipPath>
			<g class="st5">
				<rect x="69.4" y="8.1" width="6.1" height="4.9"/>
			</g>
		</g>
		<path d="M69.4,8.1v2.1l0.5,0.7c0.5,0,1,0,1.4,0c0.5,0.1,0.5,0.2,0.9,0.7l0.4,0.4c0.2-0.3,0.5-0.3,0.8-0.1c0.1,0.1,0.2,0.2,0.2,0.3
			c0.4,0.8-0.1,0.8,0.4,0.8s0.6-0.4,0.6-1V10c0,0,0.7-0.5,0-0.7c-1-0.1-1.9-0.2-2.9-0.1L70.4,9V8.1H69.4z"/>
		<path d="M74.2,15.3c-0.4,0-0.7,0.1-0.9,0.4v1.2c0,0.3,1.1,0.5,1.1,0.5h0.8v0.9l0.6,0.3l1.1-0.3l-0.2-0.8c-0.1-0.4-0.1-0.8,0-1.1
			h-0.8v-1.1H74.2z"/>
		<g>
			<defs>
				<path id="SVGID_13_" d="M74.2,15.3c-0.4,0-0.7,0.1-0.9,0.4v1.2c0,0.3,1.1,0.5,1.1,0.5h0.8v0.9l0.6,0.3l1.1-0.3l-0.2-0.8
					c-0.1-0.4-0.1-0.8,0-1.1h-0.8v-1.1H74.2z"/>
			</defs>
			<clipPath id="SVGID_14_">
				<use xlink:href="#SVGID_13_"  style="overflow:visible;"/>
			</clipPath>
			<g class="st6">
				<rect x="73.2" y="15.3" width="3.6" height="3.2"/>
			</g>
		</g>
		<path d="M75.1,18.3v-0.9h-0.8c0,0-1.1-0.1-1.1-0.5v-1.1c0.2-0.3,0.6-0.5,0.9-0.4h1.6v1.1h0.8c-0.1,0.4-0.1,0.8,0,1.1l0.2,0.8
			l-1.1,0.3L75.1,18.3z"/>
		<path d="M74.3,20.5l-0.4,1l-0.3,0.3c0,0-1.4-0.8-1.3,0.1c0.1,0.5,0.4,1,1,1.1h1.4l0.3,0.5v0.6l0.1,1.3h1.7c0.4,0,0.6-1.3,0.6-1.3
			s-0.2-0.6,0.4-0.6s1.5,0.8,0.9,0c-0.4-0.5-0.8-0.9-1.4-1.1h-1.1l-0.2-1l-1-0.8L74.3,20.5z"/>
		<g>
			<defs>
				<path id="SVGID_15_" d="M74.3,20.5l-0.4,1l-0.3,0.3c0,0-1.4-0.8-1.3,0.1c0.1,0.5,0.4,1,1,1.1h1.4l0.3,0.5v0.6l0.1,1.3h1.7
					c0.4,0,0.6-1.3,0.6-1.3s-0.2-0.6,0.4-0.6s1.5,0.8,0.9,0c-0.4-0.5-0.8-0.9-1.4-1.1h-1.1l-0.2-1l-1-0.8L74.3,20.5z"/>
			</defs>
			<clipPath id="SVGID_16_">
				<use xlink:href="#SVGID_15_"  style="overflow:visible;"/>
			</clipPath>
			<g class="st7">
				<rect x="72.2" y="20.5" width="7" height="4.8"/>
			</g>
		</g>
		<path d="M75,23.5v0.6l0.1,1.3h1.7c0.4,0,0.6-1.3,0.6-1.3s-0.2-0.6,0.4-0.6s1.5,0.8,0.9,0c-0.4-0.5-0.8-0.9-1.4-1.1h-1.1l-0.2-1
			l-1-0.8h-0.8l-0.4,1l-0.3,0.3c0,0-1.4-0.8-1.3,0.1c0.1,0.5,0.4,1,1,1.1h1.4L75,23.5z"/>
		<path d="M79.4,13.4c0,0-0.6,0.2-0.6,0.5s-0.4,1.3,0,1.4s0.6,0.8,0.6,0.8l1-0.4v-2.3H79.4z"/>
		<g>
			<defs>
				<path id="SVGID_17_" d="M79.4,13.4c0,0-0.6,0.2-0.6,0.5s-0.4,1.3,0,1.4s0.6,0.8,0.6,0.8l1-0.4v-2.3H79.4z"/>
			</defs>
			<clipPath id="SVGID_18_">
				<use xlink:href="#SVGID_17_"  style="overflow:visible;"/>
			</clipPath>
			<g class="st8">
				<rect x="78.4" y="13.4" width="2" height="2.7"/>
			</g>
		</g>
		<path d="M79.4,16.1l1-0.4v-2.3h-1c0,0-0.6,0.2-0.6,0.5s-0.4,1.3,0,1.4S79.4,16.1,79.4,16.1z"/>
		<path d="M82.1,15.3c-0.1,0.4-0.1,0.8,0,1.1c0.4,0.4,0.9,0.9,1.4,1.2v1.7h12.6l0.8-0.8L95.4,18h-5.8c-0.4,0-2.4-0.2-2.4-0.2v-0.5
			l-0.6-1.1c-0.4,0.3-0.9,0.5-1.4,0.7c-0.5,0.1-0.9-0.7-0.9-0.7v-0.8h-1.6v-1C82.4,14.6,82.2,14.9,82.1,15.3"/>
		<g>
			<defs>
				<path id="SVGID_19_" d="M82.1,15.3c-0.1,0.4-0.1,0.8,0,1.1c0.4,0.4,0.9,0.9,1.4,1.2v1.7h12.6l0.8-0.8L95.4,18h-5.8
					c-0.4,0-2.4-0.2-2.4-0.2v-0.5l-0.6-1.1c-0.4,0.3-0.9,0.5-1.4,0.7c-0.5,0.1-0.9-0.7-0.9-0.7v-0.8h-1.6v-1
					C82.4,14.6,82.2,14.9,82.1,15.3"/>
			</defs>
			<clipPath id="SVGID_20_">
				<use xlink:href="#SVGID_19_"  style="overflow:visible;"/>
			</clipPath>
			<g class="st9">
				<rect x="81.9" y="14.3" width="14.9" height="5.1"/>
			</g>
		</g>
		<path d="M83.4,19.4v-1.7c-0.5-0.4-0.9-0.8-1.4-1.2c-0.1-0.4-0.1-0.8,0-1.1c0.1-0.4,0.4-0.8,0.6-1.1v1.1h1.6v0.8
			c0,0,0.4,0.7,0.9,0.7c0.5-0.1,1-0.4,1.4-0.7l0.6,1.1v0.5c0,0,2,0.2,2.4,0.2h5.8l1.4,0.5L96,19.4C96,19.4,83.4,19.4,83.4,19.4z"/>
		<path d="M96.1,16.5L96.1,16.5L96.1,16.5 M110.2,0.1c-0.6,0.1-1.2,0.1-1.7,0c-0.6-0.1-1.3-0.1-1.9,0c-1.1,0.1-2.1,0.1-3.2,0h-5.7
			l-1.3,1.4h-5.5v1.4h-2l-0.2,0.6h-4.2l1.3,2h-2.4L83.6,4c-0.7-0.2-1.4-0.4-2.1-0.6c-0.5-0.1-0.4,0.3-0.5,0.5
			c-0.2,0.2-0.8,1.3-0.8,1.3l-0.9,1.1l-0.3,1.3L80,8.1l1.2,0.5v1.3l1.5,1l0.9,1c0.4-0.4,0.7-0.9,1-1.4c0.1-0.4,1,0,1,0l0.6,0.8
			c0.4-0.1,0.7-0.2,1-0.4c0.2-0.2,1.1-0.2,1.3-0.4s1.7,0.4,1.7,0.4c0,0.3,0,0.7,0,1c-0.1,0.5-0.9,0.7-1.1,1s-1.4,0.4-1.5,0.5
			c-0.3,0.4-0.5,0.9-0.8,1.4c0,0.5-0.1,0.9-0.2,1.4c-0.2,0.5,1.4,0,1.7,0H92c0,0,3.5,0.2,4,0.3c-0.3-0.1-0.4-2.2-0.4-2.2l0.8-2.4
			h4.4L100.6,8h4.8l0.2-0.7h1.2l0.1-1.2l1.7-0.1l0.5,0.2l2-1.4l2-1.4c0.5-0.1,1-0.2,1.5-0.2c0.4,0,0.5-0.8,0.5-0.8l-1.1-0.9
			c0-0.4,0-0.8,0-1.1C114,0.3,113,0.1,113,0.1S112.1,0,111.3,0C111,0,110.6,0,110.2,0.1"/>
		<g>
			<defs>
				<path id="SVGID_21_" d="M96.1,16.5L96.1,16.5L96.1,16.5 M110.2,0.1c-0.6,0.1-1.2,0.1-1.7,0c-0.6-0.1-1.3-0.1-1.9,0
					c-1.1,0.1-2.1,0.1-3.2,0h-5.7l-1.3,1.4h-5.5v1.4h-2l-0.2,0.6h-4.2l1.3,2h-2.4L83.6,4c-0.7-0.2-1.4-0.4-2.1-0.6
					c-0.5-0.1-0.4,0.3-0.5,0.5c-0.2,0.2-0.8,1.3-0.8,1.3l-0.9,1.1l-0.3,1.3L80,8.1l1.2,0.5v1.3l1.5,1l0.9,1c0.4-0.4,0.7-0.9,1-1.4
					c0.1-0.4,1,0,1,0l0.6,0.8c0.4-0.1,0.7-0.2,1-0.4c0.2-0.2,1.1-0.2,1.3-0.4s1.7,0.4,1.7,0.4c0,0.3,0,0.7,0,1
					c-0.1,0.5-0.9,0.7-1.1,1s-1.4,0.4-1.5,0.5c-0.3,0.4-0.5,0.9-0.8,1.4c0,0.5-0.1,0.9-0.2,1.4c-0.2,0.5,1.4,0,1.7,0H92
					c0,0,3.5,0.2,4,0.3c-0.3-0.1-0.4-2.2-0.4-2.2l0.8-2.4h4.4L100.6,8h4.8l0.2-0.7h1.2l0.1-1.2l1.7-0.1l0.5,0.2l2-1.4l2-1.4
					c0.5-0.1,1-0.2,1.5-0.2c0.4,0,0.5-0.8,0.5-0.8l-1.1-0.9c0-0.4,0-0.8,0-1.1C114,0.3,113,0.1,113,0.1S112.1,0,111.3,0
					C111,0,110.6,0,110.2,0.1"/>
			</defs>
			<clipPath id="SVGID_22_">
				<use xlink:href="#SVGID_21_"  style="overflow:visible;"/>
			</clipPath>
			<g class="st10">
				<rect x="78.8" width="36.3" height="16.7"/>
			</g>
		</g>
		<path d="M86.7,14.8c0.2-0.5,0.5-0.9,0.8-1.4c0.2-0.1,1.3-0.2,1.5-0.5s1.1-0.5,1.1-1c0-0.3,0-0.7,0-1c0,0-1.5-0.5-1.7-0.4
			s-1,0.1-1.3,0.4c-0.3,0.2-0.6,0.4-1,0.4l-0.6-0.8c0,0-0.9-0.3-1,0c-0.3,0.5-0.6,1-1,1.4l-0.9-1l-1.5-1V8.6L80,8.1l-1.2-0.4
			l0.3-1.3l0.9-1.1c0,0,0.7-1.1,0.8-1.3s0-0.6,0.5-0.5c0.7,0.2,1.4,0.4,2.1,0.6l-0.1,1.4h2.3l-1.3-2.1h4.2l0.2-0.6h2V1.5h5.5
			l1.3-1.4h5.7c1.1,0.1,2.1,0.1,3.2,0c0.5-0.2,3.3,0.2,3.6,0c0.9-0.1,1.9-0.2,2.8-0.1c0,0,1.1,0.2,1.1,0.4c0,0.4,0,0.8,0,1.1
			l1.1,0.9c0,0-0.1,0.8-0.5,0.8c-0.5,0-1,0.1-1.5,0.2l-2,1.4l-2,1.4l-0.5-0.2L107,6.2l-0.1,1.2h-1.2l-0.2,0.7h-4.8l0.1,3.8h-4.4
			l-0.8,2.4c0,0,0.2,2.2,0.5,2.2s-4-0.3-4-0.3h-3.8c-0.2,0-1.8,0.5-1.7,0C86.7,15.7,86.7,15.2,86.7,14.8z"/>
	</g>
</g>
</svg>
