<?xml version="1.0" encoding="utf-8"?>
<!-- Generator: Adobe Illustrator 25.0.0, SVG Export Plug-In . SVG Version: 6.00 Build 0)  -->
<svg version="1.1" id="Layer_1" xmlns="http://www.w3.org/2000/svg" xmlns:xlink="http://www.w3.org/1999/xlink" x="0px" y="0px"
	 viewBox="0 0 70.7 125.6" style="enable-background:new 0 0 70.7 125.6;" xml:space="preserve">
<style type="text/css">
	.st0{clip-path:url(#SVGID_2_);}
	.st1{clip-path:url(#SVGID_4_);}
</style>
<g id="Layer_2_1_">
	<g id="Layer_1-2">
		<path d="M27.2,0L24,1.3l-0.6,1.4l-2.8,1h-3.3c0,0-1,1.4,0.8,1.7s2.1,2.1,2.1,3.1s-0.1,3.7-0.1,3.7v3.5l-3.1,1.4v2.4l0.8,0.1
			l-0.8,1.6v3.2c0.5,0.2,1,0.3,1.5,0.4c0.4,0,1.1,3.1,1.1,3.1l3,6.6c0,0,2.1,1.6,3.2,5.7S26.4,56,26.4,56s-2,7.9-4,9.5
			c-0.6,1.1,0.4,7.8,0.4,7.8l0.7,0.3v3.4l-1.1,0.7l0.1,1.3l-0.1,2.7l-1,1.4c0,0,0.3,1.1,0.7,1.1s0.9,3,0.9,3l0.9,2.1
			c0,0,0.6,2.3,1.7,2.3s2.3-7.1,4.7-7.3s1.5-7,1.5-7l1.4-2h0.7v-1.4l-1-1.7l1-1.1l2.3-0.7l2.1-1.8l3-1.1v-3.8l3.5-1.3l2.5-2.8
			l2.1-1.8l1.3-7.4l5-4.1l4-0.7v-2.8l1.4-2.4v-2.3l2.8-0.8v-5l3.4-4.4c0,0,1.4-0.6,1-3.4S65.5,23,64.6,23s-2.1-3.3-2.1-3.3l-5-0.7
			l-1.8-2.4c0,0-3.2,0-3.8,1.3s-1.4-0.7-1.4-0.7l0.5-5.2l-2.7-2.5L44,8.2l-1.8-0.7l-0.7-2.8l-3.2-2.3h-5.9L30,0H27.2z"/>
		<g>
			<defs>
				<path id="SVGID_1_" d="M27.2,0L24,1.3l-0.6,1.4l-2.8,1h-3.3c0,0-1,1.4,0.8,1.7s2.1,2.1,2.1,3.1s-0.1,3.7-0.1,3.7v3.5l-3.1,1.4
					v2.4l0.8,0.1l-0.8,1.6v3.2c0.5,0.2,1,0.3,1.5,0.4c0.4,0,1.1,3.1,1.1,3.1l3,6.6c0,0,2.1,1.6,3.2,5.7S26.4,56,26.4,56
					s-2,7.9-4,9.5c-0.6,1.1,0.4,7.8,0.4,7.8l0.7,0.3v3.4l-1.1,0.7l0.1,1.3l-0.1,2.7l-1,1.4c0,0,0.3,1.1,0.7,1.1s0.9,3,0.9,3l0.9,2.1
					c0,0,0.6,2.3,1.7,2.3s2.3-7.1,4.7-7.3s1.5-7,1.5-7l1.4-2h0.7v-1.4l-1-1.7l1-1.1l2.3-0.7l2.1-1.8l3-1.1v-3.8l3.5-1.3l2.5-2.8
					l2.1-1.8l1.3-7.4l5-4.1l4-0.7v-2.8l1.4-2.4v-2.3l2.8-0.8v-5l3.4-4.4c0,0,1.4-0.6,1-3.4S65.5,23,64.6,23s-2.1-3.3-2.1-3.3l-5-0.7
					l-1.8-2.4c0,0-3.2,0-3.8,1.3s-1.4-0.7-1.4-0.7l0.5-5.2l-2.7-2.5L44,8.2l-1.8-0.7l-0.7-2.8l-3.2-2.3h-5.9L30,0H27.2z"/>
			</defs>
			<clipPath id="SVGID_2_">
				<use xlink:href="#SVGID_1_"  style="overflow:visible;"/>
			</clipPath>
			<g class="st0">
				<rect x="16.3" width="52.3" height="91.5"/>
			</g>
		</g>
		<path d="M25.5,91.5c1.1,0,2.3-7.1,4.7-7.3s1.4-6.9,1.4-6.9l1.4-2h0.7v-1.4l-1-1.7l1-1.1l2.3-0.7l2.1-1.8l3-1.1v-3.8l3.5-1.3
			l2.5-2.8l2.1-1.8l1.3-7.4l5-4.1l4-0.7v-2.8l1.4-2.4v-2.3l2.8-0.8v-5l3.4-4.4c0,0,1.4-0.6,1-3.4S65.5,23,64.5,23s-2.1-3.3-2.1-3.3
			l-5-0.7l-1.8-2.4c0,0-3.2,0-3.8,1.3s-1.4-0.7-1.4-0.7l0.5-5.2l-2.7-2.5L44,8.2l-1.8-0.7l-0.7-2.8l-3.2-2.3h-5.9L30,0h-2.8L24,1.3
			l-0.6,1.4l-2.8,1h-3.3c0,0-1,1.4,0.8,1.7s2.1,2.1,2.1,3.1s-0.1,3.7-0.1,3.7v3.5l-3.1,1.4v2.4l0.8,0.1l-0.8,1.6v3.2
			c0.5,0.2,1,0.3,1.5,0.4c0.4,0,1.1,3.1,1.1,3.1l3,6.6c0,0,2.1,1.6,3.2,5.7S26.4,56,26.4,56s-2,7.9-4,9.5c-0.6,1.1,0.4,7.8,0.4,7.8
			l0.7,0.3v3.4l-1.1,0.7l0.1,1.3l-0.1,2.7l-1,1.4c0,0,0.3,1.1,0.7,1.1s0.9,3,0.9,3l0.9,2.1C23.8,89.2,24.4,91.5,25.5,91.5z"/>
		<path d="M28.9,90.5h-1.6c0,0-0.1,2.2-0.1,2.3c0.3,0.3,0.6,0.5,1,0.7c0.1,0,0.1,0.7,0.1,0.7l0-0.1l3.5,0.1l0.1-0.9l0.9-0.3
			l-0.3-0.5h-1l0.1-0.9l-0.8-0.3v-0.8L28.9,90.5z"/>
		<g>
			<defs>
				<path id="SVGID_3_" d="M28.9,90.5h-1.6c0,0-0.1,2.2-0.1,2.3c0.3,0.3,0.6,0.5,1,0.7c0.1,0,0.1,0.7,0.1,0.7l0-0.1l3.5,0.1l0.1-0.9
					l0.9-0.3l-0.3-0.5h-1l0.1-0.9l-0.8-0.3v-0.8L28.9,90.5z"/>
			</defs>
			<clipPath id="SVGID_4_">
				<use xlink:href="#SVGID_3_"  style="overflow:visible;"/>
			</clipPath>
			<g class="st1">
				<rect x="27.2" y="90.5" width="5.7" height="3.8"/>
			</g>
		</g>
		<path d="M28.3,94.1l3.5,0.1l0.1-0.9l0.9-0.3l-0.3-0.5h-1l0.1-0.9l-0.8-0.3v-0.8h-3.5c0,0-0.1,2.2-0.1,2.3c0.3,0.3,0.6,0.6,1,0.7
			c0.1,0,0.1,0.7,0.1,0.7"/>
	</g>
</g>
</svg>
